<svg width="25" height="24" viewBox="0 0 25 24" fill="none" xmlns="http://www.w3.org/2000/svg">
<g clip-path="url(#clip0_12_19428)">
<g clip-path="url(#clip1_12_19428)">
<path d="M19.0763 13.453C18.4161 10.1305 21.5698 8.18184 21.5698 8.18184C21.5698 8.18184 20.3411 6.4042 18.2761 5.94688C16.2121 5.48857 15.1791 6.06119 14.1482 6.49067C13.1162 6.92119 12.6012 6.92119 12.6012 6.92119C11.112 6.92119 10.0233 5.34437 7.18589 6.06224C5.23111 6.55555 3.1733 8.81214 2.80149 11.5054C2.42969 14.1997 3.23202 17.6376 4.77895 20.302C6.32589 22.9685 7.9017 23.9706 9.02016 23.9994C10.1387 24.0272 11.2551 23.1981 12.6012 22.9963C13.9484 22.7964 14.7775 23.4845 16.0988 23.8563C17.4151 24.2271 17.8765 23.8831 19.3925 22.5936C20.9127 21.3041 22.2887 17.6057 22.2887 17.6057C22.2887 17.6057 19.7365 16.7776 19.0763 13.453Z" fill="#01395E"/>
<path d="M16.1534 3.79731C17.6158 2.30705 17.1205 0 17.1205 0C17.1205 0 15.0668 0.360484 13.6908 1.79206C12.3159 3.22469 12.5435 5.48743 12.5435 5.48743C12.5435 5.48743 14.6909 5.28661 16.1534 3.79731Z" fill="#01395E"/>
</g>
</g>
<defs>
<clipPath id="clip0_12_19428">
<rect width="24" height="24" fill="white" transform="translate(0.5)"/>
</clipPath>
<clipPath id="clip1_12_19428">
<rect width="24" height="24" fill="white" transform="translate(0.5)"/>
</clipPath>
</defs>
</svg>
