<svg width="41" height="40" viewBox="0 0 41 40" fill="none" xmlns="http://www.w3.org/2000/svg">
<g clip-path="url(#clip0_2042_2178)">
<path d="M31.7446 24.228C33.0953 23.9594 34.4956 24.0975 35.768 24.6245C37.0404 25.1516 38.1278 26.0448 38.893 27.1899C39.658 28.335 40.0668 29.681 40.0668 31.0581C40.0648 32.9044 39.3303 34.6745 38.0248 35.98C36.7193 37.2855 34.9492 38.0199 33.103 38.022C31.7258 38.0219 30.3799 37.6132 29.2348 36.8481C28.0896 36.083 27.1964 34.9956 26.6694 33.7231C26.1423 32.4507 26.0042 31.0505 26.2729 29.6997C26.5416 28.3489 27.2053 27.1082 28.1791 26.1343C29.153 25.1604 30.3938 24.4967 31.7446 24.228ZM33.103 25.4575C31.9953 25.4575 30.9126 25.7856 29.9916 26.4009C29.0706 27.0163 28.3521 27.8911 27.9282 28.9146C27.5042 29.938 27.3937 31.0644 27.6098 32.1509C27.8259 33.2373 28.3588 34.2357 29.142 35.019C29.9253 35.8023 30.9238 36.3351 32.0102 36.5513C33.0967 36.7674 34.223 36.6568 35.2465 36.2329C36.2699 35.809 37.1447 35.0914 37.7602 34.1704C38.3756 33.2493 38.7045 32.1659 38.7045 31.0581C38.7028 29.5732 38.112 28.1491 37.0619 27.0991C36.0119 26.0492 34.5879 25.4592 33.103 25.4575Z" fill="#CCBE7A" stroke="white" stroke-width="0.2"/>
<path d="M29.9583 27.2356C30.0926 27.2348 30.2233 27.2737 30.3343 27.3459L30.4378 27.4299L33.2659 30.2571L33.3069 30.2971L33.3626 30.2825L35.0071 29.842C35.1816 29.7953 35.3682 29.8191 35.5247 29.9094C35.6811 29.9998 35.7953 30.149 35.8421 30.3235C35.8888 30.498 35.8641 30.6846 35.7737 30.8411C35.6833 30.9974 35.5341 31.1117 35.3596 31.1584L33.2796 31.7161C33.222 31.7315 33.1624 31.7394 33.1028 31.7395C32.9224 31.7394 32.749 31.6678 32.6214 31.5403L29.4729 28.3918C29.3487 28.2638 29.2795 28.0918 29.2805 27.9133C29.2817 27.7342 29.3541 27.5625 29.4807 27.4358C29.6075 27.3091 29.7791 27.2367 29.9583 27.2356Z" fill="#CCBE7A" stroke="white" stroke-width="0.2"/>
<path d="M2.70769 4.5647H5.17155C5.35221 4.5647 5.52525 4.63717 5.653 4.76489C5.78076 4.89265 5.8532 5.06566 5.8532 5.24634C5.8532 5.42702 5.78076 5.60002 5.653 5.72778C5.52525 5.85551 5.35221 5.92798 5.17155 5.92798H2.70769L2.60124 5.93286C2.35441 5.95761 2.12193 6.06647 1.94499 6.24341C1.74282 6.44558 1.62993 6.72019 1.62956 7.0061V10.5256H34.8073V7.0061L34.8024 6.89966C34.7777 6.65282 34.6678 6.42035 34.4909 6.24341C34.2888 6.04151 34.0148 5.92839 33.7292 5.92798H31.2643C31.0838 5.92785 30.9105 5.85543 30.7829 5.72778C30.6553 5.60005 30.5837 5.42691 30.5837 5.24634C30.5837 5.06577 30.6553 4.89263 30.7829 4.76489C30.9105 4.63724 31.0838 4.56482 31.2643 4.5647H33.7292C34.3763 4.56544 34.9971 4.82291 35.4548 5.28052C35.9124 5.73813 36.1698 6.35894 36.1706 7.0061V11.2073C36.1706 11.2967 36.153 11.3854 36.1188 11.468C36.0846 11.5507 36.0337 11.6255 35.9704 11.6887C35.9072 11.7519 35.8322 11.802 35.7497 11.8362C35.6671 11.8704 35.5784 11.8879 35.4889 11.8879H0.947922C0.76728 11.8879 0.594228 11.8164 0.466476 11.6887C0.338754 11.561 0.266323 11.3879 0.266281 11.2073V7.0061C0.267046 6.35894 0.524486 5.73813 0.982101 5.28052C1.43972 4.8229 2.06053 4.56546 2.70769 4.5647Z" fill="#CCBE7A" stroke="white" stroke-width="0.2"/>
<path d="M23.5609 4.5647H28.2835C28.4642 4.5647 28.6372 4.63713 28.765 4.76489C28.8928 4.89265 28.9652 5.06566 28.9652 5.24634C28.9652 5.42702 28.8928 5.60002 28.765 5.72778C28.6372 5.85554 28.4642 5.92798 28.2835 5.92798H23.5609C23.3802 5.92798 23.2072 5.85554 23.0794 5.72778C22.9517 5.60002 22.8792 5.42702 22.8792 5.24634L22.8929 5.11255C22.9191 4.9817 22.9837 4.86065 23.0794 4.76489C23.2072 4.63713 23.3802 4.5647 23.5609 4.5647Z" fill="#CCBE7A" stroke="white" stroke-width="0.2"/>
<path d="M15.8568 4.5647H20.5795C20.7602 4.5647 20.9341 4.63713 21.0619 4.76489C21.1895 4.89262 21.2611 5.06582 21.2611 5.24634C21.2611 5.42686 21.1895 5.60006 21.0619 5.72778C20.9341 5.85554 20.7602 5.92798 20.5795 5.92798H15.8568C15.6761 5.92798 15.5031 5.85554 15.3754 5.72778C15.2476 5.60002 15.1752 5.42702 15.1752 5.24634C15.1752 5.06566 15.2476 4.89265 15.3754 4.76489C15.5031 4.63713 15.6761 4.5647 15.8568 4.5647Z" fill="#CCBE7A" stroke="white" stroke-width="0.2"/>
<path d="M8.15292 4.5647H12.8756C13.0562 4.5647 13.2293 4.63718 13.357 4.76489C13.4848 4.89265 13.5572 5.06566 13.5572 5.24634C13.5572 5.42702 13.4848 5.60002 13.357 5.72778C13.2293 5.85549 13.0562 5.92798 12.8756 5.92798H8.15292C7.97224 5.92798 7.79924 5.85554 7.67148 5.72778C7.54372 5.60002 7.47128 5.42702 7.47128 5.24634C7.47128 5.06566 7.54372 4.89265 7.67148 4.76489C7.79924 4.63713 7.97224 4.5647 8.15292 4.5647Z" fill="#CCBE7A" stroke="white" stroke-width="0.2"/>
<path d="M0.947922 10.5254H35.4889C35.6695 10.5255 35.8427 10.5979 35.9704 10.7256C36.0981 10.8533 36.1696 11.0264 36.1696 11.207V23.0732C36.1695 23.2538 36.0981 23.427 35.9704 23.5547C35.8427 23.6824 35.6695 23.7538 35.4889 23.7539C35.3083 23.7539 35.1343 23.6824 35.0065 23.5547C34.879 23.427 34.8074 23.2537 34.8073 23.0732V11.8887H1.62956V31.4658C1.62999 31.7515 1.74309 32.0255 1.94499 32.2275C2.12194 32.4045 2.3544 32.5143 2.60124 32.5391L2.70769 32.5439H24.4577C24.6382 32.5439 24.8114 32.6156 24.9391 32.7432C25.0669 32.8709 25.1393 33.0449 25.1393 33.2256C25.1393 33.4062 25.0668 33.5793 24.9391 33.707C24.8114 33.8347 24.6383 33.9062 24.4577 33.9062H2.70769C2.06053 33.9055 1.43972 33.648 0.982101 33.1904C0.52477 32.7329 0.267118 32.1127 0.266281 31.4658V11.207C0.266281 11.0264 0.338717 10.8533 0.466476 10.7256C0.594236 10.5978 0.767243 10.5254 0.947922 10.5254Z" fill="#CCBE7A" stroke="white" stroke-width="0.2"/>
<path d="M6.02811 1.97778H7.29667C7.70426 1.97828 8.09536 2.14075 8.38358 2.42896C8.67178 2.7172 8.83331 3.10826 8.83378 3.51587V6.97681C8.83323 7.38439 8.6718 7.77551 8.38358 8.06372C8.09536 8.35193 7.70426 8.51338 7.29667 8.51392H6.02811L5.87577 8.50708C5.52409 8.47174 5.19334 8.31581 4.9412 8.06372C4.65298 7.7755 4.49053 7.38441 4.49003 6.97681C4.49003 6.79617 4.56253 6.62311 4.69022 6.49536C4.81798 6.3676 4.99099 6.29517 5.17167 6.29517C5.35235 6.29517 5.52536 6.3676 5.65311 6.49536C5.78081 6.62311 5.85331 6.79617 5.85331 6.97681L5.866 7.04419C5.87473 7.06508 5.88777 7.08451 5.90409 7.10083C5.93687 7.13355 5.9818 7.15151 6.02811 7.15161H7.29667C7.34303 7.15151 7.38791 7.1336 7.42069 7.10083C7.45348 7.06804 7.47138 7.02318 7.47147 6.97681V3.51587C7.47143 3.4926 7.4666 3.46955 7.4578 3.44849L7.42069 3.39185L7.36308 3.35376C7.34221 3.34519 7.31966 3.34108 7.29667 3.34106H6.02811C5.98172 3.34106 5.93693 3.35908 5.90409 3.39185C5.87133 3.4246 5.85341 3.46954 5.85331 3.51587C5.85326 3.69648 5.78083 3.8696 5.65311 3.99731C5.52536 4.12501 5.3523 4.19653 5.17167 4.19653C4.99104 4.19653 4.81797 4.12501 4.69022 3.99731C4.56251 3.8696 4.49008 3.69648 4.49003 3.51587C4.49049 3.10821 4.65294 2.71721 4.9412 2.42896C5.19334 2.17683 5.52407 2.02094 5.87577 1.9856L6.02811 1.97778Z" fill="#CCBE7A" stroke="white" stroke-width="0.2"/>
<path d="M13.7322 1.97778H15.0007C15.4083 1.97828 15.7994 2.14075 16.0876 2.42896C16.3758 2.7172 16.5374 3.10828 16.5378 3.51587V6.97681C16.5373 7.38438 16.3758 7.7755 16.0876 8.06372C15.7994 8.35195 15.4083 8.51338 15.0007 8.51392H13.7322C13.3246 8.51345 12.9335 8.3519 12.6453 8.06372C12.3571 7.7755 12.1946 7.38438 12.1941 6.97681C12.1941 6.79617 12.2666 6.62311 12.3943 6.49536C12.522 6.3676 12.6951 6.29517 12.8757 6.29517C13.0564 6.29517 13.2294 6.3676 13.3572 6.49536C13.4849 6.62311 13.5574 6.79617 13.5574 6.97681L13.5701 7.04321C13.5787 7.06427 13.5918 7.0834 13.6082 7.09985C13.6408 7.13254 13.685 7.15132 13.7312 7.15161H15.0007C15.047 7.15142 15.092 7.13263 15.1248 7.09985C15.1572 7.06712 15.1754 7.02292 15.1755 6.97681V3.51587C15.1755 3.49262 15.1706 3.46954 15.1619 3.44849L15.1248 3.39185L15.0671 3.35376C15.0463 3.34518 15.0237 3.34111 15.0007 3.34106H13.7322C13.6858 3.34116 13.6409 3.35909 13.6082 3.39185C13.5754 3.4246 13.5575 3.46954 13.5574 3.51587C13.5573 3.60527 13.5388 3.69402 13.5046 3.77661C13.4704 3.85912 13.4203 3.93415 13.3572 3.99731C13.294 4.06049 13.219 4.11056 13.1365 4.14478C13.0538 4.17901 12.9652 4.19653 12.8757 4.19653C12.7863 4.19653 12.6976 4.17901 12.615 4.14478C12.5324 4.11056 12.4575 4.06049 12.3943 3.99731C12.3311 3.93415 12.2811 3.85912 12.2468 3.77661C12.2126 3.69402 12.1941 3.60527 12.1941 3.51587C12.1945 3.1082 12.357 2.71722 12.6453 2.42896C12.9335 2.14069 13.3245 1.97821 13.7322 1.97778Z" fill="#CCBE7A" stroke="white" stroke-width="0.2"/>
<path d="M21.4362 1.97778H22.7048C23.1122 1.97832 23.5026 2.14095 23.7907 2.42896C24.079 2.71722 24.2414 3.10819 24.2419 3.51587V6.97681C24.2414 7.38439 24.0789 7.77551 23.7907 8.06372C23.5026 8.35164 23.1121 8.51334 22.7048 8.51392H21.4362C21.0286 8.51345 20.6376 8.3519 20.3493 8.06372C20.0611 7.7755 19.8987 7.38438 19.8982 6.97681C19.8982 6.79617 19.9707 6.62311 20.0984 6.49536C20.2261 6.3676 20.3991 6.29517 20.5798 6.29517C20.7605 6.29517 20.9335 6.3676 21.0612 6.49536C21.1889 6.62311 21.2614 6.79617 21.2614 6.97681C21.2615 7.02302 21.2796 7.06709 21.3122 7.09985C21.345 7.13269 21.3898 7.15151 21.4362 7.15161H22.7048C22.7509 7.15149 22.7951 7.13332 22.8278 7.10083C22.8606 7.06804 22.8795 7.02318 22.8796 6.97681V3.51587C22.8795 3.46948 22.8607 3.42462 22.8278 3.39185C22.7951 3.35926 22.751 3.34115 22.7048 3.34106H21.4362C21.3898 3.34106 21.345 3.35903 21.3122 3.39185C21.2794 3.42466 21.2614 3.46945 21.2614 3.51587C21.2614 3.69648 21.189 3.8696 21.0612 3.99731C20.9335 4.12501 20.7604 4.19653 20.5798 4.19653C20.3992 4.19653 20.2261 4.12501 20.0984 3.99731C19.9706 3.8696 19.8982 3.69648 19.8982 3.51587C19.8986 3.1082 20.0611 2.71722 20.3493 2.42896C20.6376 2.14069 21.0286 1.97821 21.4362 1.97778Z" fill="#CCBE7A" stroke="white" stroke-width="0.2"/>
<path d="M29.14 1.97778H30.4085C30.8161 1.97828 31.2072 2.14075 31.4955 2.42896C31.7837 2.7172 31.9452 3.10826 31.9457 3.51587V6.97681C31.9451 7.38439 31.7837 7.77551 31.4955 8.06372C31.2072 8.35193 30.8161 8.51338 30.4085 8.51392H29.14L28.9876 8.50708C28.636 8.47174 28.3052 8.31581 28.0531 8.06372C27.7649 7.7755 27.6024 7.38441 27.6019 6.97681C27.6019 6.79617 27.6744 6.62311 27.8021 6.49536C27.9299 6.3676 28.1029 6.29517 28.2835 6.29517C28.4642 6.29517 28.6372 6.3676 28.765 6.49536C28.8927 6.62311 28.9652 6.79617 28.9652 6.97681L28.9779 7.04419C28.9866 7.06508 28.9996 7.08451 29.016 7.10083C29.0487 7.13354 29.0937 7.15151 29.14 7.15161H30.4085C30.4313 7.15159 30.4539 7.14754 30.475 7.13892C30.4962 7.13012 30.5163 7.11709 30.5326 7.10083C30.5488 7.08456 30.5619 7.06446 30.5707 7.04321C30.5793 7.02218 30.5833 6.99956 30.5834 6.97681V3.51587L30.5707 3.44849L30.5326 3.39185L30.475 3.35376C30.4539 3.34512 30.4313 3.34106 30.4085 3.34106H29.14C29.0936 3.34106 29.0488 3.35908 29.016 3.39185C28.9832 3.4246 28.9653 3.46954 28.9652 3.51587C28.9651 3.69648 28.8927 3.8696 28.765 3.99731C28.6372 4.12501 28.4642 4.19653 28.2835 4.19653C28.1029 4.19653 27.9299 4.12501 27.8021 3.99731C27.6744 3.8696 27.602 3.69648 27.6019 3.51587C27.6024 3.10821 27.7648 2.71721 28.0531 2.42896C28.3052 2.17683 28.6359 2.02094 28.9876 1.9856L29.14 1.97778Z" fill="#CCBE7A" stroke="white" stroke-width="0.2"/>
<path d="M5.17167 15.8406H8.15311C8.33372 15.8406 8.50685 15.9131 8.63456 16.0408C8.76226 16.1685 8.83378 16.3416 8.83378 16.5222C8.83378 16.7028 8.76226 16.8759 8.63456 17.0037C8.50685 17.1314 8.33372 17.2038 8.15311 17.2039H5.17167C4.99099 17.2039 4.81798 17.1314 4.69022 17.0037C4.56246 16.8759 4.49003 16.7029 4.49003 16.5222C4.49003 16.3415 4.56246 16.1685 4.69022 16.0408C4.81798 15.913 4.99099 15.8406 5.17167 15.8406Z" fill="#CCBE7A" stroke="white" stroke-width="0.2"/>
<path d="M12.8757 15.8406H15.8572C16.0377 15.8407 16.2109 15.9131 16.3386 16.0408C16.4663 16.1685 16.5378 16.3416 16.5378 16.5222C16.5378 16.7028 16.4663 16.8759 16.3386 17.0037C16.2109 17.1313 16.0377 17.2038 15.8572 17.2039H12.8757C12.6951 17.2039 12.522 17.1314 12.3943 17.0037C12.2665 16.8759 12.1941 16.7029 12.1941 16.5222C12.1941 16.3415 12.2665 16.1685 12.3943 16.0408C12.522 15.913 12.6951 15.8406 12.8757 15.8406Z" fill="#CCBE7A" stroke="white" stroke-width="0.2"/>
<path d="M20.5798 15.8406H23.5612C23.7418 15.8407 23.915 15.9131 24.0427 16.0408C24.1703 16.1685 24.2419 16.3416 24.2419 16.5222C24.2419 16.7028 24.1703 16.8759 24.0427 17.0037C23.915 17.1313 23.7418 17.2038 23.5612 17.2039H20.5798C20.3991 17.2039 20.2261 17.1314 20.0984 17.0037C19.9706 16.8759 19.8982 16.7029 19.8982 16.5222C19.8982 16.3415 19.9706 16.1685 20.0984 16.0408C20.2261 15.913 20.3991 15.8406 20.5798 15.8406Z" fill="#CCBE7A" stroke="white" stroke-width="0.2"/>
<path d="M28.2835 15.8406H31.265C31.4456 15.8406 31.6187 15.9131 31.7464 16.0408C31.8741 16.1685 31.9457 16.3416 31.9457 16.5222C31.9457 16.7029 31.8741 16.8759 31.7464 17.0037C31.6187 17.1314 31.4456 17.2038 31.265 17.2039H28.2835C28.1029 17.2039 27.9299 17.1314 27.8021 17.0037C27.6743 16.8759 27.6019 16.7029 27.6019 16.5222L27.6156 16.3884C27.6418 16.2576 27.7063 16.1365 27.8021 16.0408C27.9299 15.913 28.1029 15.8406 28.2835 15.8406Z" fill="#CCBE7A" stroke="white" stroke-width="0.2"/>
<path d="M5.17167 21.5344H8.15311C8.33372 21.5345 8.50685 21.6069 8.63456 21.7346C8.76226 21.8624 8.83378 22.0354 8.83378 22.2161C8.83378 22.3967 8.76226 22.5698 8.63456 22.6975C8.50685 22.8252 8.33372 22.8977 8.15311 22.8977H5.17167C4.99099 22.8977 4.81798 22.8253 4.69022 22.6975C4.56246 22.5698 4.49003 22.3967 4.49003 22.2161C4.49003 22.0354 4.56246 21.8624 4.69022 21.7346C4.81798 21.6069 4.99099 21.5344 5.17167 21.5344Z" fill="#CCBE7A" stroke="white" stroke-width="0.2"/>
<path d="M12.8757 21.5344H15.8572C16.0377 21.5345 16.2109 21.6069 16.3386 21.7346C16.4663 21.8624 16.5378 22.0355 16.5378 22.2161C16.5378 22.3967 16.4663 22.5698 16.3386 22.6975C16.2109 22.8252 16.0377 22.8976 15.8572 22.8977H12.8757C12.6951 22.8977 12.522 22.8253 12.3943 22.6975C12.2665 22.5698 12.1941 22.3967 12.1941 22.2161C12.1941 22.0354 12.2665 21.8624 12.3943 21.7346C12.522 21.6069 12.6951 21.5344 12.8757 21.5344Z" fill="#CCBE7A" stroke="white" stroke-width="0.2"/>
<path d="M20.5798 21.5344H23.5612C23.7418 21.5345 23.915 21.6069 24.0427 21.7346C24.1703 21.8624 24.2419 22.0355 24.2419 22.2161C24.2419 22.3967 24.1703 22.5698 24.0427 22.6975C23.915 22.8252 23.7418 22.8976 23.5612 22.8977H20.5798C20.3991 22.8977 20.2261 22.8253 20.0984 22.6975C19.9706 22.5698 19.8982 22.3967 19.8982 22.2161C19.8982 22.0354 19.9706 21.8624 20.0984 21.7346C20.2261 21.6069 20.3991 21.5344 20.5798 21.5344Z" fill="#CCBE7A" stroke="white" stroke-width="0.2"/>
<path d="M28.2835 21.5344H31.265C31.4456 21.5345 31.6187 21.6069 31.7464 21.7346C31.8741 21.8624 31.9457 22.0354 31.9457 22.2161C31.9457 22.3967 31.8741 22.5698 31.7464 22.6975C31.6187 22.8252 31.4456 22.8977 31.265 22.8977H28.2835C28.1029 22.8977 27.9299 22.8253 27.8021 22.6975C27.6743 22.5698 27.6019 22.3967 27.6019 22.2161L27.6156 22.0823C27.6418 21.9514 27.7063 21.8304 27.8021 21.7346C27.9299 21.6069 28.1029 21.5344 28.2835 21.5344Z" fill="#CCBE7A" stroke="white" stroke-width="0.2"/>
<path d="M5.17167 27.2283H8.15311C8.33372 27.2283 8.50685 27.3008 8.63456 27.4285C8.76226 27.5562 8.83378 27.7293 8.83378 27.9099C8.83378 28.0905 8.76226 28.2636 8.63456 28.3914C8.50685 28.5191 8.33372 28.5915 8.15311 28.5916H5.17167C4.99099 28.5916 4.81798 28.5191 4.69022 28.3914C4.56246 28.2636 4.49003 28.0906 4.49003 27.9099C4.49003 27.7292 4.56246 27.5562 4.69022 27.4285C4.81798 27.3007 4.99099 27.2283 5.17167 27.2283Z" fill="#CCBE7A" stroke="white" stroke-width="0.2"/>
<path d="M12.8757 27.2283H15.8572C16.0377 27.2284 16.2109 27.3008 16.3386 27.4285C16.4663 27.5562 16.5378 27.7293 16.5378 27.9099C16.5378 28.0905 16.4663 28.2636 16.3386 28.3914C16.2109 28.519 16.0377 28.5915 15.8572 28.5916H12.8757C12.6951 28.5916 12.522 28.5191 12.3943 28.3914C12.2665 28.2636 12.1941 28.0906 12.1941 27.9099C12.1941 27.7292 12.2665 27.5562 12.3943 27.4285C12.522 27.3007 12.6951 27.2283 12.8757 27.2283Z" fill="#CCBE7A" stroke="white" stroke-width="0.2"/>
<path d="M20.5798 27.2283H23.5612C23.7418 27.2284 23.915 27.3008 24.0427 27.4285C24.1703 27.5562 24.2419 27.7293 24.2419 27.9099C24.2419 28.0905 24.1703 28.2636 24.0427 28.3914C23.915 28.519 23.7418 28.5915 23.5612 28.5916H20.5798C20.3991 28.5916 20.2261 28.5191 20.0984 28.3914C19.9706 28.2636 19.8982 28.0906 19.8982 27.9099C19.8982 27.7292 19.9706 27.5562 20.0984 27.4285C20.2261 27.3007 20.3991 27.2283 20.5798 27.2283Z" fill="#CCBE7A" stroke="white" stroke-width="0.2"/>
</g>
<defs>
<clipPath id="clip0_2042_2178">
<rect width="40" height="40" fill="white" transform="translate(0.166672)"/>
</clipPath>
</defs>
</svg>
