<svg width="21" height="20" viewBox="0 0 21 20" fill="none" xmlns="http://www.w3.org/2000/svg">
<path d="M15.9 16.6667L19.0576 13.5091C19.1701 13.3965 19.2334 13.2439 19.2334 13.0848V8.75C19.2334 8.05964 18.6737 7.5 17.9834 7.5V7.5C17.293 7.5 16.7334 8.05964 16.7334 8.75V12.5" stroke="#728098" stroke-linecap="round" stroke-linejoin="round"/>
<path d="M15.9 13.3333L16.6151 12.6182C16.6908 12.5425 16.7333 12.4399 16.7333 12.3328V12.3328C16.7333 12.1799 16.647 12.0401 16.5102 11.9718L16.356 11.8947C15.586 11.5097 14.6561 11.6606 14.0474 12.2693L13.5691 12.7475C13.1941 13.1226 12.9833 13.6313 12.9833 14.1618V16.6667" stroke="#728098" stroke-linecap="round" stroke-linejoin="round"/>
<path d="M5.89998 16.6667L2.74239 13.5091C2.62986 13.3965 2.56665 13.2439 2.56665 13.0848V8.75C2.56665 8.05964 3.12629 7.5 3.81665 7.5V7.5C4.50701 7.5 5.06665 8.05964 5.06665 8.75V12.5" stroke="#728098" stroke-linecap="round" stroke-linejoin="round"/>
<path d="M5.89998 13.3333L5.18488 12.6182C5.10918 12.5425 5.06665 12.4399 5.06665 12.3328V12.3328C5.06665 12.1799 5.15303 12.0401 5.28978 11.9718L5.44398 11.8947C6.21396 11.5097 7.1439 11.6606 7.75262 12.2693L8.23086 12.7475C8.60594 13.1226 8.81665 13.6313 8.81665 14.1618V16.6667" stroke="#728098" stroke-linecap="round" stroke-linejoin="round"/>
<path d="M12.2889 9.99992H9.51109V8.05547H7.56665V5.2777H9.51109V3.33325H12.2889V5.2777H14.2333V8.05547H12.2889V9.99992Z" stroke="#728098" stroke-linecap="round" stroke-linejoin="round"/>
</svg>
