<svg width="101" height="100" viewBox="0 0 101 100" fill="none" xmlns="http://www.w3.org/2000/svg">
<path d="M50.5 10C28.41 10 10.5 27.91 10.5 50C10.5 72.09 28.41 90 50.5 90C72.59 90 90.5 72.09 90.5 50C90.5 42.7354 88.5333 35.9438 85.1484 30.0716L47.6549 67.5586C47.0316 68.1819 46.1848 68.5352 45.2982 68.5352C44.4148 68.5352 43.5647 68.1853 42.9414 67.5586L28.0977 52.7148C26.7943 51.4115 26.7943 49.3046 28.0977 48.0013C29.401 46.698 31.5079 46.698 32.8112 48.0013L45.2982 60.4883L81.3008 24.4857C73.9641 15.6357 62.8933 10 50.5 10ZM81.3008 24.4857C82.7396 26.2209 84.0125 28.1002 85.1484 30.0651L92.8568 22.3568C94.1601 21.0501 94.1601 18.9466 92.8568 17.6432C91.5534 16.3399 89.4466 16.3399 88.1432 17.6432L81.3008 24.4857Z" fill="#2EA843"/>
</svg>
