<svg width="213" height="212" viewBox="0 0 213 212" fill="none" xmlns="http://www.w3.org/2000/svg">
<g clip-path="url(#clip0_12_19558)">
<path d="M212.5 162.138H0.5V162.244H212.5V162.138Z" fill="#EBEBEB"/>
<path d="M100.988 143.227H19.1177C18.4764 143.226 17.8617 142.971 17.4085 142.517C16.9554 142.063 16.7009 141.448 16.7009 140.806V25.7198C16.7065 25.0822 16.9635 24.4724 17.416 24.0231C17.8685 23.5738 18.48 23.3211 19.1177 23.32H100.988C101.63 23.32 102.246 23.5751 102.7 24.0291C103.154 24.4831 103.409 25.0989 103.409 25.741V140.806C103.409 141.448 103.154 142.064 102.7 142.518C102.246 142.972 101.63 143.227 100.988 143.227ZM19.1177 23.4048C18.5045 23.4059 17.9167 23.6503 17.4835 24.0844C17.0503 24.5184 16.8069 25.1066 16.8069 25.7198V140.806C16.8069 141.419 17.0503 142.008 17.4835 142.442C17.9167 142.876 18.5045 143.12 19.1177 143.121H100.988C101.602 143.12 102.19 142.876 102.624 142.442C103.058 142.008 103.302 141.42 103.303 140.806V25.7198C103.302 25.1062 103.058 24.518 102.624 24.0841C102.19 23.6502 101.602 23.4059 100.988 23.4048H19.1177Z" fill="#EBEBEB"/>
<path d="M192.703 143.227H110.829C110.187 143.226 109.572 142.971 109.118 142.517C108.665 142.063 108.409 141.448 108.408 140.806V25.7198C108.415 25.0818 108.673 24.472 109.126 24.0228C109.579 23.5736 110.191 23.3211 110.829 23.32H192.703C193.34 23.3222 193.951 23.5754 194.402 24.0246C194.854 24.4738 195.11 25.0829 195.116 25.7198V140.806C195.116 141.447 194.862 142.061 194.41 142.515C193.958 142.969 193.344 143.225 192.703 143.227ZM110.829 23.4048C110.215 23.4059 109.627 23.6502 109.193 24.0841C108.759 24.518 108.515 25.1062 108.514 25.7198V140.806C108.515 141.42 108.759 142.008 109.193 142.442C109.627 142.876 110.215 143.12 110.829 143.121H192.703C193.317 143.12 193.905 142.876 194.339 142.442C194.773 142.008 195.017 141.42 195.018 140.806V25.7198C195.017 25.1062 194.773 24.518 194.339 24.0841C193.905 23.6502 193.317 23.4059 192.703 23.4048H110.829Z" fill="#EBEBEB"/>
<path d="M191.257 168.96H180.233V169.066H191.257V168.96Z" fill="#EBEBEB"/>
<path d="M151.457 170.113H132.364V170.219H151.457V170.113Z" fill="#EBEBEB"/>
<path d="M179.81 165.025H154.035V165.131H179.81V165.025Z" fill="#EBEBEB"/>
<path d="M30.8967 165.737H22.7432V165.843H30.8967V165.737Z" fill="#EBEBEB"/>
<path d="M58.1175 165.737H34.6746V165.843H58.1175V165.737Z" fill="#EBEBEB"/>
<path d="M104.015 167.527H72.4399V167.633H104.015V167.527Z" fill="#EBEBEB"/>
<path d="M161.022 159.967H164.414V97.1936H161.022V159.967Z" fill="#F5F5F5"/>
<path d="M144.745 162.129H163.524V159.963H144.745V162.129Z" fill="#F5F5F5"/>
<path d="M161.026 97.1893H143.846V159.962H161.026V97.1893Z" fill="#F5F5F5"/>
<path d="M159.195 129.88H145.678V141.09H159.195V129.88Z" fill="#F5F5F5"/>
<path d="M159.195 144.55H145.678V155.761H159.195V144.55Z" fill="#F5F5F5"/>
<path d="M150.634 136.252H154.234C154.51 136.252 154.734 136.028 154.734 135.752V135.214C154.734 134.937 154.51 134.713 154.234 134.713H150.634C150.358 134.713 150.134 134.937 150.134 135.214V135.752C150.134 136.028 150.358 136.252 150.634 136.252Z" fill="#F5F5F5"/>
<path d="M150.634 150.923H154.234C154.51 150.923 154.734 150.699 154.734 150.423V149.884C154.734 149.608 154.51 149.384 154.234 149.384H150.634C150.358 149.384 150.134 149.608 150.134 149.884V150.423C150.134 150.699 150.358 150.923 150.634 150.923Z" fill="#F5F5F5"/>
<path d="M159.195 100.653H145.678V111.864H159.195V100.653Z" fill="#F5F5F5"/>
<path d="M159.195 115.205H145.678V126.416H159.195V115.205Z" fill="#F5F5F5"/>
<path d="M150.634 107.026H154.234C154.51 107.026 154.734 106.802 154.734 106.526V105.987C154.734 105.711 154.51 105.487 154.234 105.487H150.634C150.358 105.487 150.134 105.711 150.134 105.987V106.526C150.134 106.802 150.358 107.026 150.634 107.026Z" fill="#F5F5F5"/>
<path d="M150.634 121.582H154.234C154.51 121.582 154.734 121.358 154.734 121.082V120.543C154.734 120.267 154.51 120.043 154.234 120.043H150.634C150.358 120.043 150.134 120.267 150.134 120.543V121.082C150.134 121.358 150.358 121.582 150.634 121.582Z" fill="#F5F5F5"/>
<path d="M179.826 159.967H190.002V97.1936H179.826V159.967Z" fill="#F5F5F5"/>
<path d="M163.537 162.129H188.955V159.963H163.537V162.129Z" fill="#F5F5F5"/>
<path d="M179.826 97.1893H162.646V159.962H179.826V97.1893Z" fill="#F5F5F5"/>
<path d="M177.995 129.88H164.478V141.09H177.995V129.88Z" fill="#F5F5F5"/>
<path d="M177.995 144.55H164.478V155.761H177.995V144.55Z" fill="#F5F5F5"/>
<path d="M169.434 136.252H173.034C173.31 136.252 173.534 136.028 173.534 135.752V135.214C173.534 134.937 173.31 134.713 173.034 134.713H169.434C169.158 134.713 168.934 134.937 168.934 135.214V135.752C168.934 136.028 169.158 136.252 169.434 136.252Z" fill="#F5F5F5"/>
<path d="M169.434 150.923H173.034C173.31 150.923 173.534 150.699 173.534 150.423V149.884C173.534 149.608 173.31 149.384 173.034 149.384H169.434C169.158 149.384 168.934 149.608 168.934 149.884V150.423C168.934 150.699 169.158 150.923 169.434 150.923Z" fill="#F5F5F5"/>
<path d="M177.995 100.653H164.478V111.864H177.995V100.653Z" fill="#F5F5F5"/>
<path d="M177.995 115.205H164.478V126.416H177.995V115.205Z" fill="#F5F5F5"/>
<path d="M169.434 107.026H173.034C173.31 107.026 173.534 106.802 173.534 106.526V105.987C173.534 105.711 173.31 105.487 173.034 105.487H169.434C169.158 105.487 168.934 105.711 168.934 105.987V106.526C168.934 106.802 169.158 107.026 169.434 107.026Z" fill="#F5F5F5"/>
<path d="M169.434 121.582H173.034C173.31 121.582 173.534 121.358 173.534 121.082V120.543C173.534 120.267 173.31 120.043 173.034 120.043H169.434C169.158 120.043 168.934 120.267 168.934 120.543V121.082C168.934 121.358 169.158 121.582 169.434 121.582Z" fill="#F5F5F5"/>
<path d="M124.575 84.0876H181.692V33.9454L124.575 33.9454V84.0876Z" fill="#F5F5F5"/>
<path d="M118.453 31.9951H185.389C185.54 31.9951 185.685 32.0549 185.791 32.1615C185.898 32.268 185.958 32.4125 185.958 32.5632C185.957 32.7132 185.896 32.8566 185.79 32.9622C185.683 33.0679 185.539 33.1271 185.389 33.1271H118.453C118.303 33.126 118.161 33.0663 118.055 32.9607C117.95 32.8552 117.89 32.7124 117.889 32.5632C117.889 32.4133 117.948 32.2694 118.054 32.163C118.159 32.0565 118.303 31.9962 118.453 31.9951Z" fill="#F5F5F5"/>
<path d="M122.154 84.0876L180.564 84.0876V33.9454L122.154 33.9454V84.0876Z" fill="#F5F5F5"/>
<path d="M124.575 84.0876H181.692V85.6946H122.905L124.575 84.0876Z" fill="#F5F5F5"/>
<path d="M118.113 84.0876H176.524L174.853 85.6946H116.443L118.113 84.0876Z" fill="#F5F5F5"/>
<path d="M177.168 80.6956V37.3374H125.546V80.6956H177.168Z" fill="#FAFAFA"/>
<path d="M165.449 80.6957L145.533 37.3374H136.133L156.049 80.6957H165.449Z" fill="white"/>
<path d="M154.03 80.6957L134.115 37.3374H130.448L150.363 80.6957H154.03Z" fill="white"/>
<path d="M125.974 80.6957V37.3374H125.542V80.6957H125.974Z" fill="#F5F5F5"/>
<g opacity="0.4">
<path opacity="0.4" d="M177.126 72.3556H182.964V30.9774H177.126V72.3556Z" fill="#F5F5F5"/>
<path opacity="0.4" d="M174.853 72.3556H179.403V30.9774H174.853V72.3556Z" fill="#F5F5F5"/>
<path opacity="0.4" d="M171.291 72.3556H177.13V30.9774H171.291V72.3556Z" fill="#F5F5F5"/>
<path opacity="0.4" d="M169.015 72.3556H173.564V30.9774H169.015V72.3556Z" fill="#F5F5F5"/>
<path opacity="0.4" d="M165.449 72.3556H171.287V30.9774H165.449V72.3556Z" fill="#F5F5F5"/>
</g>
<g opacity="0.4">
<path opacity="0.4" d="M127.717 72.3556H131.083V30.9774H127.717V72.3556Z" fill="#F5F5F5"/>
<path opacity="0.4" d="M126.407 72.3556H129.027V30.9774H126.407V72.3556Z" fill="#F5F5F5"/>
<path opacity="0.4" d="M124.35 72.3556H127.717V30.9774H124.35V72.3556Z" fill="#F5F5F5"/>
<path opacity="0.4" d="M123.044 72.3556H125.665V30.9774H123.044V72.3556Z" fill="#F5F5F5"/>
<path opacity="0.4" d="M120.984 72.3556H124.35V30.9774H120.984V72.3556Z" fill="#F5F5F5"/>
</g>
<path d="M70.1294 64.3208H78.2108L77.2568 43.8246H70.1294V64.3208Z" fill="#F5F5F5"/>
<path d="M82.7772 65.4275L84.5198 74.5308H82.7772L72.0881 65.4275H82.7772Z" fill="#F5F5F5"/>
<path d="M84.5201 65.4274V74.5307L73.8311 65.4274H84.5201Z" fill="#F5F5F5"/>
<path d="M40.8563 65.4275L42.5989 74.5308H40.8563L30.1672 65.4275H40.8563Z" fill="#F5F5F5"/>
<path d="M42.5989 65.4275V74.5308L31.9099 65.4275H42.5989Z" fill="#F5F5F5"/>
<path d="M92.368 64.3505H80.7419V65.6649H92.368V64.3505Z" fill="#F5F5F5"/>
<path d="M22.9423 65.6649H80.7419V64.3505H22.9423V65.6649Z" fill="#F5F5F5"/>
<path d="M58.2529 64.3208H75.603L77.7484 39.4828H60.3984L58.2529 64.3208Z" fill="#F5F5F5"/>
<path d="M57.3542 64.3208H74.7043L76.8498 39.4828H59.4997L57.3542 64.3208Z" fill="#F5F5F5"/>
<path d="M73.25 61.569L75.2131 42.2303H60.9582L58.9951 61.569H73.25Z" fill="white"/>
<path d="M50.4854 64.3208H56.0525L55.3953 50.2059H50.4854V64.3208Z" fill="#E0E0E0"/>
<path d="M42.3108 64.3208H54.2549L55.7346 47.2166H43.7863L42.3108 64.3208Z" fill="#F5F5F5"/>
<path d="M41.6917 64.3208H53.64L55.1155 47.2166H43.1672L41.6917 64.3208Z" fill="#F5F5F5"/>
<path d="M52.6349 62.4255L53.9833 49.1119H44.1719L42.8193 62.4255H52.6349Z" fill="#E0E0E0"/>
<path d="M111.741 100.251C111.78 100.725 111.678 101.2 111.448 101.616C111.217 102.032 110.868 102.37 110.445 102.588C110.022 102.806 109.544 102.893 109.072 102.839C108.599 102.785 108.153 102.592 107.79 102.284C107.427 101.977 107.164 101.568 107.033 101.111C106.902 100.653 106.91 100.168 107.056 99.7146C107.202 99.2618 107.478 98.8623 107.851 98.5667C108.224 98.2711 108.676 98.0928 109.15 98.0542C109.464 98.0281 109.781 98.0642 110.081 98.1605C110.381 98.2567 110.66 98.4113 110.901 98.6153C111.141 98.8193 111.339 99.0687 111.483 99.3493C111.627 99.6299 111.715 99.9361 111.741 100.251Z" fill="#E0E0E0"/>
<path d="M116.205 101.506C116.245 101.98 116.143 102.455 115.912 102.871C115.682 103.287 115.333 103.625 114.91 103.843C114.487 104.061 114.009 104.148 113.536 104.094C113.064 104.04 112.618 103.847 112.255 103.539C111.892 103.232 111.629 102.823 111.498 102.366C111.367 101.908 111.375 101.423 111.521 100.97C111.666 100.517 111.943 100.117 112.316 99.8218C112.689 99.5262 113.141 99.3479 113.615 99.3093C114.249 99.2577 114.879 99.46 115.364 99.8717C115.85 100.283 116.152 100.871 116.205 101.506Z" fill="#E0E0E0"/>
<path d="M119.432 100.064C119.471 100.538 119.368 101.013 119.137 101.428C118.906 101.844 118.556 102.182 118.133 102.399C117.71 102.616 117.232 102.702 116.76 102.648C116.288 102.593 115.842 102.4 115.48 102.092C115.117 101.784 114.854 101.376 114.724 100.918C114.594 100.461 114.602 99.9753 114.748 99.5227C114.893 99.07 115.17 98.6708 115.543 98.3755C115.915 98.0801 116.367 97.9019 116.841 97.8635C117.476 97.813 118.106 98.0163 118.591 98.4287C119.077 98.8411 119.379 99.4292 119.432 100.064Z" fill="#E0E0E0"/>
<path d="M122.837 100.963C122.874 101.436 122.771 101.909 122.54 102.323C122.309 102.738 121.96 103.074 121.538 103.29C121.116 103.506 120.639 103.592 120.168 103.538C119.697 103.483 119.252 103.29 118.891 102.983C118.529 102.676 118.267 102.269 118.137 101.812C118.006 101.356 118.014 100.872 118.159 100.42C118.304 99.9686 118.58 99.5701 118.951 99.275C119.323 98.9799 119.773 98.8015 120.246 98.7623C120.561 98.7362 120.877 98.7725 121.178 98.869C121.479 98.9655 121.757 99.1205 121.998 99.3249C122.239 99.5293 122.437 99.7792 122.58 100.06C122.724 100.341 122.811 100.648 122.837 100.963Z" fill="#E0E0E0"/>
<path d="M125.894 101.336C125.894 101.336 125.614 108.01 114.895 108.01C104.176 108.01 103.871 101.336 103.871 101.336H125.894Z" fill="#F5F5F5"/>
<path d="M25.8891 162.138H29.7856L29.7856 108.022H25.8891L25.8891 162.138Z" fill="#F5F5F5"/>
<path d="M24.8502 162.138H27.144L27.144 108.022H24.8502L24.8502 162.138Z" fill="#F5F5F5"/>
<path d="M79.453 108.023H24.1379V112.08H79.453V108.023Z" fill="#F5F5F5"/>
<path d="M131.838 162.138H135.735V108.022H131.838V162.138Z" fill="#F5F5F5"/>
<path d="M131.109 162.138H133.403V108.022H131.109V162.138Z" fill="#F5F5F5"/>
<path d="M136.43 108.023H81.1152V112.08H136.43V108.023Z" fill="#F5F5F5"/>
<path d="M79.7795 162.138H83.676V108.022H79.7795V162.138Z" fill="#F5F5F5"/>
<path d="M78.7408 162.138H81.0347V108.022H78.7408V162.138Z" fill="#F5F5F5"/>
<path d="M92.5673 90.0237H63.6886L58.5413 107.077H87.4241L92.5673 90.0237Z" fill="#F5F5F5"/>
<path d="M87.4244 107.077L87.3099 108.022H58.427L58.5415 107.077H87.4244Z" fill="#F5F5F5"/>
<path d="M91.6813 90.0237H62.7984L57.6553 107.077H86.5339L91.6813 90.0237Z" fill="#F5F5F5"/>
<path d="M85.9698 106.301L90.6423 90.8039H63.3664L58.6897 106.301H85.9698Z" fill="white"/>
<path d="M79.0121 107.077L78.8934 108.022H47.0891L47.2036 107.077H79.0121Z" fill="#F5F5F5"/>
<path d="M106.5 181.285C151.903 181.285 188.709 179.137 188.709 176.486C188.709 173.835 151.903 171.686 106.5 171.686C61.0971 171.686 24.2908 173.835 24.2908 176.486C24.2908 179.137 61.0971 181.285 106.5 181.285Z" fill="#F5F5F5"/>
<path d="M160.581 46.2796H111.783C110.109 46.3071 108.506 46.9575 107.286 48.1037C106.066 49.2499 105.317 50.8097 105.186 52.4785L97.5959 169.316C97.5341 170.111 97.6385 170.911 97.9026 171.664C98.1667 172.417 98.5846 173.107 99.1298 173.69C99.675 174.272 100.335 174.735 101.069 175.049C101.803 175.362 102.594 175.519 103.392 175.511H152.207C153.88 175.484 155.484 174.835 156.704 173.689C157.924 172.544 158.673 170.984 158.805 169.316L164.249 85.3385C164.48 85.2578 164.683 85.112 164.833 84.9187C164.984 84.7254 165.075 84.4928 165.097 84.2488L166.072 69.2222C166.089 68.9888 166.029 68.7561 165.902 68.5595C165.775 68.3629 165.588 68.213 165.368 68.1326L166.381 52.4785C166.443 51.6824 166.339 50.8821 166.074 50.1286C165.81 49.3751 165.392 48.6848 164.846 48.1018C164.301 47.5187 163.64 47.0556 162.905 46.7419C162.171 46.4281 161.38 46.2707 160.581 46.2796Z" fill="#2E86C6"/>
<path d="M101.234 76.532H102.192C102.489 76.5267 102.772 76.4113 102.989 76.2084C103.205 76.0055 103.338 75.7294 103.362 75.4338L103.786 69.1586C103.797 69.0175 103.778 68.8756 103.731 68.7421C103.684 68.6086 103.609 68.4864 103.512 68.3831C103.416 68.2798 103.298 68.1979 103.168 68.1423C103.038 68.0868 102.897 68.0589 102.756 68.0605H101.802C101.505 68.0649 101.221 68.1799 101.004 68.383C100.788 68.5861 100.655 68.8627 100.632 69.1586L100.208 75.4338C100.197 75.5747 100.216 75.7161 100.263 75.8494C100.31 75.9826 100.384 76.1046 100.48 76.2078C100.576 76.311 100.693 76.3931 100.823 76.4489C100.953 76.5047 101.093 76.533 101.234 76.532Z" fill="#2E86C6"/>
<path d="M100.509 87.7341H101.463C101.76 87.7288 102.045 87.613 102.262 87.4093C102.479 87.2055 102.613 86.9284 102.637 86.6317L103.061 80.3607C103.072 80.2195 103.053 80.0777 103.006 79.9442C102.959 79.8107 102.884 79.6884 102.787 79.5852C102.691 79.4819 102.573 79.3999 102.443 79.3444C102.313 79.2889 102.172 79.261 102.031 79.2626H101.077C100.78 79.2669 100.495 79.3817 100.277 79.5848C100.06 79.7878 99.9266 80.0644 99.9024 80.3607L99.4784 86.6317C99.4665 86.7734 99.4845 86.9159 99.5311 87.0502C99.5777 87.1845 99.6519 87.3076 99.749 87.4115C99.8461 87.5153 99.9638 87.5977 100.095 87.6533C100.226 87.7088 100.367 87.7364 100.509 87.7341Z" fill="#2E86C6"/>
<path d="M149.612 175.511H100.814C100.016 175.52 99.2252 175.362 98.4914 175.049C97.7576 174.735 97.0971 174.272 96.5519 173.69C96.0067 173.107 95.5888 172.417 95.3247 171.664C95.0606 170.911 94.9562 170.112 95.018 169.316L102.591 52.4785C102.723 50.8094 103.473 49.2496 104.694 48.1035C105.914 46.9573 107.518 46.3071 109.192 46.2797H157.986C158.784 46.2714 159.575 46.4293 160.309 46.7432C161.043 47.0572 161.704 47.5204 162.249 48.1034C162.794 48.6864 163.212 49.3765 163.476 50.1297C163.74 50.8829 163.844 51.6828 163.782 52.4785L156.21 169.316C156.078 170.984 155.329 172.544 154.109 173.689C152.889 174.835 151.286 175.484 149.612 175.511Z" fill="#263238"/>
<path opacity="0.2" d="M128.53 170.542C130.239 168.888 130.368 166.248 128.818 164.646C127.267 163.044 124.624 163.087 122.915 164.742C121.206 166.397 121.077 169.037 122.627 170.638C124.178 172.24 126.821 172.197 128.53 170.542Z" fill="white"/>
<path d="M154.022 160.344H98.5501C98.3612 160.344 98.1743 160.305 98.001 160.23C97.8277 160.155 97.6717 160.045 97.5426 159.907C97.4134 159.769 97.3139 159.606 97.2502 159.428C97.1865 159.25 97.1599 159.061 97.1721 158.873L103.664 58.6731C103.692 58.3271 103.85 58.0043 104.105 57.7688C104.36 57.5333 104.694 57.4021 105.042 57.4011H160.518C160.707 57.4013 160.893 57.4402 161.067 57.5154C161.24 57.5907 161.396 57.7006 161.525 57.8385C161.654 57.9763 161.754 58.1392 161.818 58.3171C161.881 58.4949 161.908 58.6839 161.896 58.8724L155.4 159.051C155.377 159.401 155.222 159.73 154.967 159.97C154.711 160.21 154.373 160.344 154.022 160.344Z" fill="white"/>
<path opacity="0.2" d="M138.544 120.851C144.749 114.844 145.216 105.261 139.588 99.4464C133.959 93.6317 124.365 93.7875 118.16 99.7942C111.955 105.801 111.488 115.384 117.117 121.199C122.746 127.013 132.339 126.858 138.544 120.851Z" fill="#2E86C6"/>
<path opacity="0.2" d="M126.852 133.67C113.975 133.67 104.177 123.193 105.012 110.316C105.847 97.4394 116.998 86.9624 129.879 86.9624C142.761 86.9624 152.555 97.4394 151.72 110.316C150.884 123.193 139.716 133.67 126.852 133.67ZM129.82 87.3864C117.176 87.3864 106.224 97.6726 105.406 110.316C104.588 122.96 114.204 133.246 126.848 133.246C139.491 133.246 150.443 122.96 151.266 110.316C152.089 97.6726 142.481 87.3864 129.82 87.3864Z" fill="#2E86C6"/>
<path d="M124.732 117.656L123.46 115.201C120.704 109.854 114.357 105.076 112.139 103.685L114.234 100.552C116.858 102.197 122.103 106.271 125.393 111.113C131.478 103.905 140.077 96.4812 151.588 88.4718L153.551 91.4398C141.255 99.9961 132.406 107.819 126.521 115.358L124.732 117.656Z" fill="#2E86C6"/>
<path opacity="0.2" d="M124.131 52.9494C124.822 52.28 124.873 51.2108 124.244 50.5614C123.616 49.912 122.545 49.9282 121.854 50.5976C121.162 51.267 121.111 52.3361 121.74 52.9855C122.369 53.635 123.439 53.6188 124.131 52.9494Z" fill="white"/>
<path opacity="0.2" d="M128.934 50.0829H142.964C143.182 50.0803 143.398 50.1234 143.599 50.2093C143.799 50.2953 143.979 50.4221 144.128 50.5818C144.276 50.7415 144.39 50.9305 144.461 51.1367C144.532 51.3428 144.559 51.5616 144.541 51.7789C144.506 52.2346 144.303 52.661 143.97 52.9747C143.638 53.2883 143.2 53.4667 142.743 53.4749H128.717C128.499 53.4767 128.283 53.4332 128.083 53.3471C127.883 53.261 127.702 53.1342 127.554 52.9747C127.405 52.8152 127.291 52.6265 127.219 52.4207C127.147 52.2148 127.119 51.9963 127.136 51.7789C127.171 51.3231 127.374 50.8967 127.707 50.5831C128.039 50.2694 128.477 50.091 128.934 50.0829Z" fill="white"/>
<path d="M76.7097 81.408C75.9931 82.1415 75.2257 82.9514 74.5176 83.757C73.8095 84.5626 73.1015 85.3894 72.4358 86.2374C71.7701 87.0854 71.1638 87.9334 70.5363 88.828L70.1123 89.4937L69.6883 90.1678C69.5483 90.3926 69.4211 90.6215 69.2982 90.8547L68.959 91.478C68.8207 91.8344 68.7419 92.2112 68.7258 92.5931C68.6918 93.0844 68.6918 93.5774 68.7258 94.0686C68.8089 95.1286 68.9505 96.1831 69.1498 97.2274C69.3363 98.2959 69.5738 99.3686 69.8239 100.437C70.0741 101.506 70.3497 102.587 70.6295 103.638L69.0607 104.228C68.0967 102.154 67.2889 100.011 66.6439 97.8168C66.3164 96.686 66.0657 95.5343 65.8935 94.3697C65.8077 93.7486 65.7638 93.1225 65.762 92.4956C65.7521 91.757 65.8771 91.0227 66.1309 90.329C66.2284 90.0915 66.2793 89.9982 66.3471 89.8541L66.5422 89.4513C66.6694 89.1842 66.8008 88.917 66.9662 88.6584L67.3902 87.8782L67.8396 87.1193C68.4385 86.1195 69.091 85.1527 69.7943 84.2234C70.4896 83.2948 71.2104 82.3917 71.9694 81.5182C72.7283 80.6448 73.4958 79.8222 74.3777 78.9742L76.7097 81.408Z" fill="#B55B52"/>
<path d="M76.8921 76.32C74.594 76.4218 72.4104 80.2378 72.4104 80.2378L75.4462 86.4324C75.4462 86.4324 79.559 83.0065 79.6099 79.6484C79.6438 77.4479 79.152 76.214 76.8921 76.32Z" fill="#2E86C6"/>
<path opacity="0.7" d="M76.8921 76.32C74.594 76.4218 72.4104 80.2378 72.4104 80.2378L75.4462 86.4324C75.4462 86.4324 79.559 83.0065 79.6099 79.6484C79.6438 77.4479 79.152 76.214 76.8921 76.32Z" fill="white"/>
<path opacity="0.2" d="M77.4389 80.772C76.769 81.7854 76.4467 84.4142 76.345 85.5844C77.3566 84.6006 78.2142 83.47 78.889 82.2306C78.4353 81.0985 77.8798 80.1064 77.4389 80.772Z" fill="black"/>
<path d="M70.176 102.994L72.9701 103.842L71.1088 105.724C71.1088 105.724 69.0948 105.101 68.8149 103.732L70.176 102.994Z" fill="#B55B52"/>
<path d="M74.6618 105.975L74.1911 107.777L71.1086 105.708L72.97 103.825L74.6618 105.975Z" fill="#B55B52"/>
<path d="M93.0464 68.9637C92.9574 69.2139 93.021 69.4683 93.1863 69.5276C93.3517 69.587 93.5552 69.4386 93.64 69.1884C93.7248 68.9383 93.6654 68.6796 93.5001 68.6203C93.3347 68.5609 93.1355 68.7093 93.0464 68.9637Z" fill="#263238"/>
<path d="M93.4238 68.6075L94.0895 68.6626C94.0895 68.6626 93.6146 69.0145 93.4238 68.6075Z" fill="#263238"/>
<path d="M93.1737 69.2859C93.1987 69.9455 93.3128 70.5987 93.5129 71.2278C93.351 71.2702 93.1819 71.2769 93.0172 71.2476C92.8526 71.2184 92.6962 71.1537 92.5588 71.0582L93.1737 69.2859Z" fill="#A02724"/>
<path d="M93.869 67.9842C93.8388 67.98 93.8105 67.9669 93.7879 67.9465C93.7652 67.9261 93.7492 67.8994 93.7418 67.8697C93.6953 67.6781 93.6059 67.4995 93.4803 67.3474C93.3547 67.1954 93.1962 67.0739 93.0168 66.9921C92.9782 66.9777 92.9468 66.9488 92.9293 66.9115C92.9119 66.8742 92.9098 66.8316 92.9235 66.7928C92.9301 66.7733 92.9406 66.7554 92.9543 66.7401C92.968 66.7248 92.9847 66.7124 93.0033 66.7037C93.0219 66.695 93.0421 66.6902 93.0626 66.6894C93.0831 66.6887 93.1036 66.6921 93.1228 66.6995C93.3536 66.7998 93.5575 66.953 93.7181 67.1467C93.8787 67.3404 93.9914 67.5692 94.0471 67.8146C94.0522 67.8347 94.0532 67.8555 94.0502 67.876C94.0472 67.8964 94.0402 67.9161 94.0295 67.9338C94.0189 67.9516 94.0049 67.967 93.9882 67.9793C93.9716 67.9916 93.9527 68.0005 93.9326 68.0054L93.869 67.9842Z" fill="#263238"/>
<path d="M84.3374 70.0278C84.3967 72.0334 84.1932 75.6416 82.6414 76.6634C82.6414 76.6634 82.8491 78.7241 86.4574 79.4237C90.4218 80.1911 88.6749 77.8337 88.6749 77.8337C86.5973 76.9009 86.9153 75.3151 87.5386 73.8905L84.3374 70.0278Z" fill="#B55B52"/>
<path d="M96.1203 83.7527C96.4764 84.7237 96.8835 85.7752 97.3159 86.7716C97.7484 87.768 98.1639 88.7771 98.6685 89.7396C99.1731 90.7021 99.6649 91.6688 100.199 92.6059C100.475 93.068 100.75 93.5302 101.047 93.9711C101.191 94.2001 101.34 94.4206 101.497 94.6283L101.726 94.9506L101.84 95.1159L101.899 95.1965L101.938 95.2389C102.213 95.5526 102.53 95.8278 102.879 96.0572C103.299 96.3442 103.735 96.6075 104.185 96.8459C105.113 97.3462 106.11 97.7998 107.123 98.2281C108.136 98.6563 109.171 99.0761 110.218 99.445C111.266 99.8138 112.338 100.204 113.369 100.564L112.974 102.197C110.702 101.817 108.457 101.289 106.254 100.615C105.126 100.271 104.019 99.8621 102.938 99.3898C102.372 99.1383 101.819 98.8552 101.285 98.5419C100.664 98.1881 100.102 97.7404 99.6183 97.2147L99.5165 97.1002L99.4444 97.0112L99.3045 96.8374L99.0247 96.4812C98.8339 96.248 98.6515 96.0106 98.4819 95.7689C98.1215 95.2898 97.7908 94.7979 97.4643 94.3019C96.821 93.3178 96.2281 92.3017 95.6878 91.2575C95.1493 90.2187 94.6405 89.1715 94.1741 88.103C93.7077 87.0345 93.2879 85.983 92.9021 84.8127L96.1203 83.7527Z" fill="#B55B52"/>
<path d="M112.809 100.556L115.311 99.5892L115.188 102.477C115.188 102.477 113.161 103.015 112.22 101.993L112.809 100.556Z" fill="#B55B52"/>
<path d="M117.197 100.581L118.054 102.426L115.188 102.477L115.31 99.5892L117.197 100.581Z" fill="#B55B52"/>
<path d="M75.709 172.945L79.0204 173.191L80.0041 165.589L76.6927 165.343L75.709 172.945Z" fill="#B55B52"/>
<path d="M49.4805 155.748L51.6429 158.317L58.0622 154.192L55.8998 151.622L49.4805 155.748Z" fill="#B55B52"/>
<path d="M52.6519 157.987L50.9093 154.637C50.8815 154.579 50.8334 154.533 50.774 154.508C50.7146 154.483 50.648 154.481 50.587 154.501L47.8183 155.46C47.7488 155.488 47.6861 155.53 47.6341 155.584C47.5822 155.638 47.5423 155.702 47.5171 155.773C47.4919 155.843 47.4818 155.918 47.4877 155.993C47.4936 156.068 47.5152 156.14 47.5512 156.206C48.1787 157.363 48.5391 157.902 49.3023 159.365C49.7772 160.268 50.375 161.642 51.0238 162.892C51.6725 164.143 52.9106 163.588 52.7494 163.007C52.0202 160.416 52.5035 159.7 52.7494 158.576C52.7844 158.374 52.75 158.166 52.6519 157.987Z" fill="#263238"/>
<path d="M79.2281 172.721H75.5054C75.4413 172.72 75.3791 172.742 75.3301 172.783C75.281 172.825 75.2484 172.882 75.2383 172.945L74.738 175.888C74.7276 175.961 74.7332 176.036 74.7543 176.107C74.7753 176.178 74.8114 176.244 74.86 176.3C74.9087 176.356 74.9688 176.4 75.0362 176.431C75.1037 176.462 75.1769 176.477 75.251 176.477C76.5527 176.456 77.176 176.38 78.8126 176.38C79.8217 176.38 81.8993 176.486 83.29 176.486C84.6807 176.486 84.791 175.112 84.2143 174.985C81.6322 174.429 80.6315 173.658 79.7751 172.924C79.624 172.791 79.4292 172.719 79.2281 172.721Z" fill="#263238"/>
<path opacity="0.2" d="M80.0041 165.589L79.4572 169.816L76.1584 169.486L76.6927 165.347L80.0041 165.589Z" fill="black"/>
<path opacity="0.2" d="M55.8997 151.622L58.0621 154.192L55.4036 155.901L53.1606 153.382L55.8997 151.622Z" fill="black"/>
<path d="M75.9719 96.4812L89.2516 99.0549C95.5268 80.5812 94.0258 79.9749 94.0258 79.9749C93.0503 79.4477 92.0435 78.9805 91.0112 78.5757L90.8289 78.5078C89.9809 78.1983 89.8028 78.1517 88.6665 77.8209C86.7076 77.3588 84.8886 76.9729 82.6372 76.6549L82.2132 76.5956C81.7892 76.5447 81.3991 76.5023 81.009 76.4641C80.7462 76.4345 80.4833 76.4175 80.2331 76.4005L79.3851 76.3539C77.935 76.2818 76.8962 76.303 76.8962 76.303C77.6255 87.8401 77.0701 91.16 75.9719 96.4812Z" fill="#2E86C6"/>
<path opacity="0.7" d="M75.9719 96.4812L89.2516 99.0549C95.5268 80.5812 94.0258 79.9749 94.0258 79.9749C93.0503 79.4477 92.0435 78.9805 91.0112 78.5757L90.8289 78.5078C89.9809 78.1983 89.8028 78.1517 88.6665 77.8209C86.7076 77.3588 84.8886 76.9729 82.6372 76.6549L82.2132 76.5956C81.7892 76.5447 81.3991 76.5023 81.009 76.4641C80.7462 76.4345 80.4833 76.4175 80.2331 76.4005L79.3851 76.3539C77.935 76.2818 76.8962 76.303 76.8962 76.303C77.6255 87.8401 77.0701 91.16 75.9719 96.4812Z" fill="white"/>
<path opacity="0.2" d="M92.1179 84.287L90.918 84.0919C90.918 85.6734 91.52 88.387 92.1052 90.1127C92.6012 88.4167 92.9871 87.0218 93.2796 85.8473L92.1179 84.287Z" fill="black"/>
<path d="M93.5637 79.7502C95.5268 80.3778 96.9557 84.2616 97.4899 85.9364L93.6739 90.4181C93.6739 90.4181 89.7646 84.8001 90.3879 83.0574C90.9984 81.2427 92.6139 79.4407 93.5637 79.7502Z" fill="#2E86C6"/>
<path opacity="0.7" d="M93.5637 79.7502C95.5268 80.3778 96.9557 84.2616 97.4899 85.9364L93.6739 90.4181C93.6739 90.4181 89.7646 84.8001 90.3879 83.0574C90.9984 81.2427 92.6139 79.4407 93.5637 79.7502Z" fill="white"/>
<path d="M94.8357 65.4105C94.4414 66.568 92.7157 67.0302 90.9985 66.4493C89.2813 65.8684 88.1959 64.448 88.5902 63.2905C88.9845 62.133 90.7102 61.6708 92.4062 62.256C94.1022 62.8411 95.2258 64.253 94.8357 65.4105Z" fill="#263238"/>
<path d="M84.876 65.0925C83.9941 68.2471 83.5531 69.5615 84.5622 71.7323C86.0802 75.0014 90.1421 75.5144 91.9483 72.7118C93.5722 70.1932 94.7425 65.4571 92.1476 63.087C91.6 62.5577 90.9238 62.1804 90.1858 61.9923C89.4478 61.8042 88.6735 61.8117 87.9394 62.0142C87.2052 62.2167 86.5365 62.6071 85.9993 63.1469C85.4621 63.6868 85.0749 64.3573 84.876 65.0925Z" fill="#B55B52"/>
<path d="M89.8026 61.408C88.5306 62.1372 85.8298 57.5708 82.4759 61.408C80.0761 64.1597 81.6067 68.192 81.6067 68.192C81.6067 68.192 79.6945 64.8296 78.1681 66.4705C76.1753 68.5905 78.2359 76.1759 84.8079 75.6543C91.3799 75.1328 90.7439 69.7989 90.7439 69.7989C90.7439 69.7989 93.8222 66.6698 93.6695 63.8629C93.555 61.7599 91.9226 60.208 89.8026 61.408Z" fill="#263238"/>
<path d="M90.5999 67.8019C90.4359 68.3889 90.4567 69.0121 90.6593 69.5869C90.9306 70.3967 91.5539 70.401 91.8846 69.8413C92.2153 69.2816 92.3976 68.3107 91.927 67.6577C91.4564 67.0047 90.8119 67.1531 90.5999 67.8019Z" fill="#B55B52"/>
<path d="M85.7238 98.3681C85.7238 98.3681 84.3076 103.278 82.4887 109.757C81.2803 114.073 79.8895 119.085 78.6218 123.804C77.8967 126.505 77.2141 129.108 76.6247 131.436C73.2921 144.601 56.6713 155.918 56.6713 155.918L53.4531 152.377C53.4531 152.377 64.6213 142.973 67.8691 130.69C74.4284 105.754 70.7396 101.548 75.9675 96.4813L85.7238 98.3681Z" fill="#263238"/>
<path opacity="0.2" d="M84.2909 102.769C83.7991 104.673 83.18 107.077 82.4974 109.765C81.289 114.081 79.8983 119.093 78.6305 123.812C78.0878 117.791 77.7825 106.721 82.2133 103.278C83.0868 102.608 83.7779 102.468 84.2909 102.769Z" fill="black"/>
<path d="M56.947 156.426L52.9275 152.004L54.1444 150.783L59.0755 155.43L56.947 156.426Z" fill="#2E86C6"/>
<path opacity="0.7" d="M56.947 156.426L52.9275 152.004L54.1444 150.783L59.0755 155.43L56.947 156.426Z" fill="white"/>
<path d="M53.2581 159.784C53.2177 159.784 53.1776 159.776 53.1394 159.763C52.7451 159.619 52.4949 158.864 52.3804 158.428C52.3767 158.413 52.3776 158.397 52.3829 158.383C52.3882 158.368 52.3977 158.356 52.4101 158.347C52.4224 158.338 52.4373 158.333 52.4525 158.333C52.4678 158.333 52.4826 158.338 52.4949 158.347C52.6136 158.415 53.6567 159.025 53.6779 159.454C53.6814 159.5 53.6722 159.547 53.6513 159.589C53.6304 159.631 53.5985 159.666 53.5591 159.691C53.4725 159.756 53.3662 159.789 53.2581 159.784ZM52.584 158.576C52.7578 159.148 52.9783 159.534 53.1945 159.611C53.2407 159.625 53.2898 159.627 53.3372 159.618C53.3847 159.608 53.4289 159.587 53.4659 159.555C53.521 159.517 53.5252 159.479 53.521 159.454C53.4998 159.233 52.9952 158.835 52.584 158.576Z" fill="#2E86C6"/>
<path d="M89.0394 99.055C89.0394 99.055 89.8874 125.267 88.0133 135.142C86.0884 145.432 80.2117 168.752 80.2117 168.752L75.4375 168.137C75.4375 168.137 78.4564 144.537 79.7411 134.336C81.1361 123.21 79.3171 97.1555 79.3171 97.1555L89.0394 99.055Z" fill="#263238"/>
<path d="M81.2381 169.045L74.4329 168.167L74.5134 166.547L81.9207 166.869L81.2381 169.045Z" fill="#2E86C6"/>
<path opacity="0.7" d="M81.2381 169.045L74.4329 168.167L74.5134 166.547L81.9207 166.869L81.2381 169.045Z" fill="white"/>
<path d="M53.4193 158.758C53.067 158.741 52.7233 158.644 52.4144 158.474C52.4028 158.467 52.3932 158.457 52.3866 158.445C52.3799 158.433 52.3763 158.42 52.3762 158.406C52.3781 158.393 52.3828 158.38 52.3901 158.368C52.3975 158.356 52.4072 158.346 52.4186 158.339C52.4568 158.339 53.2666 157.893 53.733 158.067C53.7915 158.088 53.8446 158.122 53.8885 158.166C53.9325 158.21 53.9663 158.263 53.9874 158.322C54.0153 158.378 54.0233 158.442 54.0103 158.504C53.9972 158.565 53.9637 158.621 53.9153 158.661C53.7647 158.746 53.5908 158.78 53.4193 158.758ZM52.6264 158.415C52.9953 158.585 53.6397 158.678 53.8178 158.538C53.8475 158.512 53.8772 158.474 53.8178 158.377C53.8053 158.339 53.7843 158.305 53.7563 158.277C53.7283 158.249 53.6942 158.228 53.6567 158.216C53.301 158.176 52.9416 158.245 52.6264 158.415Z" fill="#2E86C6"/>
<path d="M80.4578 173.297C80.1086 173.29 79.7609 173.25 79.419 173.179C79.4028 173.177 79.3876 173.169 79.3761 173.158C79.3645 173.146 79.3572 173.131 79.3554 173.115C79.3529 173.099 79.3556 173.082 79.3633 173.068C79.3709 173.053 79.383 173.042 79.3978 173.034C79.5504 172.954 80.8903 172.28 81.2888 172.504C81.3269 172.525 81.3587 172.556 81.381 172.593C81.4034 172.631 81.4154 172.673 81.416 172.716C81.4243 172.787 81.4146 172.859 81.388 172.925C81.3613 172.991 81.3184 173.049 81.2634 173.094C81.0252 173.25 80.7415 173.322 80.4578 173.297ZM79.6819 173.068C80.4112 173.191 80.9539 173.157 81.1616 172.979C81.1973 172.948 81.2248 172.908 81.2418 172.864C81.2588 172.82 81.2648 172.772 81.2592 172.725C81.2604 172.708 81.2566 172.691 81.2484 172.676C81.2401 172.661 81.2276 172.648 81.2125 172.64C80.9963 172.521 80.2331 172.805 79.6819 173.068Z" fill="#2E86C6"/>
<path d="M79.436 173.183C79.4208 173.187 79.4047 173.187 79.3894 173.183C79.378 173.175 79.3688 173.164 79.3629 173.151C79.3569 173.139 79.3544 173.125 79.3555 173.111C79.3555 173.051 79.5208 171.618 80.3222 171.703C80.5342 171.724 80.5978 171.83 80.6105 171.919C80.6699 172.292 79.8685 173.013 79.4657 173.191L79.436 173.183ZM80.2586 171.839C79.7837 171.839 79.5929 172.623 79.5335 172.962C79.9575 172.716 80.4918 172.153 80.4579 171.928C80.4579 171.928 80.4579 171.856 80.3052 171.843L80.2586 171.839Z" fill="#2E86C6"/>
<path d="M75.8871 95.6714L75.0942 96.7356C75.0349 96.8204 75.1282 96.9349 75.2808 96.9646L89.2092 99.6612C89.3279 99.6612 89.4381 99.6612 89.4551 99.5722L89.7731 98.4104C89.7731 98.3341 89.701 98.2408 89.5696 98.2154L76.1203 95.612C76.0796 95.6011 76.0368 95.6008 75.996 95.6112C75.9551 95.6216 75.9177 95.6423 75.8871 95.6714Z" fill="#2E86C6"/>
<path d="M77.4475 97.5201L77.0871 97.448C77.015 97.448 76.9684 97.3886 76.9811 97.3462L77.4051 95.841C77.4051 95.7986 77.4899 95.7732 77.5577 95.7859L77.9181 95.858C77.9902 95.858 78.0411 95.9173 78.0284 95.9597L77.6044 97.4649C77.5874 97.52 77.5196 97.5201 77.4475 97.5201Z" fill="#263238"/>
<path d="M86.5422 99.2966L86.1818 99.2288C86.1097 99.2288 86.0631 99.1652 86.0758 99.1228L86.4998 97.6218C86.4998 97.5752 86.5804 97.5497 86.6525 97.5667L87.0129 97.6345C87.0807 97.6345 87.1316 97.6981 87.1189 97.7405L86.6949 99.2415C86.6821 99.2881 86.6143 99.3136 86.5422 99.2966Z" fill="#263238"/>
</g>
<defs>
<clipPath id="clip0_12_19558">
<rect width="212" height="212" fill="white" transform="translate(0.5)"/>
</clipPath>
</defs>
</svg>
