<svg width="14" height="13" viewBox="0 0 14 13" fill="none" xmlns="http://www.w3.org/2000/svg">
<g clip-path="url(#clip0_2268_8636)">
<path d="M12.7893 4.35901C13.2767 4.83174 13.5204 5.45136 13.5204 6.07079C13.5204 6.69021 13.2767 7.30984 12.7893 7.78256L10.8831 9.63138L8.59745 8.42466L7.35327 6.20783L9.25947 4.35901C10.2343 3.41353 11.8145 3.41353 12.7893 4.35901Z" fill="url(#paint0_linear_2268_8636)"/>
<path d="M12.7893 4.35906C13.2767 4.83179 13.5204 5.45141 13.5204 6.07083C13.5204 6.69026 13.2767 7.30988 12.7893 7.78261L10.8831 9.63142L8.59744 8.4247L8.21838 7.74921L12.168 3.91846C12.3974 4.03327 12.6069 4.1819 12.7893 4.35906Z" fill="url(#paint1_linear_2268_8636)"/>
<path d="M12.2651 8.2915L10.883 9.63136L8.59756 8.42479L7.35352 6.20813L8.73499 4.86768L12.2651 8.2915Z" fill="url(#paint2_linear_2268_8636)"/>
<path d="M7.35327 6.20801L10.8831 9.63156L8.97688 11.4804C8.00205 12.4259 6.4219 12.4259 5.44707 11.4804C4.95967 11.0076 4.71594 10.388 4.71594 9.7686C4.71594 9.14917 4.95964 8.52955 5.44707 8.05682L7.35327 6.20801Z" fill="url(#paint3_linear_2268_8636)"/>
<path d="M7.35327 6.20801L10.8831 9.63156L8.97688 11.4804C8.00205 12.4259 6.4219 12.4259 5.44707 11.4804C4.95967 11.0076 4.71594 10.388 4.71594 9.7686C4.71594 9.14917 4.95964 8.52955 5.44707 8.05682L7.35327 6.20801Z" fill="url(#paint4_linear_2268_8636)"/>
<path d="M5.34802 8.15872L8.87182 11.5764C8.90777 11.5454 8.9428 11.5134 8.97688 11.4804L10.8831 9.63156L7.35327 6.20801L5.44707 8.05682C5.41306 8.08987 5.38003 8.12385 5.34802 8.15872Z" fill="url(#paint5_linear_2268_8636)"/>
<path d="M8.58044 7.39795L10.8831 9.63129L8.97691 11.4801C8.00208 12.4256 6.42193 12.4256 5.4471 11.4801C5.26443 11.3033 5.11117 11.1 4.9928 10.8776L8.58044 7.39795Z" fill="url(#paint6_linear_2268_8636)"/>
<path d="M9.25947 4.35901L7.89282 5.68452L11.4226 9.10807L12.7893 7.78256C13.2767 7.30984 13.5204 6.69021 13.5204 6.07079C13.5204 5.45136 13.2767 4.83174 12.7893 4.35901C11.8144 3.41353 10.2343 3.41353 9.25947 4.35901Z" fill="url(#paint7_linear_2268_8636)"/>
<path d="M8.65696 8.21133C8.16955 8.68406 7.5307 8.92042 6.89205 8.92042C6.2534 8.92042 5.61455 8.68406 5.12715 8.21133L3.22095 6.36251L4.46512 4.14569L6.75076 2.93896L8.65696 4.78778C9.63178 5.73326 9.63178 7.26585 8.65696 8.21133Z" fill="url(#paint8_linear_2268_8636)"/>
<path d="M8.65696 8.21112C8.16955 8.68385 7.5307 8.92022 6.89205 8.92022C6.2534 8.92022 5.61455 8.68385 5.12715 8.21112L3.22095 6.36231L4.46512 4.14548L5.16158 3.77783L9.11123 7.60858C8.99287 7.83102 8.83961 8.03428 8.65696 8.21112Z" fill="url(#paint9_linear_2268_8636)"/>
<path d="M6.75075 2.93877L3.22094 6.36232L1.31474 4.5135C0.339911 3.56802 0.339911 2.03544 1.31474 1.08995C1.80214 0.617224 2.44099 0.380835 3.07964 0.380859C3.7183 0.380859 4.35715 0.617224 4.84455 1.08998L6.75075 2.93877Z" fill="url(#paint10_linear_2268_8636)"/>
<path d="M5.5236 4.12906L3.22094 6.3624L1.31474 4.51359C0.339911 3.56811 0.339911 2.03552 1.31474 1.09004C1.49706 0.912867 1.70664 0.764222 1.93598 0.649414L5.5236 4.12906Z" fill="url(#paint11_linear_2268_8636)"/>
<path d="M8.65695 4.78742L7.29031 3.46191L3.7605 6.88546L5.12714 8.21097C5.61454 8.6837 6.2534 8.92009 6.89205 8.92006C7.5307 8.92006 8.16955 8.6837 8.65695 8.21097C9.63178 7.26549 9.63178 5.7329 8.65695 4.78742Z" fill="url(#paint12_linear_2268_8636)"/>
<path d="M8.65695 4.78742L7.29031 3.46191L3.7605 6.88546L5.12714 8.21097C5.61454 8.6837 6.2534 8.92009 6.89205 8.92006C7.5307 8.92006 8.16955 8.6837 8.65695 8.21097C9.63178 7.26549 9.63178 5.7329 8.65695 4.78742Z" fill="url(#paint13_linear_2268_8636)"/>
<path d="M8.65696 8.21107C8.16955 8.6838 7.5307 8.92019 6.89205 8.92019C6.2534 8.92019 5.61455 8.68382 5.12715 8.21107L3.22095 6.36225L5.52361 4.12891L9.11123 7.60853C8.99288 7.83097 8.83963 8.03424 8.65696 8.21107Z" fill="url(#paint14_linear_2268_8636)"/>
<path d="M9.51058 5.00679C10.8383 5.00679 11.9147 3.96282 11.9147 2.67503C11.9147 1.38723 10.8383 0.343262 9.51058 0.343262C8.18281 0.343262 7.10645 1.38723 7.10645 2.67503C7.10645 3.96282 8.18281 5.00679 9.51058 5.00679Z" fill="url(#paint15_linear_2268_8636)"/>
<path d="M11.5425 1.42834L8.2249 4.64604C7.92445 4.46094 7.669 4.21323 7.47937 3.9218L10.7963 0.704102C11.097 0.889275 11.3518 1.13658 11.5425 1.42834Z" fill="url(#paint16_linear_2268_8636)"/>
<path d="M7.10657 2.67484C7.10657 3.96263 8.18292 5.00661 9.5107 5.00661C10.8385 5.00661 11.9148 3.96263 11.9148 2.67484C11.9148 2.61037 11.912 2.54655 11.9067 2.4834H7.11468C7.10931 2.54708 7.10661 2.61095 7.10657 2.67484Z" fill="url(#paint17_linear_2268_8636)"/>
<path d="M9.5106 0.343262C9.35572 0.343262 9.20434 0.357647 9.05762 0.384776V4.96525C9.20693 4.99287 9.3586 5.00677 9.5106 5.00676C10.8384 5.00676 11.9147 3.96279 11.9147 2.675C11.9147 1.38721 10.8384 0.343262 9.5106 0.343262Z" fill="url(#paint18_linear_2268_8636)"/>
<path d="M11.2005 1.0166L7.80078 4.31397C8.23661 4.74165 8.84168 5.00674 9.51065 5.00674C10.8384 5.00674 11.9148 3.96277 11.9148 2.67498C11.9148 2.02614 11.6415 1.43929 11.2005 1.0166Z" fill="url(#paint19_linear_2268_8636)"/>
</g>
<defs>
<linearGradient id="paint0_linear_2268_8636" x1="10.1071" y1="5.81155" x2="11.6237" y2="7.37521" gradientUnits="userSpaceOnUse">
<stop stop-color="#F3FAFF"/>
<stop offset="1" stop-color="#D5DAF3"/>
</linearGradient>
<linearGradient id="paint1_linear_2268_8636" x1="10.3348" y1="6.03241" x2="12.4814" y2="8.24564" gradientUnits="userSpaceOnUse">
<stop stop-color="#DBD5EF" stop-opacity="0"/>
<stop offset="0.267" stop-color="#D8D2EC" stop-opacity="0.023"/>
<stop offset="0.443" stop-color="#D1C9E2" stop-opacity="0.098"/>
<stop offset="0.593" stop-color="#C4B9D1" stop-opacity="0.225"/>
<stop offset="0.729" stop-color="#B2A4BA" stop-opacity="0.405"/>
<stop offset="0.855" stop-color="#9A889C" stop-opacity="0.638"/>
<stop offset="0.971" stop-color="#7E6678" stop-opacity="0.92"/>
<stop offset="1" stop-color="#765D6E"/>
</linearGradient>
<linearGradient id="paint2_linear_2268_8636" x1="10.7102" y1="7.2834" x2="8.89447" y2="7.21083" gradientUnits="userSpaceOnUse">
<stop stop-color="#DBD5EF" stop-opacity="0"/>
<stop offset="0.267" stop-color="#D8D2EC" stop-opacity="0.023"/>
<stop offset="0.443" stop-color="#D1C9E2" stop-opacity="0.098"/>
<stop offset="0.593" stop-color="#C4B9D1" stop-opacity="0.225"/>
<stop offset="0.729" stop-color="#B2A4BA" stop-opacity="0.405"/>
<stop offset="0.855" stop-color="#9A889C" stop-opacity="0.638"/>
<stop offset="0.971" stop-color="#7E6678" stop-opacity="0.92"/>
<stop offset="1" stop-color="#765D6E"/>
</linearGradient>
<linearGradient id="paint3_linear_2268_8636" x1="6.69638" y1="9.11981" x2="8.21297" y2="10.6835" gradientUnits="userSpaceOnUse">
<stop stop-color="#FE646F"/>
<stop offset="0.235" stop-color="#FA5964"/>
<stop offset="0.641" stop-color="#EF3D49"/>
<stop offset="1" stop-color="#E41F2D"/>
</linearGradient>
<linearGradient id="paint4_linear_2268_8636" x1="7.80237" y1="9.78524" x2="7.70968" y2="7.91449" gradientUnits="userSpaceOnUse">
<stop stop-color="#A72B2B" stop-opacity="0"/>
<stop offset="0.156" stop-color="#A32B2A" stop-opacity="0.066"/>
<stop offset="0.386" stop-color="#982C29" stop-opacity="0.248"/>
<stop offset="0.661" stop-color="#872F28" stop-opacity="0.545"/>
<stop offset="0.97" stop-color="#6F3226" stop-opacity="0.956"/>
<stop offset="1" stop-color="#6D3326"/>
</linearGradient>
<linearGradient id="paint5_linear_2268_8636" x1="8.25641" y1="8.80285" x2="9.63967" y2="7.79006" gradientUnits="userSpaceOnUse">
<stop stop-color="#A72B2B" stop-opacity="0"/>
<stop offset="0.156" stop-color="#A32B2A" stop-opacity="0.066"/>
<stop offset="0.386" stop-color="#982C29" stop-opacity="0.248"/>
<stop offset="0.661" stop-color="#872F28" stop-opacity="0.545"/>
<stop offset="0.97" stop-color="#6F3226" stop-opacity="0.956"/>
<stop offset="1" stop-color="#6D3326"/>
</linearGradient>
<linearGradient id="paint6_linear_2268_8636" x1="7.33101" y1="9.73504" x2="8.8498" y2="11.301" gradientUnits="userSpaceOnUse">
<stop stop-color="#A72B2B" stop-opacity="0"/>
<stop offset="0.156" stop-color="#A32B2A" stop-opacity="0.066"/>
<stop offset="0.386" stop-color="#982C29" stop-opacity="0.248"/>
<stop offset="0.661" stop-color="#872F28" stop-opacity="0.545"/>
<stop offset="0.97" stop-color="#6F3226" stop-opacity="0.956"/>
<stop offset="1" stop-color="#6D3326"/>
</linearGradient>
<linearGradient id="paint7_linear_2268_8636" x1="11.4319" y1="6.39462" x2="13.4618" y2="6.7458" gradientUnits="userSpaceOnUse">
<stop stop-color="#DBD5EF" stop-opacity="0"/>
<stop offset="0.267" stop-color="#D8D2EC" stop-opacity="0.023"/>
<stop offset="0.443" stop-color="#D1C9E2" stop-opacity="0.098"/>
<stop offset="0.593" stop-color="#C4B9D1" stop-opacity="0.225"/>
<stop offset="0.729" stop-color="#B2A4BA" stop-opacity="0.405"/>
<stop offset="0.855" stop-color="#9A889C" stop-opacity="0.638"/>
<stop offset="0.971" stop-color="#7E6678" stop-opacity="0.92"/>
<stop offset="1" stop-color="#765D6E"/>
</linearGradient>
<linearGradient id="paint8_linear_2268_8636" x1="7.14812" y1="5.59485" x2="5.63153" y2="7.15851" gradientUnits="userSpaceOnUse">
<stop stop-color="#FEF0AE"/>
<stop offset="1" stop-color="#FAC600"/>
</linearGradient>
<linearGradient id="paint9_linear_2268_8636" x1="6.92046" y1="5.81544" x2="4.77384" y2="8.0287" gradientUnits="userSpaceOnUse">
<stop stop-color="#FE9738" stop-opacity="0"/>
<stop offset="0.165" stop-color="#FE9637" stop-opacity="0.012"/>
<stop offset="0.296" stop-color="#FE9535" stop-opacity="0.052"/>
<stop offset="0.415" stop-color="#FE9331" stop-opacity="0.118"/>
<stop offset="0.527" stop-color="#FE902C" stop-opacity="0.211"/>
<stop offset="0.635" stop-color="#FE8C25" stop-opacity="0.331"/>
<stop offset="0.739" stop-color="#FE871D" stop-opacity="0.479"/>
<stop offset="0.84" stop-color="#FE8213" stop-opacity="0.655"/>
<stop offset="0.936" stop-color="#FE7B09" stop-opacity="0.852"/>
<stop offset="1" stop-color="#FE7701"/>
</linearGradient>
<linearGradient id="paint10_linear_2268_8636" x1="4.29221" y1="1.76273" x2="1.78493" y2="4.34783" gradientUnits="userSpaceOnUse">
<stop stop-color="#C1E9AF"/>
<stop offset="0.107" stop-color="#B6E4AA"/>
<stop offset="0.293" stop-color="#99D69E"/>
<stop offset="0.536" stop-color="#6BC18A"/>
<stop offset="0.824" stop-color="#2CA36F"/>
<stop offset="1" stop-color="#02905D"/>
</linearGradient>
<linearGradient id="paint11_linear_2268_8636" x1="2.76494" y1="3.8107" x2="1.96438" y2="5.61006" gradientUnits="userSpaceOnUse">
<stop stop-color="#026841" stop-opacity="0"/>
<stop offset="0.218" stop-color="#026841" stop-opacity="0.033"/>
<stop offset="0.41" stop-color="#026841" stop-opacity="0.137"/>
<stop offset="0.592" stop-color="#026841" stop-opacity="0.31"/>
<stop offset="0.767" stop-color="#026841" stop-opacity="0.553"/>
<stop offset="0.937" stop-color="#026841" stop-opacity="0.864"/>
<stop offset="1" stop-color="#026841"/>
</linearGradient>
<linearGradient id="paint12_linear_2268_8636" x1="6.54696" y1="6.87936" x2="6.22549" y2="8.85481" gradientUnits="userSpaceOnUse">
<stop stop-color="#FE9738" stop-opacity="0"/>
<stop offset="0.165" stop-color="#FE9637" stop-opacity="0.012"/>
<stop offset="0.296" stop-color="#FE9535" stop-opacity="0.052"/>
<stop offset="0.415" stop-color="#FE9331" stop-opacity="0.118"/>
<stop offset="0.527" stop-color="#FE902C" stop-opacity="0.211"/>
<stop offset="0.635" stop-color="#FE8C25" stop-opacity="0.331"/>
<stop offset="0.739" stop-color="#FE871D" stop-opacity="0.479"/>
<stop offset="0.84" stop-color="#FE8213" stop-opacity="0.655"/>
<stop offset="0.936" stop-color="#FE7B09" stop-opacity="0.852"/>
<stop offset="1" stop-color="#FE7701"/>
</linearGradient>
<linearGradient id="paint13_linear_2268_8636" x1="6.43698" y1="6.16029" x2="7.82083" y2="8.99379" gradientUnits="userSpaceOnUse">
<stop stop-color="#FE9738" stop-opacity="0"/>
<stop offset="0.165" stop-color="#FE9637" stop-opacity="0.012"/>
<stop offset="0.296" stop-color="#FE9535" stop-opacity="0.052"/>
<stop offset="0.415" stop-color="#FE9331" stop-opacity="0.118"/>
<stop offset="0.527" stop-color="#FE902C" stop-opacity="0.211"/>
<stop offset="0.635" stop-color="#FE8C25" stop-opacity="0.331"/>
<stop offset="0.739" stop-color="#FE871D" stop-opacity="0.479"/>
<stop offset="0.84" stop-color="#FE8213" stop-opacity="0.655"/>
<stop offset="0.936" stop-color="#FE7B09" stop-opacity="0.852"/>
<stop offset="1" stop-color="#FE7701"/>
</linearGradient>
<linearGradient id="paint14_linear_2268_8636" x1="5.94731" y1="7.64006" x2="5.51216" y2="9.11061" gradientUnits="userSpaceOnUse">
<stop stop-color="#FAC600" stop-opacity="0"/>
<stop offset="0.117" stop-color="#FAC602" stop-opacity="0.017"/>
<stop offset="0.242" stop-color="#FAC80B" stop-opacity="0.067"/>
<stop offset="0.37" stop-color="#FACC1A" stop-opacity="0.151"/>
<stop offset="0.501" stop-color="#FBD12E" stop-opacity="0.268"/>
<stop offset="0.634" stop-color="#FBD748" stop-opacity="0.419"/>
<stop offset="0.768" stop-color="#FCDF69" stop-opacity="0.604"/>
<stop offset="0.9" stop-color="#FDE88E" stop-opacity="0.819"/>
<stop offset="1" stop-color="#FEF0AE"/>
</linearGradient>
<linearGradient id="paint15_linear_2268_8636" x1="8.20983" y1="1.41343" x2="10.8251" y2="4.10989" gradientUnits="userSpaceOnUse">
<stop stop-color="#99E6FC"/>
<stop offset="0.133" stop-color="#8EE1FB"/>
<stop offset="0.363" stop-color="#71D5F9"/>
<stop offset="0.663" stop-color="#43C2F5"/>
<stop offset="1" stop-color="#08A9F1"/>
</linearGradient>
<linearGradient id="paint16_linear_2268_8636" x1="9.85079" y1="3.00494" x2="9.03503" y2="2.16386" gradientUnits="userSpaceOnUse">
<stop stop-color="#99E6FC"/>
<stop offset="0.133" stop-color="#8EE1FB"/>
<stop offset="0.363" stop-color="#71D5F9"/>
<stop offset="0.663" stop-color="#43C2F5"/>
<stop offset="1" stop-color="#08A9F1"/>
</linearGradient>
<linearGradient id="paint17_linear_2268_8636" x1="9.5107" y1="3.14453" x2="9.5107" y2="5.53555" gradientUnits="userSpaceOnUse">
<stop stop-color="#2740B0" stop-opacity="0"/>
<stop offset="0.251" stop-color="#263FAE" stop-opacity="0.023"/>
<stop offset="0.424" stop-color="#253DAB" stop-opacity="0.095"/>
<stop offset="0.574" stop-color="#233BA4" stop-opacity="0.218"/>
<stop offset="0.711" stop-color="#21379B" stop-opacity="0.393"/>
<stop offset="0.839" stop-color="#1E3290" stop-opacity="0.618"/>
<stop offset="0.959" stop-color="#1A2C82" stop-opacity="0.89"/>
<stop offset="1" stop-color="#192A7D"/>
</linearGradient>
<linearGradient id="paint18_linear_2268_8636" x1="10.0057" y1="2.675" x2="12.3988" y2="2.675" gradientUnits="userSpaceOnUse">
<stop stop-color="#2740B0" stop-opacity="0"/>
<stop offset="0.251" stop-color="#263FAE" stop-opacity="0.023"/>
<stop offset="0.424" stop-color="#253DAB" stop-opacity="0.095"/>
<stop offset="0.574" stop-color="#233BA4" stop-opacity="0.218"/>
<stop offset="0.711" stop-color="#21379B" stop-opacity="0.393"/>
<stop offset="0.839" stop-color="#1E3290" stop-opacity="0.618"/>
<stop offset="0.959" stop-color="#1A2C82" stop-opacity="0.89"/>
<stop offset="1" stop-color="#192A7D"/>
</linearGradient>
<linearGradient id="paint19_linear_2268_8636" x1="10.3414" y1="3.48075" x2="11.4922" y2="4.66722" gradientUnits="userSpaceOnUse">
<stop stop-color="#08A9F1" stop-opacity="0"/>
<stop offset="0.093" stop-color="#0BAAF1" stop-opacity="0.025"/>
<stop offset="0.219" stop-color="#15AEF2" stop-opacity="0.094"/>
<stop offset="0.365" stop-color="#26B5F3" stop-opacity="0.208"/>
<stop offset="0.526" stop-color="#3DBFF5" stop-opacity="0.367"/>
<stop offset="0.698" stop-color="#5ACBF7" stop-opacity="0.571"/>
<stop offset="0.878" stop-color="#7EDAF9" stop-opacity="0.816"/>
<stop offset="1" stop-color="#99E6FC"/>
</linearGradient>
<clipPath id="clip0_2268_8636">
<rect width="12.9367" height="12.5473" fill="white" transform="translate(0.583618 -0.00732422)"/>
</clipPath>
</defs>
</svg>
