<svg width="296" height="236" viewBox="0 0 296 236" fill="none" xmlns="http://www.w3.org/2000/svg">
<path d="M160.64 75.5195C165.202 75.5195 168.9 79.2175 168.9 83.7793C168.9 88.3412 165.202 92.0391 160.64 92.0391H236.161C240.722 92.0393 244.42 95.7381 244.42 100.3C244.42 104.861 240.722 108.559 236.161 108.56H262.121C266.682 108.56 270.38 112.258 270.38 116.819C270.38 121.381 266.682 125.079 262.121 125.079H239.701C235.139 125.079 231.44 128.778 231.44 133.34C231.44 137.902 235.139 141.6 239.701 141.6H246.78C251.342 141.6 255.04 145.298 255.041 149.859C255.041 154.421 251.342 158.119 246.78 158.119H185.42C184.813 158.119 184.22 158.054 183.65 157.93C183.08 158.054 182.488 158.119 181.88 158.119H74.5005C69.9386 158.119 66.2397 154.421 66.2397 149.859C66.2398 145.298 69.9387 141.6 74.5005 141.6H28.48C23.9183 141.599 20.2204 137.901 20.2202 133.34C20.2202 128.778 23.9182 125.079 28.48 125.079H75.6802C80.242 125.079 83.9399 121.381 83.9399 116.819C83.9398 112.258 80.242 108.56 75.6802 108.56H46.1802C41.6184 108.56 37.9206 104.862 37.9204 100.3C37.9204 95.7379 41.6183 92.0391 46.1802 92.0391H93.3804C88.8185 92.0391 85.1206 88.3412 85.1206 83.7793C85.1207 79.2175 88.8186 75.5195 93.3804 75.5195H160.64ZM266.84 141.6C271.402 141.6 275.1 145.298 275.1 149.859C275.1 154.421 271.402 158.119 266.84 158.119C262.278 158.119 258.581 154.421 258.581 149.859C258.581 145.298 262.279 141.6 266.84 141.6Z" fill="#FCE3FD"/>
<path fill-rule="evenodd" clip-rule="evenodd" d="M133.64 132.521C133.548 133.174 133.5 133.841 133.5 134.52C133.5 142.34 139.84 148.68 147.66 148.68C155.481 148.68 161.82 142.34 161.82 134.52C161.82 133.841 161.773 133.174 161.68 132.521H196.04V164.02C196.04 165.975 194.455 167.56 192.5 167.56H102.82C100.865 167.56 99.2803 165.975 99.2803 164.02V132.521H133.64Z" fill="white"/>
<path fill-rule="evenodd" clip-rule="evenodd" d="M163 132.16C163 140.632 156.132 147.5 147.66 147.5C139.188 147.5 132.32 140.632 132.32 132.16C132.32 131.886 132.327 131.613 132.342 131.342H99.2803L110.562 97.9859C111.048 96.5479 112.397 95.5801 113.915 95.5801H181.406C182.924 95.5801 184.273 96.5479 184.759 97.9859L196.04 131.342H162.979C162.993 131.613 163 131.886 163 132.16Z" fill="white"/>
<path fill-rule="evenodd" clip-rule="evenodd" d="M160.755 133.287C160.755 139.833 154.892 146.32 147.66 146.32C140.428 146.32 134.565 139.833 134.565 133.287C134.565 133.074 134.571 131.684 134.583 131.474H109.9L119.531 108.059C119.946 106.948 121.097 106.2 122.393 106.2H172.927C174.223 106.2 175.375 106.948 175.79 108.059L185.42 131.474H160.737C160.749 131.684 160.755 133.074 160.755 133.287Z" fill="#FCE3FD"/>
<path fill-rule="evenodd" clip-rule="evenodd" d="M100.755 131.584V162.84C100.755 163.98 101.68 164.905 102.82 164.905H192.5C193.641 164.905 194.565 163.98 194.565 162.84V131.584L183.362 98.4581C183.078 97.6193 182.291 97.0547 181.405 97.0547H113.915C113.029 97.0547 112.242 97.6193 111.959 98.4581L100.755 131.584Z" stroke="#DC61E0" stroke-width="2.5"/>
<path d="M115.8 130.98C120.445 130.98 125.458 130.98 130.839 130.98C133.053 130.98 133.053 132.536 133.053 133.34C133.053 141.161 139.539 147.5 147.539 147.5C155.539 147.5 162.025 141.161 162.025 133.34C162.025 132.536 162.025 130.98 164.239 130.98H193.68M107.037 130.98H109.9H107.037Z" stroke="#DC61E0" stroke-width="2.5" stroke-linecap="round" stroke-linejoin="round"/>
<path d="M177.278 68.797L164.18 83.4916M146.598 63.7197V83.4916V63.7197ZM115.8 68.797L128.898 83.4916L115.8 68.797Z" stroke="#F59EF8" stroke-width="2.5" stroke-linecap="round" stroke-linejoin="round"/>
</svg>
