<svg width="30" height="30" viewBox="0 0 30 30" fill="none" xmlns="http://www.w3.org/2000/svg">
<path d="M9.375 3.75C9.54076 3.75 9.69973 3.81585 9.81694 3.93306C9.93415 4.05027 10 4.20924 10 4.375C10 4.54076 9.93415 4.69973 9.81694 4.81694C9.69973 4.93415 9.54076 5 9.375 5H6.875C6.37772 5 5.90081 5.19754 5.54917 5.54917C5.19754 5.90081 5 6.37772 5 6.875V9.41375C5 9.57951 4.93415 9.73848 4.81694 9.85569C4.69973 9.9729 4.54076 10.0388 4.375 10.0388C4.20924 10.0388 4.05027 9.9729 3.93306 9.85569C3.81585 9.73848 3.75 9.57951 3.75 9.41375V6.875C3.75 6.0462 4.07924 5.25134 4.66529 4.66529C5.25134 4.07924 6.0462 3.75 6.875 3.75H9.375ZM20.625 5C20.4592 5 20.3003 4.93415 20.1831 4.81694C20.0658 4.69973 20 4.54076 20 4.375C20 4.20924 20.0658 4.05027 20.1831 3.93306C20.3003 3.81585 20.4592 3.75 20.625 3.75H23.125C23.9538 3.75 24.7487 4.07924 25.3347 4.66529C25.9208 5.25134 26.25 6.0462 26.25 6.875V9.375C26.25 9.54076 26.1842 9.69973 26.0669 9.81694C25.9497 9.93415 25.7908 10 25.625 10C25.4592 10 25.3003 9.93415 25.1831 9.81694C25.0658 9.69973 25 9.54076 25 9.375V6.875C25 6.37772 24.8025 5.90081 24.4508 5.54917C24.0992 5.19754 23.6223 5 23.125 5H20.625ZM25 20.625C25 20.4592 25.0658 20.3003 25.1831 20.1831C25.3003 20.0658 25.4592 20 25.625 20C25.7908 20 25.9497 20.0658 26.0669 20.1831C26.1842 20.3003 26.25 20.4592 26.25 20.625V23.125C26.25 23.9538 25.9208 24.7487 25.3347 25.3347C24.7487 25.9208 23.9538 26.25 23.125 26.25H20.625C20.4592 26.25 20.3003 26.1842 20.1831 26.0669C20.0658 25.9497 20 25.7908 20 25.625C20 25.4592 20.0658 25.3003 20.1831 25.1831C20.3003 25.0658 20.4592 25 20.625 25H23.125C23.6223 25 24.0992 24.8025 24.4508 24.4508C24.8025 24.0992 25 23.6223 25 23.125V20.625ZM3.75 20.625C3.75 20.4592 3.81585 20.3003 3.93306 20.1831C4.05027 20.0658 4.20924 20 4.375 20C4.54076 20 4.69973 20.0658 4.81694 20.1831C4.93415 20.3003 5 20.4592 5 20.625V23.125C5 23.6223 5.19754 24.0992 5.54917 24.4508C5.90081 24.8025 6.37772 25 6.875 25H9.375C9.54076 25 9.69973 25.0658 9.81694 25.1831C9.93415 25.3003 10 25.4592 10 25.625C10 25.7908 9.93415 25.9497 9.81694 26.0669C9.69973 26.1842 9.54076 26.25 9.375 26.25H6.875C6.0462 26.25 5.25134 25.9208 4.66529 25.3347C4.07924 24.7487 3.75 23.9538 3.75 23.125V20.625ZM10 10.625C10 10.4592 10.0658 10.3003 10.1831 10.1831C10.3003 10.0658 10.4592 10 10.625 10C10.7908 10 10.9497 10.0658 11.0669 10.1831C11.1842 10.3003 11.25 10.4592 11.25 10.625V11.875C11.25 12.0408 11.1842 12.1997 11.0669 12.3169C10.9497 12.4342 10.7908 12.5 10.625 12.5C10.4592 12.5 10.3003 12.4342 10.1831 12.3169C10.0658 12.1997 10 12.0408 10 11.875V10.625ZM20 10.625C20 10.4592 20.0658 10.3003 20.1831 10.1831C20.3003 10.0658 20.4592 10 20.625 10C20.7908 10 20.9497 10.0658 21.0669 10.1831C21.1842 10.3003 21.25 10.4592 21.25 10.625V11.875C21.25 12.0408 21.1842 12.1997 21.0669 12.3169C20.9497 12.4342 20.7908 12.5 20.625 12.5C20.4592 12.5 20.3003 12.4342 20.1831 12.3169C20.0658 12.1997 20 12.0408 20 11.875V10.625ZM15 10.625C15 10.4592 15.0658 10.3003 15.1831 10.1831C15.3003 10.0658 15.4592 10 15.625 10C15.7908 10 15.9497 10.0658 16.0669 10.1831C16.1842 10.3003 16.25 10.4592 16.25 10.625V15.625C16.25 16.1223 16.0525 16.5992 15.7008 16.9508C15.3492 17.3025 14.8723 17.5 14.375 17.5C14.2092 17.5 14.0503 17.4342 13.9331 17.3169C13.8158 17.1997 13.75 17.0408 13.75 16.875C13.75 16.7092 13.8158 16.5503 13.9331 16.4331C14.0503 16.3158 14.2092 16.25 14.375 16.25C14.5408 16.25 14.6997 16.1842 14.8169 16.0669C14.9342 15.9497 15 15.7908 15 15.625V10.625ZM10.125 19.75C10.0758 19.6843 10.0399 19.6096 10.0196 19.5301C9.99918 19.4506 9.99467 19.3679 10.0063 19.2866C10.0179 19.2054 10.0454 19.1272 10.0872 19.0566C10.129 18.9859 10.1843 18.9242 10.25 18.875C10.3157 18.8258 10.3904 18.7899 10.4699 18.7696C10.5494 18.7492 10.6321 18.7447 10.7134 18.7563C10.7946 18.7679 10.8728 18.7954 10.9434 18.8372C11.0141 18.879 11.0758 18.9343 11.125 19C12.2638 20.5187 13.5437 21.25 15 21.25C16.4563 21.25 17.7362 20.5187 18.875 19C18.9745 18.8674 19.1225 18.7797 19.2866 18.7563C19.4507 18.7328 19.6174 18.7755 19.75 18.875C19.8826 18.9745 19.9703 19.1225 19.9937 19.2866C20.0172 19.4507 19.9745 19.6174 19.875 19.75C18.5138 21.565 16.8775 22.5 15 22.5C13.1225 22.5 11.4863 21.565 10.125 19.75Z" fill="#2E3E5C"/>
</svg>
