<svg width="25" height="25" viewBox="0 0 25 25" fill="none" xmlns="http://www.w3.org/2000/svg">
<path d="M10.1092 13.7915C10.0307 13.7915 8.384 13.792 7.6245 13.7913C7.2335 13.791 7.094 13.6505 7.094 13.257C7.09337 12.2463 7.09337 11.2355 7.094 10.2248C7.09425 9.83628 7.24175 9.68803 7.62775 9.68778C8.38725 9.68728 10.025 9.68753 10.1092 9.68753V7.48703C10.1097 6.49353 10.287 5.54253 10.7917 4.67178C11.3085 3.78053 12.0605 3.17003 13.0242 2.81703C13.6415 2.59078 14.2822 2.50053 14.9372 2.50003C15.7567 2.49953 16.5762 2.50028 17.396 2.50178C17.7482 2.50228 17.9045 2.65803 17.9052 3.01278C17.9067 3.96353 17.9067 4.91428 17.9052 5.86478C17.9047 6.22328 17.755 6.36728 17.3947 6.37128C16.723 6.37853 16.0507 6.37403 15.3797 6.40103C14.702 6.40103 14.3455 6.73203 14.3455 7.43353C14.3292 8.17553 14.3387 8.91828 14.3387 9.68728C14.4022 9.68728 16.331 9.68703 17.2325 9.68728C17.642 9.68728 17.782 9.82803 17.782 10.2398C17.782 11.245 17.7817 12.2505 17.781 13.2558C17.7807 13.6615 17.6492 13.791 17.2372 13.7913C16.3357 13.7918 14.4145 13.7915 14.3305 13.7915V21.9278C14.3305 22.3615 14.194 22.4998 13.766 22.4998H10.6352C10.257 22.4998 10.1095 22.3528 10.1095 21.9745L10.1092 13.7915Z" fill="#3D6AD6"/>
</svg>
