<svg width="183" height="136" viewBox="0 0 183 136" fill="none" xmlns="http://www.w3.org/2000/svg">
<g clip-path="url(#clip0_12_19903)">
<path d="M182.446 119.126H0.546143V119.217H182.446V119.126Z" fill="#EBEBEB"/>
<path d="M115.392 121.604H106.13V121.695H115.392V121.604Z" fill="#EBEBEB"/>
<path d="M166.231 123.572H144.282V123.663H166.231V123.572Z" fill="#EBEBEB"/>
<path d="M104.157 121.647H81.4817V121.738H104.157V121.647Z" fill="#EBEBEB"/>
<path d="M66.7747 124.369H62.0308V124.46H66.7747V124.369Z" fill="#EBEBEB"/>
<path d="M92.9867 124.369H71.3843V124.46H92.9867V124.369Z" fill="#EBEBEB"/>
<path d="M33.6182 122.833H19.6301V122.924H33.6182V122.833Z" fill="#EBEBEB"/>
<path d="M86.7753 102.901H16.5255C15.9746 102.901 15.4462 102.682 15.0567 102.293C14.6671 101.903 14.4482 101.375 14.4482 100.824V2.07742C14.4492 1.52678 14.6684 0.998971 15.0577 0.60961C15.4471 0.22025 15.9749 0.00108389 16.5255 0.00012207H86.7753C87.3253 0.00204435 87.8522 0.221636 88.2408 0.610893C88.6293 1.00015 88.848 1.52741 88.849 2.07742V100.824C88.849 101.374 88.6306 101.902 88.2418 102.291C87.8531 102.681 87.3256 102.9 86.7753 102.901ZM16.5255 0.0910721C15.999 0.0920337 15.4943 0.301619 15.122 0.673923C14.7497 1.04623 14.5402 1.5509 14.5392 2.07742V100.824C14.5402 101.35 14.7497 101.855 15.122 102.227C15.4943 102.599 15.999 102.809 16.5255 102.81H86.7753C87.3015 102.809 87.8058 102.599 88.1775 102.227C88.5492 101.855 88.758 101.35 88.758 100.824V2.07742C88.758 1.55124 88.5492 1.04655 88.1775 0.674145C87.8058 0.301737 87.3015 0.0920358 86.7753 0.0910721H16.5255Z" fill="#EBEBEB"/>
<path d="M165.46 102.901H95.2134C94.6631 102.9 94.1357 102.681 93.7469 102.291C93.3581 101.902 93.1398 101.374 93.1398 100.824V2.07742C93.1407 1.52741 93.3594 1.00015 93.748 0.610893C94.1366 0.221636 94.6634 0.00204435 95.2134 0.00012207H165.463C166.014 0.00108389 166.542 0.22025 166.931 0.60961C167.32 0.998971 167.54 1.52678 167.54 2.07742V100.824C167.54 101.097 167.487 101.367 167.382 101.619C167.277 101.872 167.124 102.101 166.931 102.294C166.738 102.487 166.508 102.64 166.256 102.744C166.003 102.848 165.733 102.901 165.46 102.901ZM95.2134 0.0910721C94.6873 0.0920358 94.183 0.301737 93.8112 0.674145C93.4395 1.04655 93.2307 1.55124 93.2307 2.07742V100.824C93.2307 101.35 93.4395 101.855 93.8112 102.227C94.183 102.599 94.6873 102.809 95.2134 102.81H165.463C165.99 102.809 166.494 102.599 166.867 102.227C167.239 101.855 167.449 101.35 167.45 100.824V2.07742C167.449 1.5509 167.239 1.04623 166.867 0.673923C166.494 0.301619 165.99 0.0920337 165.463 0.0910721H95.2134Z" fill="#EBEBEB"/>
<path d="M71.8405 87.5705H47.6841L46.218 70.6538H70.3743L71.8405 87.5705Z" fill="#E6E6E6"/>
<path d="M73.0846 87.5704H48.9283L47.4622 70.6537H71.6185L73.0846 87.5704Z" fill="#F0F0F0"/>
<path d="M52.2307 83.9397L51.4231 74.2881H68.3143L69.122 83.9397H52.2307Z" fill="white"/>
<path d="M77.2669 87.5705H74.4329V119.123H77.2669V87.5705Z" fill="#E6E6E6"/>
<path d="M78.1666 87.5707H76.1985V119.123H78.1666V87.5707Z" fill="#F0F0F0"/>
<path d="M50.7272 91.0557H78.1614V87.5741H50.7272V91.0557Z" fill="#F0F0F0"/>
<path d="M51.6985 91.0557H48.8645V119.126H51.6985V91.0557Z" fill="#E6E6E6"/>
<path d="M52.5884 91.0556H50.6202V119.126H52.5884V91.0556Z" fill="#F0F0F0"/>
<path d="M31.5208 91.0557H28.6868V119.126H31.5208V91.0557Z" fill="#E6E6E6"/>
<path d="M32.4225 91.0556H30.4543V119.126H32.4225V91.0556Z" fill="#F0F0F0"/>
<path d="M59.3313 91.0556H56.4973V119.126H59.3313V91.0556Z" fill="#E6E6E6"/>
<path d="M60.2252 91.0557H58.2571V119.126H60.2252V91.0557Z" fill="#F0F0F0"/>
<path d="M50.7258 87.5707H28.6868V91.0522H50.7258V87.5707Z" fill="#E6E6E6"/>
<path d="M132.909 8.89856H47.6594V56.3599H132.909V8.89856Z" fill="#E0E0E0"/>
<path d="M137.589 8.89868H48.0872V56.36H137.589V8.89868Z" fill="#F5F5F5"/>
<path d="M136.124 54.8975V10.3611L49.5471 10.3611V54.8975L136.124 54.8975Z" fill="white"/>
<path d="M84.6098 54.8974L100.955 10.361H73.9796L57.634 54.8974H84.6098Z" fill="#F5F5F5"/>
<path d="M110.579 54.8975L126.924 10.3611H106.573L90.2278 54.8975H110.579Z" fill="#F5F5F5"/>
<path d="M159.93 73.7969H152.683V119.126H159.93V73.7969Z" fill="#E6E6E6"/>
<path d="M158.026 119.126H159.932V115.634H156.029L158.026 119.126Z" fill="#FAFAFA"/>
<path d="M93.1193 73.7968H85.8724V119.126H93.1193V73.7968Z" fill="#E6E6E6"/>
<path d="M159.932 73.7969H91.4543V118.184H159.932V73.7969Z" fill="#FAFAFA"/>
<path d="M158.635 88.1199H92.7512V75.5834H158.635V88.1199ZM93.115 87.7561H158.272V75.9472H93.115V87.7561Z" fill="#E6E6E6"/>
<path d="M147.036 81.6694H105.628C103.704 81.6694 101.852 80.1196 100.535 77.4166L100.407 77.1547H152.227L152.1 77.4166C150.812 80.1196 148.96 81.6694 147.036 81.6694ZM101.004 77.5148C102.237 79.9268 103.915 81.302 105.628 81.302H147.036C148.753 81.302 150.426 79.9268 151.656 77.5148H101.004Z" fill="#E6E6E6"/>
<path d="M93.3607 119.126H91.4543V115.634H95.3579L93.3607 119.126Z" fill="#FAFAFA"/>
<path d="M158.635 102.254H92.7512V89.7242H158.635V102.254ZM93.115 101.89H158.272V90.088H93.115V101.89Z" fill="#E6E6E6"/>
<path d="M147.036 95.8106H105.628C103.704 95.8106 101.852 94.2608 100.535 91.5542L100.407 91.2922H152.227L152.1 91.5542C150.812 94.2499 148.96 95.8106 147.036 95.8106ZM101.004 91.656C102.237 94.0717 103.915 95.4468 105.628 95.4468H147.036C148.753 95.4468 150.426 94.0717 151.656 91.656H101.004Z" fill="#E6E6E6"/>
<path d="M158.635 116.398H92.7512V103.865H158.635V116.398ZM93.115 116.034H158.272V104.229H93.115V116.034Z" fill="#E6E6E6"/>
<path d="M147.036 109.951H105.628C103.704 109.951 101.852 108.398 100.535 105.695L100.407 105.433H152.227L152.1 105.695C150.812 108.398 148.96 109.951 147.036 109.951ZM101.004 105.797C102.237 108.209 103.915 109.588 105.628 109.588H147.036C148.753 109.588 150.426 108.209 151.656 105.797H101.004Z" fill="#E6E6E6"/>
<path d="M44.5574 79.7924V80.6728H43.9972L43.5315 87.5704H36.6775L36.2155 80.6728H35.6516V79.7924H44.5574Z" fill="#E6E6E6"/>
<path d="M42.3074 62.6682C41.7435 58.5609 36.1955 57.3858 29.156 57.2366C22.4585 57.0911 20.3157 54.7228 20.3157 54.7228C20.3157 54.7228 20.3157 64.3198 29.9855 67.7941C39.1496 71.0938 42.8713 66.7864 42.3074 62.6682Z" fill="#E6E6E6"/>
<path d="M38.8804 71.9888C38.9968 70.2972 41.6962 67.1903 48.19 68.6019C52.8831 69.6241 54.6293 67.1903 54.6293 67.1903C54.6293 67.1903 54.1927 74.0589 47.135 76.1252C40.4302 78.0861 38.673 74.9684 38.8804 71.9888Z" fill="#E6E6E6"/>
<path d="M40.3665 82.3864C40.4033 82.3861 40.4396 82.3777 40.4729 82.362C40.5062 82.3463 40.5357 82.3236 40.5593 82.2954C41.0286 81.7388 40.643 80.4073 40.1119 78.5628C39.4279 76.1981 38.5766 73.255 39.2969 71.1159C39.6962 69.989 40.1627 68.8871 40.6939 67.8162C41.7126 65.6588 42.593 63.8144 41.8581 61.8535C41.8344 61.7921 41.7876 61.7425 41.7278 61.7153C41.6679 61.6881 41.5997 61.6855 41.538 61.708C41.5068 61.7193 41.4783 61.7367 41.454 61.7592C41.4298 61.7817 41.4103 61.8089 41.3967 61.8391C41.3832 61.8693 41.3758 61.9019 41.375 61.935C41.3743 61.9681 41.3802 62.001 41.3924 62.0318C42.0509 63.778 41.2506 65.466 40.2428 67.6015C39.7048 68.6942 39.2322 69.8179 38.8276 70.9667C38.0564 73.255 38.9295 76.2818 39.6353 78.7156C40.05 80.149 40.4793 81.626 40.181 81.9898C40.1576 82.0149 40.1397 82.0447 40.1284 82.0771C40.1171 82.1095 40.1127 82.1439 40.1154 82.1781C40.1182 82.2124 40.128 82.2456 40.1443 82.2758C40.1606 82.3061 40.183 82.3325 40.2101 82.3536C40.2574 82.381 40.3122 82.3925 40.3665 82.3864Z" fill="#E6E6E6"/>
<path d="M91.4994 135.556C130.456 135.556 162.037 133.712 162.037 131.437C162.037 129.163 130.456 127.319 91.4994 127.319C52.5428 127.319 20.9623 129.163 20.9623 131.437C20.9623 133.712 52.5428 135.556 91.4994 135.556Z" fill="#F5F5F5"/>
<path d="M91.4856 111.359H39.826L36.9993 28.278H88.6589L91.4856 111.359Z" fill="#06283D"/>
<path d="M94.0635 108.78H42.4039L39.5735 25.6986H91.2331L94.0635 108.78Z" fill="#06283D"/>
<path opacity="0.3" d="M94.0635 108.78H42.4039L39.5735 25.6986H91.2331L94.0635 108.78Z" fill="white"/>
<path d="M76.774 59.892C82.3053 54.2653 82.07 45.0647 76.2484 39.3418C70.4268 33.619 61.2235 33.5411 55.6923 39.1678C50.161 44.7945 50.3963 53.9951 56.2179 59.718C62.0395 65.4408 71.2428 65.5187 76.774 59.892Z" fill="#06283D"/>
<path d="M78.208 49.5275C78.2837 51.5073 77.8517 53.4735 76.9529 55.2392C75.983 57.1398 74.5031 58.7329 72.6789 59.84C70.8547 60.9471 68.7584 61.5245 66.6246 61.5075C64.4382 61.4948 62.2935 60.9077 60.4054 59.805C58.5174 58.7023 56.9523 57.1228 55.8671 55.2246C54.8558 53.4857 54.2909 51.5234 54.2227 49.513C54.1556 47.9541 54.4061 46.3979 54.959 44.9388C55.512 43.4798 56.3557 42.1484 57.4391 41.0255C58.5225 39.9027 59.8229 39.0118 61.2612 38.407C62.6995 37.8023 64.2458 37.4963 65.8061 37.5076C69.023 37.5296 72.1076 38.7914 74.4177 41.0303C76.7278 43.2692 78.0854 46.3128 78.208 49.5275Z" fill="white"/>
<path opacity="0.6" d="M76.9523 55.2394C75.9824 57.14 74.5025 58.7331 72.6783 59.8402C70.8541 60.9473 68.7578 61.5247 66.624 61.5076C64.4376 61.495 62.2929 60.9079 60.4048 59.8052C58.5168 58.7025 56.9517 57.123 55.8665 55.2248C58.9436 53.1363 62.5813 52.029 66.3002 52.0488C70.0857 52.0534 73.7876 53.1622 76.9523 55.2394Z" fill="#06283D"/>
<path opacity="0.6" d="M69.9652 49.2378C71.9991 47.1688 71.9126 43.7856 69.7719 41.6813C67.6313 39.5769 64.2471 39.5483 62.2132 41.6173C60.1793 43.6863 60.2658 47.0694 62.4065 49.1738C64.5471 51.2781 67.9313 51.3068 69.9652 49.2378Z" fill="#06283D"/>
<path d="M83.6879 78.6935H50.7349L50.5129 72.1451H83.4659L83.6879 78.6935Z" fill="white"/>
<path d="M84.088 90.3965H51.1313L50.9094 83.8481H83.8661L84.088 90.3965Z" fill="white"/>
<path d="M71.3692 84.7505L63.4275 85.8419C63.3519 85.8515 63.2791 85.8764 63.2135 85.9153C63.1479 85.9542 63.0911 86.006 63.0464 86.0678C63.0017 86.1295 62.9702 86.1998 62.9538 86.2742C62.9373 86.3486 62.9364 86.4256 62.9509 86.5004L63.9914 91.8191C64.0248 91.9758 64.116 92.114 64.2468 92.2064C64.3776 92.2988 64.5384 92.3385 64.6972 92.3175L72.6389 91.2261C72.7151 91.2176 72.7886 91.1933 72.8548 91.1548C72.9211 91.1162 72.9786 91.0644 73.0238 91.0025C73.0689 90.9406 73.1007 90.8699 73.1171 90.7951C73.1336 90.7202 73.1342 90.6428 73.1191 90.5677L72.075 85.2453C72.0401 85.0898 71.9484 84.9529 71.8178 84.8614C71.6873 84.7699 71.5274 84.7303 71.3692 84.7505ZM69.0882 90.142L67.6512 90.3385L67.5057 88.6213C67.3564 88.556 67.225 88.4559 67.1225 88.3293C67.0199 88.2027 66.9492 88.0533 66.9163 87.8937C66.8913 87.7713 66.8921 87.645 66.9186 87.5228C66.9452 87.4007 66.9969 87.2855 67.0705 87.1845C67.1441 87.0835 67.238 86.9989 67.3461 86.9363C67.4543 86.8736 67.5743 86.8342 67.6985 86.8205C67.9569 86.7873 68.2184 86.8522 68.4312 87.0024C68.6441 87.1526 68.7929 87.3772 68.8481 87.6318C68.8805 87.7847 68.8717 87.9435 68.8224 88.0918C68.7732 88.2401 68.6854 88.3727 68.568 88.4758L69.0882 90.142Z" fill="#06283D"/>
<path d="M70.5882 84.4669C70.4478 84.4847 70.3057 84.4495 70.19 84.3681C70.0742 84.2866 69.9931 84.1649 69.9624 84.0267L69.8606 83.5028C69.7145 82.7932 69.3163 82.1606 68.7398 81.7218C68.1633 81.2831 67.4475 81.068 66.7246 81.1163C66.3591 81.1365 66.0022 81.2353 65.6783 81.4059C65.3544 81.5765 65.0711 81.815 64.8477 82.105C64.6243 82.3951 64.466 82.7299 64.3837 83.0866C64.3014 83.4433 64.297 83.8136 64.3708 84.1722L64.4872 84.7688C64.5008 84.8353 64.5003 84.904 64.4858 84.9703C64.4713 85.0366 64.4431 85.0992 64.4031 85.1539C64.363 85.2087 64.3119 85.2546 64.2531 85.2885C64.1943 85.3224 64.1291 85.3437 64.0616 85.3509C63.9209 85.3705 63.7781 85.336 63.6619 85.2542C63.5457 85.1725 63.4649 85.0497 63.4359 84.9107L63.3376 84.405C63.2383 83.9325 63.2353 83.4447 63.329 82.971C63.4227 82.4972 63.6111 82.0473 63.8829 81.6481C64.1546 81.249 64.5042 80.9088 64.9106 80.648C65.317 80.3872 65.7719 80.2111 66.248 80.1304C67.2808 79.9569 68.3408 80.1878 69.2078 80.7751C70.0749 81.3625 70.6826 82.2611 70.9047 83.2845L71.0211 83.8811C71.0346 83.9484 71.0339 84.0178 71.019 84.0848C71.0041 84.1518 70.9754 84.2149 70.9346 84.2701C70.8938 84.3252 70.8419 84.3713 70.7822 84.4052C70.7226 84.4391 70.6565 84.4601 70.5882 84.4669Z" fill="#06283D"/>
<path d="M78.6452 99.5682H57.1919L57.05 95.3044H78.4997L78.6452 99.5682Z" fill="#06283D"/>
<path d="M68.2938 75.419C68.3002 75.5747 68.275 75.73 68.2197 75.8757C68.1644 76.0214 68.0801 76.1543 67.972 76.2665C67.8639 76.3787 67.7341 76.4678 67.5906 76.5285C67.4471 76.5892 67.2928 76.6201 67.1369 76.6195C66.8159 76.6169 66.5082 76.4907 66.2779 76.2671C66.0475 76.0435 65.9122 75.7398 65.9 75.419C65.8961 75.265 65.9232 75.1117 65.9797 74.9684C66.0362 74.8251 66.1209 74.6945 66.2288 74.5846C66.3367 74.4746 66.4656 74.3875 66.6079 74.3283C66.7502 74.2692 66.9028 74.2392 67.0569 74.2403C67.3741 74.2434 67.6782 74.3669 67.9078 74.5857C68.1374 74.8045 68.2754 75.1023 68.2938 75.419Z" fill="#263238"/>
<path d="M63.1379 75.4192C63.1443 75.5749 63.1191 75.7303 63.0638 75.8759C63.0085 76.0216 62.9242 76.1546 62.8161 76.2668C62.708 76.379 62.5782 76.4681 62.4347 76.5287C62.2912 76.5894 62.1369 76.6204 61.981 76.6198C61.6597 76.6172 61.3516 76.4911 61.1206 76.2676C60.8897 76.0441 60.7535 75.7403 60.7405 75.4192C60.7341 75.2637 60.7593 75.1085 60.8147 74.963C60.87 74.8176 60.9543 74.6848 61.0625 74.5729C61.1707 74.461 61.3005 74.3722 61.444 74.312C61.5875 74.2517 61.7417 74.2212 61.8974 74.2223C62.2181 74.2248 62.5257 74.3504 62.7566 74.5731C62.9874 74.7959 63.1239 75.0987 63.1379 75.4192Z" fill="#263238"/>
<path d="M57.98 75.4192C57.9869 75.575 57.962 75.7306 57.9069 75.8765C57.8518 76.0224 57.7675 76.1556 57.6593 76.2679C57.5511 76.3802 57.4212 76.4693 57.2774 76.5298C57.1336 76.5903 56.979 76.6209 56.8231 76.6198C56.5023 76.6163 56.1952 76.4898 55.965 76.2664C55.7348 76.043 55.5992 75.7397 55.5862 75.4192C55.5798 75.2637 55.605 75.1085 55.6604 74.963C55.7157 74.8176 55.8 74.6848 55.9082 74.5729C56.0164 74.461 56.1462 74.3722 56.2897 74.312C56.4332 74.2517 56.5874 74.2212 56.7431 74.2223C57.0635 74.2249 57.3706 74.3506 57.6009 74.5734C57.8312 74.7962 57.9669 75.0991 57.98 75.4192Z" fill="#263238"/>
<path d="M73.4489 75.4193C73.4558 75.5751 73.4309 75.7307 73.3758 75.8766C73.3206 76.0225 73.2364 76.1556 73.1282 76.2679C73.02 76.3803 72.89 76.4694 72.7463 76.5299C72.6025 76.5904 72.4479 76.621 72.292 76.6198C71.9712 76.6164 71.6641 76.4899 71.4339 76.2664C71.2037 76.043 71.0681 75.7398 71.0551 75.4193C71.0486 75.2638 71.0739 75.1086 71.1292 74.9631C71.1846 74.8176 71.2689 74.6849 71.3771 74.573C71.4853 74.4611 71.615 74.3723 71.7585 74.312C71.902 74.2518 72.0563 74.2213 72.2119 74.2224C72.5324 74.2249 72.8395 74.3506 73.0698 74.5734C73.3001 74.7963 73.4358 75.0991 73.4489 75.4193Z" fill="#263238"/>
<path d="M78.6124 75.4193C78.6188 75.575 78.5936 75.7303 78.5383 75.876C78.4829 76.0217 78.3987 76.1546 78.2905 76.2668C78.1824 76.379 78.0527 76.4681 77.9092 76.5288C77.7657 76.5895 77.6113 76.6204 77.4555 76.6198C77.1341 76.6173 76.826 76.4912 76.5951 76.2677C76.3641 76.0442 76.228 75.7404 76.215 75.4193C76.2086 75.2638 76.2338 75.1086 76.2891 74.9631C76.3445 74.8176 76.4288 74.6849 76.537 74.573C76.6452 74.4611 76.7749 74.3723 76.9184 74.312C77.062 74.2518 77.2162 74.2213 77.3718 74.2224C77.6926 74.2249 78.0002 74.3504 78.2311 74.5732C78.4619 74.7959 78.5984 75.0988 78.6124 75.4193Z" fill="#263238"/>
<path d="M122.03 43.4122C122.518 44.1908 122.918 44.9366 123.332 45.7078C123.747 46.4791 124.122 47.2649 124.489 48.058C125.238 49.6715 125.859 51.3417 126.345 53.0529C126.41 53.2676 126.461 53.4968 126.512 53.7223L126.592 54.057L126.632 54.2244L126.679 54.5045C126.765 55.1304 126.727 55.767 126.567 56.3781C126.317 57.3297 125.936 58.2419 125.435 59.0884C124.536 60.6294 123.45 62.053 122.201 63.3266L120.669 62.1661C121.439 60.7529 122.125 59.2951 122.721 57.8005C122.984 57.1414 123.169 56.4541 123.274 55.7523C123.308 55.5379 123.298 55.3189 123.245 55.1084L123.103 54.6646C123.041 54.4827 122.99 54.3008 122.918 54.1152C122.365 52.614 121.725 51.1466 121 49.7205C120.273 48.2653 119.491 46.8101 118.712 45.4204L122.03 43.4122Z" fill="#FF8B7B"/>
<path d="M121.05 61.657L119.38 62.5447L121.301 64.7929C121.301 64.7929 122.498 63.9817 122.552 62.7411L121.05 61.657Z" fill="#FF8B7B"/>
<path d="M117.136 63.9268L119.191 65.5603L121.301 64.7891L119.381 62.5408L117.136 63.9268Z" fill="#FF8B7B"/>
<path d="M110.113 31.5124C110.073 31.7125 109.931 31.8544 109.8 31.8289C109.669 31.8034 109.593 31.6179 109.637 31.4142C109.68 31.2104 109.819 31.0686 109.949 31.0977C110.08 31.1268 110.157 31.3123 110.113 31.5124Z" fill="#263238"/>
<path d="M109.951 31.858C109.583 32.4276 109.138 32.9442 108.63 33.3933C108.75 33.5177 108.895 33.6146 109.056 33.6774C109.217 33.7402 109.389 33.7674 109.561 33.7571L109.951 31.858Z" fill="#FF5652"/>
<path d="M109.29 38.9959L109.308 36.613L112.466 36.995C112.466 36.995 112.412 39.0432 110.647 39.6471L109.29 38.9959Z" fill="#FF8B7B"/>
<path d="M110.205 34.8922L112.428 35.5325L112.468 36.9913L109.31 36.6093L110.205 34.8922Z" fill="#FF8B7B"/>
<path opacity="0.2" d="M112.423 35.5325L110.2 34.8922L109.767 35.7217C109.79 36.3753 109.995 37.0095 110.357 37.5541C110.719 38.0986 111.225 38.5322 111.819 38.8067C112.201 38.2732 112.424 37.6426 112.463 36.9877L112.423 35.5325Z" fill="black"/>
<path d="M111.082 30.5373C111.096 30.5373 111.111 30.5345 111.125 30.5289C111.139 30.5233 111.151 30.515 111.162 30.5045C111.173 30.4936 111.183 30.4804 111.189 30.4657C111.196 30.451 111.199 30.4351 111.199 30.419C111.199 30.403 111.196 30.3871 111.189 30.3724C111.183 30.3577 111.173 30.3444 111.162 30.3335C111.034 30.1895 110.875 30.0781 110.695 30.0084C110.516 29.9388 110.323 29.9131 110.132 29.9334C110.1 29.9387 110.071 29.9567 110.052 29.9833C110.033 30.0098 110.025 30.0429 110.03 30.0752C110.036 30.1069 110.055 30.1348 110.081 30.1532C110.108 30.1715 110.14 30.1788 110.172 30.1735C110.324 30.1596 110.476 30.1821 110.617 30.239C110.758 30.296 110.884 30.3857 110.983 30.5009C110.996 30.5136 111.012 30.5234 111.029 30.5296C111.045 30.5359 111.064 30.5385 111.082 30.5373Z" fill="#263238"/>
<path d="M115.729 35.1938C115.366 37.0638 115.144 39.6577 116.457 40.9055C116.457 40.9055 115.944 42.8045 112.455 42.8045C108.628 42.8045 110.614 41.1383 110.614 41.1383C112.204 40.6472 112.19 38.8355 111.826 37.3803L115.729 35.1938Z" fill="#FF8B7B"/>
<path d="M117.168 42.1608C117.51 41.677 117.495 40.1526 117.131 39.8834C116.546 39.4505 114.035 39.3486 110.652 40.1272C111.016 41.6042 110.234 42.3791 110.234 42.3791L117.168 42.1608Z" fill="#06283D"/>
<path d="M128.539 128.527C128.436 128.563 128.327 128.579 128.217 128.573C128.108 128.566 128.001 128.538 127.903 128.49C127.864 128.457 127.837 128.411 127.826 128.36C127.816 128.31 127.822 128.257 127.845 128.21C127.855 128.171 127.875 128.135 127.901 128.104C127.927 128.073 127.96 128.049 127.997 128.032C128.361 127.868 129.14 128.192 129.172 128.203C129.183 128.208 129.192 128.216 129.198 128.225C129.204 128.235 129.208 128.246 129.209 128.258C129.209 128.269 129.207 128.281 129.201 128.291C129.195 128.302 129.187 128.31 129.176 128.316C128.972 128.408 128.758 128.479 128.539 128.527ZM128.121 128.119C128.097 128.123 128.074 128.13 128.052 128.141C128.03 128.151 128.01 128.165 127.994 128.182C127.978 128.2 127.965 128.22 127.957 128.243C127.928 128.352 127.957 128.389 127.979 128.399C128.117 128.516 128.63 128.399 128.991 128.265C128.715 128.151 128.418 128.101 128.121 128.119Z" fill="#06283D"/>
<path d="M129.16 128.32C129.151 128.323 129.14 128.323 129.131 128.32C128.84 128.236 128.221 127.796 128.214 127.505C128.214 127.459 128.229 127.415 128.258 127.379C128.286 127.343 128.326 127.318 128.371 127.308C128.414 127.292 128.461 127.286 128.508 127.289C128.554 127.293 128.599 127.307 128.64 127.33C128.982 127.505 129.196 128.214 129.207 128.243C129.21 128.254 129.21 128.265 129.206 128.275C129.203 128.285 129.197 128.294 129.189 128.302C129.182 128.311 129.172 128.317 129.16 128.32ZM128.432 127.414H128.407C128.331 127.443 128.331 127.479 128.334 127.494C128.334 127.665 128.745 128.01 129.062 128.149C128.986 127.864 128.825 127.61 128.6 127.421C128.548 127.398 128.49 127.395 128.436 127.414H128.432Z" fill="#06283D"/>
<path d="M109.645 128.956C109.314 128.956 108.997 128.913 108.892 128.763C108.865 128.724 108.851 128.678 108.851 128.631C108.851 128.583 108.865 128.537 108.892 128.498C108.935 128.427 109.004 128.376 109.084 128.356C109.51 128.239 110.405 128.749 110.445 128.771C110.456 128.778 110.464 128.787 110.469 128.799C110.475 128.811 110.476 128.824 110.474 128.836C110.471 128.848 110.465 128.859 110.456 128.868C110.447 128.876 110.435 128.882 110.423 128.883C110.166 128.931 109.906 128.955 109.645 128.956ZM109.237 128.461C109.199 128.457 109.16 128.457 109.121 128.461C109.071 128.474 109.028 128.505 109.001 128.549C108.961 128.621 108.975 128.661 109.001 128.68C109.121 128.847 109.768 128.851 110.241 128.785C109.932 128.607 109.591 128.492 109.237 128.447V128.461Z" fill="#06283D"/>
<path d="M110.416 128.887H110.391C110.081 128.749 109.47 128.196 109.517 127.905C109.517 127.839 109.576 127.752 109.743 127.737C109.803 127.73 109.865 127.736 109.923 127.753C109.981 127.771 110.035 127.8 110.081 127.839C110.312 128.119 110.451 128.463 110.478 128.825C110.479 128.836 110.477 128.846 110.472 128.856C110.468 128.865 110.461 128.873 110.452 128.88C110.441 128.886 110.429 128.888 110.416 128.887ZM109.794 127.846H109.758C109.648 127.846 109.641 127.901 109.638 127.916C109.608 128.087 110.027 128.523 110.34 128.712C110.311 128.421 110.193 128.145 110.001 127.923C109.943 127.874 109.87 127.847 109.794 127.846Z" fill="#06283D"/>
<path d="M113.231 128.822H110.674L110.419 122.895H112.977L113.231 128.822Z" fill="#FF8B7B"/>
<path d="M132.009 127.639L129.509 128.181L126.995 122.659L129.498 122.12L132.009 127.639Z" fill="#FF8B7B"/>
<path d="M129.271 127.93L132.08 127.323C132.13 127.312 132.181 127.318 132.227 127.341C132.273 127.363 132.309 127.401 132.331 127.446L133.306 129.564C133.332 129.615 133.345 129.672 133.345 129.729C133.345 129.787 133.331 129.843 133.305 129.894C133.279 129.945 133.241 129.99 133.194 130.023C133.147 130.057 133.094 130.079 133.037 130.088C132.051 130.284 131.563 130.328 130.326 130.597C129.566 130.761 127.849 131.179 126.801 131.405C125.753 131.63 125.39 130.626 125.797 130.437C127.634 129.6 128.402 128.862 128.897 128.17C128.988 128.048 129.122 127.962 129.271 127.93Z" fill="#263238"/>
<path d="M110.693 128.527H113.487C113.538 128.526 113.588 128.544 113.627 128.575C113.667 128.607 113.695 128.652 113.706 128.701L114.211 130.979C114.226 131.034 114.227 131.091 114.215 131.146C114.203 131.201 114.179 131.253 114.143 131.297C114.108 131.341 114.063 131.377 114.011 131.4C113.96 131.424 113.904 131.435 113.848 131.434C112.84 131.434 111.381 131.357 110.115 131.357C108.634 131.357 107.354 131.437 105.615 131.437C104.567 131.437 104.276 130.375 104.713 130.28C106.717 129.84 108.351 129.793 110.079 128.727C110.261 128.605 110.474 128.535 110.693 128.527Z" fill="#263238"/>
<path d="M121.048 41.4986C123.445 42.0515 125.413 48.1743 125.413 48.1743L120.597 51.845C119.353 50.5153 118.476 48.8858 118.05 47.1156C117.21 43.8924 118.578 40.9237 121.048 41.4986Z" fill="#06283D"/>
<path opacity="0.4" d="M121.048 41.4986C123.445 42.0515 125.413 48.1743 125.413 48.1743L120.597 51.845C119.353 50.5153 118.476 48.8858 118.05 47.1156C117.21 43.8924 118.578 40.9237 121.048 41.4986Z" fill="black"/>
<path d="M108.419 48.7929C107.822 49.4368 107.225 50.0116 106.6 50.6119C106.294 50.9066 105.978 51.194 105.657 51.4777L105.177 51.8997L105.053 52.0052C104.995 52.0562 104.923 52.1144 104.846 52.1726C104.633 52.3431 104.396 52.4827 104.144 52.5873C103.864 52.7065 103.564 52.7695 103.26 52.7729C102.999 52.7752 102.74 52.7283 102.496 52.6346C102.224 52.5322 101.977 52.3749 101.768 52.1726C101.5 51.9132 101.303 51.5886 101.197 51.2303C101.144 51.0549 101.108 50.8745 101.092 50.6919C101.073 50.4753 101.073 50.2574 101.092 50.0407C101.11 49.8661 101.135 49.7133 101.161 49.5714C101.26 49.0754 101.402 48.5886 101.583 48.1162C101.75 47.6687 101.947 47.2358 102.147 46.7993C102.347 46.3627 102.601 46.0025 102.823 45.6133C103.725 44.1367 104.753 42.7417 105.898 41.4441C107.031 40.1544 108.28 38.9719 109.63 37.9116L110.969 39.2868C110.027 40.5455 109.103 41.8952 108.248 43.2267C107.397 44.5462 106.62 45.9113 105.919 47.3159C105.763 47.6578 105.556 48.0435 105.461 48.3199C105.33 48.6411 105.215 48.9689 105.119 49.3022C105.03 49.6043 104.961 49.9117 104.912 50.2226C104.909 50.2699 104.909 50.3172 104.912 50.3645C104.912 50.3936 104.912 50.4082 104.912 50.3318C104.904 50.2504 104.888 50.17 104.864 50.0916C104.784 49.8338 104.638 49.6009 104.442 49.415C104.269 49.2556 104.067 49.132 103.846 49.0512C103.649 48.9774 103.441 48.9393 103.231 48.9384C103.03 48.9384 102.831 48.9767 102.645 49.0512C102.582 49.0768 102.521 49.1072 102.463 49.1421L102.605 49.0148L103.042 48.6146L103.911 47.7997C104.486 47.2576 105.064 46.6792 105.614 46.1408L108.419 48.7929Z" fill="#FF8B7B"/>
<path opacity="0.2" d="M118.977 45.9879C120.28 47.2758 120.705 49.6259 120.796 51.6668L120.582 51.8305C119.339 50.5002 118.462 48.8709 118.035 47.1011C117.988 46.912 117.948 46.7373 117.911 46.53L118.977 45.9879Z" fill="black"/>
<path d="M105.878 44.0455C105.354 46.8103 105.027 52.4856 106.548 63.727H120.234C120.328 61.6279 119.008 51.3797 121.034 41.477C119.521 41.1865 117.991 40.9933 116.454 40.8986C114.515 40.7875 112.572 40.7875 110.633 40.8986C109.993 40.9604 109.363 41.0514 108.814 41.1496C108.089 41.2785 107.42 41.6243 106.896 42.1414C106.372 42.6584 106.017 43.3224 105.878 44.0455Z" fill="#06283D"/>
<path opacity="0.4" d="M105.878 44.0455C105.354 46.8103 105.027 52.4856 106.548 63.727H120.234C120.328 61.6279 119.008 51.3797 121.034 41.477C119.521 41.1865 117.991 40.9933 116.454 40.8986C114.515 40.7875 112.572 40.7875 110.633 40.8986C109.993 40.9604 109.363 41.0514 108.814 41.1496C108.089 41.2785 107.42 41.6243 106.896 42.1414C106.372 42.6584 106.017 43.3224 105.878 44.0455Z" fill="black"/>
<path opacity="0.2" d="M107.973 48.138L105.499 47.545C105.423 49.0439 105.416 50.8993 105.528 53.1949C106.667 51.8997 108.119 49.8661 107.973 48.138Z" fill="black"/>
<path opacity="0.2" d="M110.419 122.899L110.55 125.951H113.111L112.98 122.899H110.419Z" fill="black"/>
<path opacity="0.2" d="M129.498 122.12L126.995 122.662L128.291 125.507L130.794 124.965L129.498 122.12Z" fill="black"/>
<path d="M116.952 32.4544C116.294 34.9065 116.032 36.3762 114.518 37.3949C112.241 38.9301 109.425 37.1693 109.32 34.5681C109.24 32.2289 110.327 28.6091 112.958 28.118C113.538 28.0053 114.137 28.043 114.699 28.2273C115.26 28.4117 115.765 28.7367 116.165 29.1713C116.566 29.606 116.848 30.1358 116.986 30.7105C117.124 31.2852 117.112 31.8855 116.952 32.4544Z" fill="#FF8B7B"/>
<path d="M111.207 32.549C111.087 32.218 110.52 29.6823 111.051 29.0274C111.582 28.3726 117.639 28.8419 118.534 29.7223C120.022 31.1775 118.992 32.4908 117.363 34.1716C116.14 35.4376 116.093 36.8673 115.478 37.082C114.387 37.4458 112.717 37.1038 112.382 35.9506C112.047 34.7973 111.207 32.549 111.207 32.549Z" fill="#263238"/>
<path d="M117.798 26.8374C115.655 25.9279 111.642 26.9356 109.474 26.4117C109.446 27.2184 109.711 28.0079 110.22 28.6344C110.729 29.261 111.447 29.6823 112.242 29.8205C114.041 30.161 115.869 30.3291 117.699 30.3226C120.079 30.2207 119.613 27.6123 117.798 26.8374Z" fill="#263238"/>
<path d="M118.138 29.7989C118.918 29.8759 119.704 29.7255 120.401 29.366C120.794 30.3337 118.593 30.5847 118.138 29.7989Z" fill="#263238"/>
<path d="M112.37 32.6473C112.322 33.2784 112.066 33.8757 111.643 34.3463C111.086 34.9611 110.504 34.5791 110.406 33.8297C110.315 33.1566 110.497 32.0107 111.181 31.6833C111.865 31.3558 112.414 31.8906 112.37 32.6473Z" fill="#FF8B7B"/>
<path d="M111.402 63.7339C111.402 63.7339 114.312 83.2918 115.902 90.6151C117.648 98.6405 127.009 125.176 127.009 125.176L131.603 124.19C131.603 124.19 125.055 102.559 123.6 91.3427C122.476 82.7279 120.257 63.7339 120.257 63.7339H111.402Z" fill="#06283D"/>
<path d="M125.908 123.652C125.89 123.652 126.763 125.311 126.763 125.311L131.918 124.194L131.481 122.644L125.908 123.652Z" fill="#263238"/>
<path opacity="0.3" d="M113.233 70.7009C116.59 71.3594 116.234 83.8814 115.83 90.3243C114.862 85.7695 113.444 77.0092 112.476 70.7919C112.711 70.6778 112.977 70.6457 113.233 70.7009Z" fill="black"/>
<path d="M106.544 63.7343C106.544 63.7343 106.18 82.8665 106.467 90.6555C106.758 98.7719 109.592 125.347 109.592 125.347H113.929C113.929 125.347 114.089 99.2484 114.293 91.274C114.5 82.5864 115.551 63.7197 115.551 63.7197L106.544 63.7343Z" fill="#06283D"/>
<path d="M108.762 123.637C108.74 123.637 109.006 125.456 109.006 125.456H114.281L114.423 123.848L108.762 123.637Z" fill="#263238"/>
<path d="M111.228 44.8892C112.458 48.1962 105.248 52.0925 105.248 52.0925L102.126 48.0907C102.126 48.0907 104.211 43.947 106.765 42.0807C109.933 39.7596 110.308 42.3754 111.228 44.8892Z" fill="#06283D"/>
<path opacity="0.4" d="M111.228 44.8892C112.458 48.1962 105.248 52.0925 105.248 52.0925L102.126 48.0907C102.126 48.0907 104.211 43.947 106.765 42.0807C109.933 39.7596 110.308 42.3754 111.228 44.8892Z" fill="black"/>
<path d="M139.479 19.7836C146.73 19.7836 152.608 16.0374 152.608 11.4162C152.608 6.79498 146.73 3.04877 139.479 3.04877C132.227 3.04877 126.349 6.79498 126.349 11.4162C126.349 16.0374 132.227 19.7836 139.479 19.7836Z" fill="#06283D"/>
<path d="M134.74 15.6291C134.004 15.6287 133.286 15.4054 132.68 14.9888C132.272 14.7131 131.923 14.357 131.656 13.9424C131.389 13.5278 131.209 13.0632 131.127 12.5768C130.977 11.6508 131.183 10.7024 131.703 9.92177C132.224 9.14115 133.02 8.58601 133.932 8.36764C134.678 8.19526 135.459 8.26122 136.165 8.55623C136.871 8.85124 137.467 9.36043 137.868 10.012L146.297 8.27306C146.622 8.20214 146.962 8.25641 147.249 8.42501C147.535 8.59361 147.748 8.86414 147.844 9.18256C147.887 9.34895 147.897 9.52257 147.871 9.69274C147.846 9.8629 147.785 10.026 147.694 10.1721C147.605 10.3196 147.485 10.4468 147.344 10.5458C147.202 10.6447 147.042 10.7132 146.872 10.7469L146.65 10.7942C146.618 10.7997 146.587 10.8128 146.561 10.8324C146.534 10.852 146.512 10.8775 146.498 10.907C146.484 10.9361 146.477 10.9677 146.477 10.9997C146.477 11.0318 146.484 11.0634 146.498 11.0925L146.647 11.4818C146.697 11.6058 146.702 11.7435 146.662 11.871C146.621 11.9985 146.537 12.1079 146.425 12.1803C146.336 12.2371 146.261 12.3123 146.205 12.4009C146.148 12.4894 146.112 12.5892 146.097 12.6932C146.088 12.8135 146.04 12.9276 145.961 13.0186C145.881 13.1096 145.775 13.1728 145.657 13.1989L145.486 13.2353C145.368 13.2572 145.245 13.2408 145.137 13.1885C145.028 13.1361 144.939 13.0506 144.882 12.9442C144.809 12.8165 144.697 12.7153 144.562 12.6552C144.427 12.5951 144.277 12.5791 144.133 12.6096C143.987 12.6384 143.854 12.7127 143.752 12.8218C143.651 12.9309 143.587 13.0693 143.569 13.2171C143.56 13.3366 143.513 13.4501 143.434 13.5405C143.355 13.631 143.25 13.6936 143.132 13.7191L142.961 13.7555C142.843 13.7772 142.722 13.7606 142.614 13.7083C142.506 13.656 142.417 13.5705 142.361 13.4645C142.307 13.3743 142.233 13.2969 142.146 13.2379C142.059 13.1789 141.959 13.1395 141.855 13.1225C141.723 13.1013 141.602 13.0344 141.514 12.9334C141.425 12.8324 141.375 12.7037 141.372 12.5695L141.353 12.1548C141.352 12.1222 141.344 12.0902 141.329 12.0612C141.314 12.0322 141.292 12.007 141.266 11.9875C141.241 11.9676 141.211 11.9534 141.18 11.9459C141.149 11.9383 141.116 11.9376 141.084 11.9438L138.399 12.5004C138.287 13.2468 137.948 13.9405 137.427 14.4868C136.906 15.0331 136.229 15.4053 135.489 15.5527C135.242 15.6033 134.991 15.6289 134.74 15.6291ZM134.012 8.71689C133.19 8.91352 132.474 9.41352 132.005 10.1166C131.537 10.8197 131.352 11.6738 131.487 12.5077C131.559 12.9474 131.72 13.3679 131.96 13.7432C132.201 14.1185 132.515 14.4409 132.884 14.6905C133.252 14.944 133.667 15.1196 134.105 15.2065C134.543 15.2935 134.994 15.29 135.431 15.1962C136.115 15.0566 136.738 14.7036 137.209 14.1878C137.681 13.672 137.976 13.0201 138.054 12.3258V12.1948L140.997 11.5873C141.08 11.5707 141.166 11.5723 141.249 11.5917C141.332 11.6112 141.41 11.6481 141.477 11.7001C141.544 11.7527 141.599 11.8193 141.638 11.8953C141.677 11.9714 141.699 12.0549 141.703 12.1403L141.721 12.555C141.721 12.604 141.738 12.6516 141.769 12.6894C141.8 12.7273 141.844 12.753 141.892 12.7623C142.05 12.7874 142.201 12.847 142.334 12.9369C142.466 13.0268 142.578 13.1448 142.659 13.2826C142.678 13.3226 142.709 13.3555 142.747 13.3765C142.786 13.3975 142.831 13.4054 142.874 13.399L143.045 13.3626C143.087 13.3516 143.124 13.3271 143.151 13.293C143.178 13.2589 143.193 13.2169 143.194 13.1734C143.221 12.9505 143.317 12.7416 143.469 12.5764C143.622 12.4111 143.822 12.298 144.042 12.253C144.262 12.2067 144.49 12.2311 144.696 12.3225C144.901 12.414 145.072 12.5679 145.184 12.7623C145.203 12.8023 145.233 12.8353 145.272 12.8563C145.311 12.8773 145.355 12.8852 145.399 12.8788L145.57 12.8424C145.612 12.8319 145.65 12.8076 145.677 12.7733C145.704 12.7391 145.719 12.6968 145.719 12.6532C145.738 12.4938 145.793 12.3407 145.879 12.2053C145.965 12.0699 146.081 11.9556 146.217 11.871C146.257 11.8427 146.286 11.8019 146.3 11.7551C146.314 11.7083 146.312 11.6581 146.294 11.6127L146.145 11.2235C146.114 11.1442 146.101 11.0591 146.107 10.9743C146.112 10.8894 146.136 10.8068 146.177 10.7323C146.218 10.6567 146.275 10.5911 146.344 10.5402C146.414 10.4892 146.493 10.4542 146.578 10.4377L146.796 10.3904C146.917 10.3659 147.031 10.3172 147.132 10.2471C147.234 10.1771 147.32 10.0872 147.385 9.98292C147.452 9.87548 147.496 9.75538 147.514 9.63016C147.532 9.50494 147.524 9.37731 147.491 9.25532C147.419 9.02686 147.264 8.83377 147.056 8.71446C146.849 8.59514 146.604 8.55835 146.37 8.61139L137.686 10.4049L137.621 10.2885C137.273 9.6687 136.732 9.17904 136.081 8.89354C135.43 8.60804 134.704 8.54221 134.012 8.70598V8.71689ZM134.74 14.2794C134.285 14.2794 133.841 14.1453 133.463 13.8938C133.207 13.7259 132.986 13.5089 132.815 13.2554C132.643 13.0019 132.523 12.7168 132.462 12.4167C132.4 12.1174 132.397 11.8087 132.455 11.5084C132.512 11.208 132.628 10.922 132.797 10.6669C132.964 10.4102 133.181 10.1896 133.435 10.0178C133.688 9.84601 133.974 9.72655 134.274 9.66641C134.574 9.60309 134.883 9.60007 135.184 9.65754C135.485 9.715 135.772 9.83179 136.027 10.0011C136.283 10.1692 136.503 10.3862 136.675 10.6397C136.847 10.8932 136.967 11.1781 137.028 11.4781C137.09 11.7775 137.092 12.0862 137.035 12.3865C136.978 12.6868 136.861 12.9728 136.693 13.228C136.526 13.4846 136.309 13.7053 136.055 13.8771C135.802 14.0489 135.516 14.1683 135.216 14.2285C135.061 14.2638 134.902 14.2833 134.743 14.2867L134.74 14.2794ZM134.74 9.97928C134.604 9.97941 134.468 9.99404 134.336 10.0229C134.083 10.0739 133.842 10.1748 133.629 10.3197C133.415 10.4646 133.232 10.6507 133.092 10.867C132.949 11.0823 132.851 11.3236 132.802 11.5771C132.753 11.8306 132.755 12.0912 132.808 12.344C132.859 12.5968 132.961 12.8368 133.106 13.0504C133.25 13.2639 133.436 13.4467 133.652 13.5882C133.867 13.7312 134.109 13.8299 134.364 13.8786C134.618 13.9274 134.879 13.9251 135.132 13.8719C135.385 13.8202 135.625 13.719 135.839 13.5742C136.052 13.4293 136.235 13.2437 136.377 13.0279C136.519 12.8125 136.617 12.5712 136.666 12.3177C136.714 12.0642 136.713 11.8037 136.66 11.5509C136.609 11.2977 136.507 11.0571 136.362 10.843C136.218 10.6289 136.032 10.4454 135.816 10.3031C135.5 10.098 135.131 9.98811 134.754 9.98656L134.74 9.97928Z" fill="white"/>
<path opacity="0.6" d="M128.795 24.6911C131.178 24.6911 133.109 23.4598 133.109 21.9408C133.109 20.4219 131.178 19.1905 128.795 19.1905C126.412 19.1905 124.48 20.4219 124.48 21.9408C124.48 23.4598 126.412 24.6911 128.795 24.6911Z" fill="#06283D"/>
<path opacity="0.3" d="M121.926 25.8154C122.904 25.8154 123.697 25.3105 123.697 24.6877C123.697 24.0648 122.904 23.5599 121.926 23.5599C120.947 23.5599 120.154 24.0648 120.154 24.6877C120.154 25.3105 120.947 25.8154 121.926 25.8154Z" fill="#06283D"/>
</g>
<defs>
<clipPath id="clip0_12_19903">
<rect width="181.9" height="135.556" fill="white" transform="translate(0.550049)"/>
</clipPath>
</defs>
</svg>
