<svg width="21" height="20" viewBox="0 0 21 20" fill="none" xmlns="http://www.w3.org/2000/svg">
<path d="M10.5 17.4702C14.448 17.4702 17.6484 14.2698 17.6484 10.3218C17.6484 6.3738 14.448 3.17334 10.5 3.17334C6.55203 3.17334 3.35156 6.3738 3.35156 10.3218C3.35156 14.2698 6.55203 17.4702 10.5 17.4702Z" fill="#478CF7"/>
<path d="M4.11748 8.50614C4.093 8.50615 4.06886 8.5004 4.047 8.48937C4.02515 8.47833 4.0062 8.46232 3.99167 8.44261C3.97714 8.42291 3.96744 8.40006 3.96337 8.37593C3.95929 8.35179 3.96094 8.32703 3.96818 8.30364C4.43529 6.79489 5.42311 5.48278 6.74951 4.60903C6.78412 4.58741 6.82581 4.58018 6.86568 4.58888C6.90555 4.59759 6.94043 4.62154 6.96288 4.65561C6.98533 4.68969 6.99357 4.7312 6.98583 4.77126C6.97809 4.81133 6.95499 4.84678 6.92146 4.87005C5.65529 5.70403 4.71256 6.95622 4.26678 8.39599C4.25688 8.42786 4.23706 8.45574 4.2102 8.47556C4.18335 8.49538 4.15086 8.50609 4.11748 8.50614ZM7.37271 4.577C7.33784 4.57706 7.30395 4.56545 7.27644 4.54402C7.24893 4.52259 7.22937 4.49258 7.22089 4.45875C7.21241 4.42493 7.21549 4.38923 7.22964 4.35736C7.24379 4.32549 7.26819 4.29926 7.29896 4.28286L7.31201 4.27598C7.34856 4.25822 7.3906 4.25538 7.4292 4.26808C7.46781 4.28078 7.49995 4.30801 7.51882 4.34401C7.53768 4.38001 7.54179 4.42193 7.53027 4.46091C7.51874 4.49988 7.4925 4.53283 7.45709 4.55278L7.44607 4.55864C7.4235 4.57069 7.3983 4.577 7.37271 4.577Z" fill="#5E9CF7"/>
<path d="M15.1489 4.8916C16.2199 6.14152 16.8672 7.76527 16.8672 9.54043C16.8672 13.4884 13.6667 16.6889 9.71877 16.6889C7.94362 16.6889 6.31987 16.0416 5.06995 14.9705C6.38104 16.5004 8.32713 17.4701 10.5 17.4701C14.448 17.4701 17.6485 14.2696 17.6485 10.3217C17.6485 8.14887 16.6789 6.2027 15.1489 4.8916Z" fill="#377DE2"/>
<path d="M15.3553 5.07617C16.5359 6.35109 17.2578 8.05688 17.2578 9.93148C17.2578 13.8795 14.0573 17.0799 10.1093 17.0799C8.23473 17.0799 6.52895 16.358 5.25403 15.1774C6.55973 16.5875 8.42661 17.4705 10.5 17.4705C14.4479 17.4705 17.6484 14.2701 17.6484 10.3221C17.6484 8.24875 16.7654 6.38195 15.3553 5.07617Z" fill="#2266D3"/>
<path d="M19.483 10.1656C19.4342 7.30375 18.0467 4.76867 15.9202 3.15774C15.7434 3.02375 15.4897 3.06742 15.3642 3.25039L14.7565 4.13703C14.6381 4.30969 14.6786 4.54281 14.8445 4.67047C16.5382 5.97359 17.6304 8.01953 17.6304 10.3219C17.6304 14.2938 14.3829 17.5071 10.3984 17.4516C6.59437 17.3987 3.47438 14.3213 3.37219 10.5183C3.27492 6.8993 5.87555 3.87047 9.3082 3.29258V3.69969C9.3082 3.82555 9.44937 3.89977 9.55297 3.82844L11.624 2.40383C11.6449 2.38947 11.6619 2.37025 11.6737 2.34782C11.6855 2.32539 11.6917 2.30042 11.6917 2.27508C11.6917 2.24974 11.6855 2.22477 11.6737 2.20234C11.6619 2.17991 11.6449 2.16069 11.624 2.14633L9.55305 0.721642C9.44937 0.650314 9.30828 0.724532 9.30828 0.850392V1.41656C4.90977 1.99961 1.51562 5.76406 1.51562 10.3219C1.51562 15.3266 5.60773 19.3755 10.6286 19.3054C15.5277 19.2369 19.5666 15.0645 19.483 10.1656Z" fill="#FFC91D"/>
<path d="M16.65 3.77295C18.1649 5.38107 19.0937 7.54756 19.0937 9.93131C19.0937 14.936 15.0016 18.985 9.98073 18.9148C7.68456 18.8827 5.57722 17.949 3.99487 16.4615C5.61229 18.1744 7.88042 19.2706 10.3714 19.3055C15.3922 19.3756 19.4843 15.3266 19.4843 10.3219C19.4843 7.73943 18.3946 5.4117 16.65 3.77295Z" fill="#FFA91A"/>
<path d="M10.5 16.1562C13.6282 16.1562 16.1641 13.6204 16.1641 10.4922C16.1641 7.36401 13.6282 4.82812 10.5 4.82812C7.37182 4.82812 4.83594 7.36401 4.83594 10.4922C4.83594 13.6204 7.37182 16.1562 10.5 16.1562Z" fill="#F1F2F2"/>
<path d="M10.5 6.10059C10.4585 6.10059 10.4188 6.08412 10.3895 6.05482C10.3602 6.02552 10.3437 5.98578 10.3437 5.94434V5.28613C10.3437 5.24469 10.3602 5.20495 10.3895 5.17565C10.4188 5.14634 10.4585 5.12988 10.5 5.12988C10.5414 5.12988 10.5811 5.14634 10.6104 5.17565C10.6397 5.20495 10.6562 5.24469 10.6562 5.28613V5.94434C10.6562 5.98578 10.6397 6.02552 10.6104 6.05482C10.5811 6.08412 10.5414 6.10059 10.5 6.10059ZM10.5 15.8546C10.4585 15.8546 10.4188 15.8381 10.3895 15.8088C10.3602 15.7795 10.3437 15.7398 10.3437 15.6983V15.0401C10.3437 14.9987 10.3602 14.9589 10.3895 14.9296C10.4188 14.9003 10.4585 14.8839 10.5 14.8839C10.5414 14.8839 10.5811 14.9003 10.6104 14.9296C10.6397 14.9589 10.6562 14.9987 10.6562 15.0401V15.6983C10.6562 15.7398 10.6397 15.7795 10.6104 15.8088C10.5811 15.8381 10.5414 15.8546 10.5 15.8546ZM5.95215 10.6485H5.29395C5.25251 10.6485 5.21276 10.632 5.18346 10.6027C5.15416 10.5734 5.1377 10.5337 5.1377 10.4922C5.1377 10.4508 5.15416 10.411 5.18346 10.3817C5.21276 10.3524 5.25251 10.336 5.29395 10.336H5.95215C5.99359 10.336 6.03333 10.3524 6.06263 10.3817C6.09194 10.411 6.1084 10.4508 6.1084 10.4922C6.1084 10.5337 6.09194 10.5734 6.06263 10.6027C6.03333 10.632 5.99359 10.6485 5.95215 10.6485ZM15.7061 10.6485H15.0479C15.0065 10.6485 14.9667 10.632 14.9374 10.6027C14.9081 10.5734 14.8917 10.5337 14.8917 10.4922C14.8917 10.4508 14.9081 10.411 14.9374 10.3817C14.9667 10.3524 15.0065 10.336 15.0479 10.336H15.7061C15.7476 10.336 15.7873 10.3524 15.8166 10.3817C15.8459 10.411 15.8624 10.4508 15.8624 10.4922C15.8624 10.5337 15.8459 10.5734 15.8166 10.6027C15.7873 10.632 15.7476 10.6485 15.7061 10.6485Z" fill="#414042"/>
<path d="M10.4999 9.98365C10.573 9.98362 10.6451 9.99937 10.7115 10.0298C10.7779 10.0603 10.8369 10.1047 10.8846 10.1601L10.5596 5.50342C10.5545 5.4292 10.4454 5.4292 10.4403 5.50342L10.1154 10.1601C10.163 10.1047 10.222 10.0603 10.2884 10.0298C10.3548 9.99938 10.4269 9.98363 10.4999 9.98365ZM10.4999 11.0009C10.3878 11.0009 10.2787 10.9637 10.1899 10.8952C10.101 10.8267 10.0373 10.7307 10.0087 10.6222L8.69924 13.5201C8.66947 13.586 8.76026 13.6383 8.80237 13.5797L10.6777 10.9683C10.6209 10.9898 10.5607 11.0008 10.4999 11.0009Z" fill="#E63950"/>
<path d="M10.5 11.0012C10.7809 11.0012 11.0087 10.7735 11.0087 10.4926C11.0087 10.2116 10.7809 9.98389 10.5 9.98389C10.2191 9.98389 9.99133 10.2116 9.99133 10.4926C9.99133 10.7735 10.2191 11.0012 10.5 11.0012Z" fill="#414042"/>
</svg>
