<svg width="21" height="20" viewBox="0 0 21 20" fill="none" xmlns="http://www.w3.org/2000/svg">
<path d="M7.80005 17.5001H12.8M7.80005 17.5001H6.13338C4.29243 17.5001 2.80005 16.0076 2.80005 14.1667V8.92305C2.80005 7.75744 3.40889 6.67651 4.40571 6.07238L8.57237 3.54713C9.6343 2.90356 10.9658 2.90356 12.0277 3.54713L16.1944 6.07238C17.1912 6.67651 17.8 7.75744 17.8 8.92305V14.1667C17.8 16.0076 16.3076 17.5001 14.4667 17.5001H12.8H7.80005ZM7.80005 17.5001V14.1667C7.80005 12.786 8.9193 11.6667 10.3 11.6667C11.6808 11.6667 12.8 12.786 12.8 14.1667V17.5001H7.80005Z" stroke="#06283D" stroke-width="1.5" stroke-linecap="round" stroke-linejoin="round"/>
</svg>
