<svg width="41" height="40" viewBox="0 0 41 40" fill="none" xmlns="http://www.w3.org/2000/svg">
<g clip-path="url(#clip0_2042_2159)">
<path fill-rule="evenodd" clip-rule="evenodd" d="M21.4155 12.6732H20.2568C19.233 12.6732 18.4061 11.8407 18.4061 10.8226V9.43881C18.4061 9.18005 18.6142 8.97192 18.873 8.97192C19.1317 8.97192 19.3399 9.18005 19.3399 9.43881V10.8226C19.3399 11.3232 19.7505 11.7338 20.2568 11.7338H21.4155C21.9218 11.7338 22.3324 11.3232 22.3324 10.8226V9.43881C22.3324 9.18005 22.5405 8.97192 22.7993 8.97192C23.058 8.97192 23.2718 9.18005 23.2718 9.43881V10.8226C23.2718 11.8407 22.4393 12.6732 21.4155 12.6732Z" fill="#7AA9CC"/>
<path fill-rule="evenodd" clip-rule="evenodd" d="M21.4155 17.1002H20.2568C19.233 17.1002 18.4061 16.2733 18.4061 15.2496V13.8658C18.4061 13.6071 18.6142 13.3989 18.873 13.3989C19.1317 13.3989 19.3399 13.6071 19.3399 13.8658V15.2496C19.3399 15.7558 19.7505 16.1665 20.2568 16.1665H21.4155C21.9218 16.1665 22.3324 15.7558 22.3324 15.2496V13.8658C22.3324 13.6071 22.5405 13.3989 22.7993 13.3989C23.058 13.3989 23.2718 13.6071 23.2718 13.8658V15.2496C23.2718 16.2733 22.4393 17.1002 21.4155 17.1002Z" fill="#7AA9CC"/>
<path fill-rule="evenodd" clip-rule="evenodd" d="M21.4155 21.3473H20.2568C19.233 21.3473 18.4061 20.5204 18.4061 19.4967V18.1185C18.4061 17.8597 18.6142 17.646 18.873 17.646C19.1317 17.646 19.3399 17.8597 19.3399 18.1185V19.4967C19.3399 20.0029 19.7505 20.4135 20.2568 20.4135H21.4155C21.9218 20.4135 22.3324 20.0029 22.3324 19.4967V18.1185C22.3324 17.8597 22.5405 17.646 22.7993 17.646C23.058 17.646 23.2718 17.8597 23.2718 18.1185V19.4967C23.2718 20.5204 22.4393 21.3473 21.4155 21.3473Z" fill="#7AA9CC"/>
<path fill-rule="evenodd" clip-rule="evenodd" d="M21.4155 25.6786H20.2568C19.233 25.6786 18.4061 24.8461 18.4061 23.8279V22.4442C18.4061 22.1854 18.6142 21.9773 18.873 21.9773C19.1317 21.9773 19.3399 22.1854 19.3399 22.4442V23.8279C19.3399 24.3286 19.7505 24.7392 20.2568 24.7392H21.4155C21.9218 24.7392 22.3324 24.3286 22.3324 23.8279V22.4442C22.3324 22.1854 22.5405 21.9773 22.7993 21.9773C23.058 21.9773 23.2718 22.1854 23.2718 22.4442V23.8279C23.2718 24.8461 22.4393 25.6786 21.4155 25.6786Z" fill="#7AA9CC"/>
<path fill-rule="evenodd" clip-rule="evenodd" d="M21.4155 30.0043H20.2568C19.233 30.0043 18.4061 29.1774 18.4061 28.1536V26.7699C18.4061 26.5111 18.6142 26.303 18.873 26.303C19.1317 26.303 19.3399 26.5111 19.3399 26.7699V28.1536C19.3399 28.6599 19.7505 29.0705 20.2568 29.0705H21.4155C21.9218 29.0705 22.3324 28.6599 22.3324 28.1536V26.7699C22.3324 26.5111 22.5405 26.303 22.7993 26.303C23.058 26.303 23.2718 26.5111 23.2718 26.7699V28.1536C23.2718 29.1774 22.4393 30.0043 21.4155 30.0043Z" fill="#7AA9CC"/>
<path fill-rule="evenodd" clip-rule="evenodd" d="M10.0584 33.6718C10.0247 33.6718 9.98532 33.6718 9.95157 33.6605C9.69844 33.6043 9.54094 33.3512 9.60281 33.098C9.63094 32.9574 10.441 29.5824 12.3929 28.8848C13.2029 28.5923 14.0635 28.7892 14.9523 29.4642C20.2849 33.548 21.3874 33.548 26.7256 29.4642C27.6087 28.7892 28.4694 28.5923 29.285 28.8848C31.2369 29.5824 32.0413 32.9574 32.075 33.098C32.1313 33.3512 31.9738 33.6043 31.7263 33.6605C31.4732 33.7224 31.22 33.5649 31.1581 33.3118C30.9669 32.4736 30.1906 30.2011 28.9644 29.768C28.4637 29.588 27.9181 29.7342 27.2937 30.2124C24.4643 32.3724 22.6924 33.4749 20.8361 33.4749C18.9855 33.4749 17.2079 32.3724 14.3785 30.2124C13.7541 29.7342 13.2085 29.588 12.7079 29.768C11.4816 30.2067 10.711 32.4736 10.5141 33.3118C10.4635 33.5255 10.2722 33.6718 10.0584 33.6718Z" fill="#7AA9CC"/>
<path fill-rule="evenodd" clip-rule="evenodd" d="M13.0341 13.6633C12.4547 13.6633 11.8585 13.534 11.2679 13.2696C10.3285 12.8533 10.0978 12.2402 10.0641 11.8014C10.0022 10.9014 10.6997 9.83829 12.1904 8.56139C13.231 7.67825 14.2604 7.02574 14.3054 6.99762C14.5248 6.86262 14.8117 6.92449 14.9523 7.14387C15.0873 7.36325 15.0254 7.65575 14.806 7.79076C13.2929 8.7414 10.9247 10.6539 10.9978 11.7396C11.0091 11.8352 11.0316 12.1389 11.6504 12.4146C13.6304 13.2977 15.1829 12.1727 15.9704 10.8283C16.0998 10.6033 16.3867 10.5302 16.6117 10.6596C16.8367 10.7889 16.9098 11.0758 16.7804 11.3008C15.8804 12.8308 14.5135 13.6633 13.0341 13.6633Z" fill="#7AA9CC"/>
<path fill-rule="evenodd" clip-rule="evenodd" d="M11.2622 18.1354C10.7672 18.1354 10.3397 18.0229 9.9797 17.7922C8.51156 16.8641 8.90531 14.4734 8.92219 14.3722C8.96719 14.1191 9.20907 13.9503 9.46782 13.9953C9.72095 14.0403 9.8897 14.2822 9.85033 14.5353C9.76033 15.0528 9.69845 16.5097 10.4803 16.9991C11.026 17.3422 12.5054 17.5222 16.2911 14.8447C16.4992 14.6928 16.7917 14.7434 16.9436 14.9516C17.0898 15.1653 17.0392 15.4578 16.8311 15.6097C14.446 17.2972 12.6066 18.1354 11.2622 18.1354Z" fill="#7AA9CC"/>
<path fill-rule="evenodd" clip-rule="evenodd" d="M10.3003 21.8872C9.47346 21.8872 8.86595 21.6847 8.47782 21.2797C7.5103 20.2672 8.34282 18.5515 8.37657 18.4784C8.49469 18.2477 8.77595 18.1521 9.00658 18.2702C9.23721 18.3827 9.33283 18.664 9.22033 18.8946C9.20908 18.9171 8.64657 20.104 9.15283 20.6328C9.50721 20.9928 10.9247 21.5665 16.5273 19.069C16.7636 18.9621 17.0392 19.069 17.1461 19.3053C17.253 19.5415 17.1461 19.8171 16.9098 19.924C13.9679 21.2347 11.7797 21.8872 10.3003 21.8872Z" fill="#7AA9CC"/>
<path fill-rule="evenodd" clip-rule="evenodd" d="M9.54096 26.5168C9.13595 26.5168 8.7872 26.4268 8.49469 26.2524C7.29655 25.5268 7.63406 23.7155 7.65093 23.6424C7.70156 23.3836 7.94344 23.2205 8.20219 23.2711C8.45532 23.3217 8.61845 23.5636 8.57345 23.8167C8.56782 23.8336 8.35407 25.0711 8.97845 25.448C9.45096 25.7349 11.0991 25.9374 16.3023 21.7861C16.5048 21.623 16.7973 21.6567 16.9605 21.8592C17.1236 22.0617 17.0898 22.3542 16.8873 22.5173C13.5291 25.1949 11.1104 26.5168 9.54096 26.5168Z" fill="#7AA9CC"/>
<path fill-rule="evenodd" clip-rule="evenodd" d="M28.6381 13.6633C27.1587 13.6633 25.7918 12.8308 24.8975 11.3008C24.7625 11.0758 24.8412 10.7889 25.0606 10.6596C25.2856 10.5302 25.5725 10.6033 25.7018 10.8283C26.495 12.1727 28.0419 13.2977 30.0219 12.4146C30.6463 12.1389 30.6688 11.8352 30.6744 11.7396C30.7475 10.7102 28.4919 8.81452 26.8719 7.79076C26.6525 7.65575 26.585 7.36325 26.72 7.14387C26.8606 6.92449 27.1475 6.86262 27.3669 6.99762C27.4119 7.02574 28.4469 7.67825 29.4819 8.56139C30.9782 9.84391 31.6701 10.9014 31.6082 11.8014C31.5801 12.2402 31.3438 12.8533 30.4044 13.2696C29.8138 13.534 29.2175 13.6633 28.6381 13.6633Z" fill="#7AA9CC"/>
<path fill-rule="evenodd" clip-rule="evenodd" d="M30.41 18.1354C29.0713 18.1354 27.2319 17.2972 24.8412 15.6097C24.6331 15.4578 24.5825 15.1653 24.7343 14.9516C24.8806 14.7434 25.1731 14.6928 25.3868 14.8447C29.1669 17.5222 30.6463 17.3422 31.1919 16.9991C31.9738 16.5097 31.9176 15.0528 31.8276 14.5353C31.7826 14.2822 31.9513 14.0347 32.2101 13.9953C32.4632 13.9503 32.7051 14.1191 32.7501 14.3722C32.767 14.4734 33.1663 16.8641 31.6982 17.7922C31.3326 18.0229 30.905 18.1354 30.41 18.1354Z" fill="#7AA9CC"/>
<path fill-rule="evenodd" clip-rule="evenodd" d="M31.3719 21.8872C29.8925 21.8872 27.7044 21.2347 24.7624 19.924C24.5262 19.8171 24.4193 19.5415 24.5262 19.3053C24.6331 19.069 24.9087 18.9621 25.1449 19.069C30.7532 21.5722 32.1707 20.9928 32.5194 20.6272C32.9469 20.1828 32.6094 19.204 32.4576 18.8946C32.3394 18.664 32.4351 18.3827 32.6657 18.2702C32.9019 18.1521 33.1832 18.2477 33.2957 18.4784C33.3294 18.5515 34.1676 20.2672 33.2001 21.2797C32.8063 21.6847 32.1988 21.8872 31.3719 21.8872Z" fill="#7AA9CC"/>
<path fill-rule="evenodd" clip-rule="evenodd" d="M32.1313 26.5168C30.5675 26.5168 28.1431 25.1949 24.7906 22.5173C24.5881 22.3542 24.5543 22.0617 24.7118 21.8592C24.875 21.6567 25.1731 21.623 25.3756 21.7861C30.5788 25.9374 32.2269 25.7293 32.6938 25.448C33.3238 25.0711 33.1045 23.828 33.1045 23.8167C33.0538 23.5636 33.2226 23.3161 33.4757 23.2711C33.7288 23.2205 33.9763 23.3836 34.0213 23.6367C34.0382 23.7155 34.3757 25.5268 33.1832 26.2524C32.8907 26.4268 32.5363 26.5168 32.1313 26.5168Z" fill="#7AA9CC"/>
<path fill-rule="evenodd" clip-rule="evenodd" d="M34.7751 37.148H27.53C27.2712 37.148 27.0631 36.9398 27.0631 36.6811C27.0631 36.4223 27.2712 36.2142 27.53 36.2142H34.7751C36.0295 36.2142 37.0476 35.1961 37.0476 33.9417V25.5603C37.0476 25.3015 37.2558 25.0934 37.5145 25.0934C37.7733 25.0934 37.9814 25.3015 37.9814 25.5603V33.9417C37.9814 35.7136 36.547 37.148 34.7751 37.148ZM14.1367 37.148H6.89154C5.11964 37.148 3.68524 35.7136 3.68524 33.9417V25.5603C3.68524 25.3015 3.89337 25.0934 4.15212 25.0934C4.41088 25.0934 4.61901 25.3015 4.61901 25.5603V33.9417C4.61901 35.1961 5.63715 36.2142 6.89154 36.2142H14.1367C14.3954 36.2142 14.6035 36.4223 14.6035 36.6811C14.6035 36.9398 14.3954 37.148 14.1367 37.148ZM37.5145 12.6338C37.2558 12.6338 37.0476 12.4257 37.0476 12.167V6.05811C37.0476 4.80371 36.0295 3.78557 34.7751 3.78557H27.53C27.2712 3.78557 27.0631 3.57744 27.0631 3.31869C27.0631 3.05993 27.2712 2.85181 27.53 2.85181H34.7751C36.547 2.85181 37.9814 4.2862 37.9814 6.05811V12.167C37.9814 12.4257 37.7733 12.6338 37.5145 12.6338ZM4.15212 12.6338C3.89337 12.6338 3.68524 12.4257 3.68524 12.167V6.05811C3.68524 4.2862 5.11964 2.85181 6.89154 2.85181H14.1367C14.3954 2.85181 14.6035 3.05993 14.6035 3.31869C14.6035 3.57744 14.3954 3.78557 14.1367 3.78557H6.89154C5.63715 3.78557 4.61901 4.80371 4.61901 6.05811V12.167C4.61901 12.4257 4.41088 12.6338 4.15212 12.6338Z" fill="#7AA9CC"/>
<path fill-rule="evenodd" clip-rule="evenodd" d="M37.1601 40H4.51212C2.48146 40 0.833313 38.3518 0.833313 36.3268V3.67881C0.833313 1.64815 2.48146 0 4.51212 0H37.1601C39.1852 0 40.8333 1.64815 40.8333 3.67881V36.3268C40.8333 38.3518 39.1852 40 37.1601 40ZM4.51212 0.93939C2.99897 0.93939 1.7727 2.16566 1.7727 3.67881V36.3268C1.7727 37.8343 2.99897 39.0606 4.51212 39.0606H37.1601C38.6676 39.0606 39.8939 37.8343 39.8939 36.3268V3.67881C39.8939 2.16566 38.6676 0.93939 37.1601 0.93939H4.51212Z" fill="#7AA9CC"/>
</g>
<defs>
<clipPath id="clip0_2042_2159">
<rect width="40" height="40" fill="white" transform="translate(0.833313)"/>
</clipPath>
</defs>
</svg>
