<svg width="97" height="96" viewBox="0 0 97 96" fill="none" xmlns="http://www.w3.org/2000/svg">
<g clip-path="url(#clip0_172_8119)">
<path d="M94.4487 19.3369C92.6431 11.1844 84.74 3.71627 76.565 2.13002C71.5831 1.1344 57.6875 -0.0956033 48.5 2.16998e-05C39.3125 -0.101228 25.4188 1.12502 20.4369 2.1244C12.2619 3.71627 4.35875 11.1844 2.5625 19.3369C1.52562 24.2869 0.515 31.0219 0.5 40.215C0.515 49.4025 1.52562 56.1394 2.5625 61.0913C4.36812 69.2438 12.2712 76.7119 20.4462 78.2981C23.135 78.8344 28.4244 79.4419 34.1656 79.8694C34.8156 80.8906 35.5219 81.9781 36.2844 83.1319C39.3313 87.7481 41.6619 90.9638 43.43 93.2044C46.37 96.9319 50.6488 96.9319 53.5888 93.2044C55.3569 90.9638 57.6875 87.7481 60.7344 83.1319C61.4969 81.9794 62.2031 80.8919 62.8531 79.8694C68.5962 79.4419 73.8838 78.8344 76.5744 78.2981C84.7494 76.7119 92.6525 69.2438 94.4581 61.0913C95.4856 56.1394 96.4944 49.4063 96.5112 40.215C96.485 31.02 95.4762 24.2888 94.4487 19.3369Z" fill="#052133"/>
<path d="M48.5 2.16998e-05C39.3125 -0.101228 25.4188 1.12502 20.4369 2.1244C12.2619 3.71627 4.35875 11.1844 2.5625 19.3369C1.52562 24.2869 0.515 31.0219 0.5 40.215C0.515 49.4025 1.52562 56.1394 2.5625 61.0913C3.62563 65.8894 6.80187 70.4513 10.9025 73.7156C14.9025 74.6733 19.0014 75.1561 23.1144 75.1538C51.92 75.1538 75.2712 51.8025 75.2712 22.9988C75.2779 15.4974 73.6595 8.08371 70.5275 1.26752C64.1206 0.547522 55.0981 -0.0674783 48.5 2.16998e-05Z" fill="#06283D"/>
<path d="M51.0534 60.3027C50.9718 60.6836 50.7811 61.0328 50.5043 61.3082C50.2276 61.5835 49.8766 61.7733 49.4937 61.8545C48.2242 62.0485 46.9322 62.0485 45.6627 61.8545C45.2798 61.7734 44.9287 61.5837 44.6519 61.3083C44.3751 61.0329 44.1844 60.6836 44.103 60.3027C43.9063 59.0392 43.9063 57.7532 44.103 56.4898C44.1844 56.1088 44.3751 55.7595 44.6519 55.4841C44.9287 55.2087 45.2798 55.019 45.6627 54.9379C46.9322 54.7439 48.2242 54.7439 49.4937 54.9379C49.8772 55.0195 50.2287 55.21 50.5055 55.4863C50.7823 55.7626 50.9727 56.1129 51.0534 56.4946C51.2501 57.7581 51.2501 59.0441 51.0534 60.3076V60.3027ZM58.5361 40.2733C57.5872 41.6087 56.1652 42.8279 54.061 44.1082C51.3976 45.742 50.9711 46.4133 50.9711 47.7279V48.2476C50.9797 48.697 50.8981 49.1435 50.7312 49.5612C50.5643 49.9788 50.3154 50.3592 49.9991 50.68C49.6827 51.0008 49.3052 51.2556 48.8887 51.4296C48.4722 51.6036 48.025 51.6932 47.5733 51.6932C47.1216 51.6932 46.6744 51.6036 46.2579 51.4296C45.8413 51.2556 45.4639 51.0008 45.1475 50.68C44.8311 50.3592 44.5822 49.9788 44.4153 49.5612C44.2484 49.1435 44.1669 48.697 44.1755 48.2476V47.0431C44.1755 45.4925 44.5651 44.1767 45.3665 43.0211C46.1432 41.9009 47.3084 40.9055 49.0341 39.8844C52.2162 38.022 52.7987 36.9765 52.7987 35.5885C52.7987 33.8447 51.3054 32.7172 48.9886 32.7172C46.4579 32.7172 44.8097 33.8618 44.0907 36.1205C43.8577 36.8471 43.3974 37.4806 42.777 37.9285C42.1565 38.3764 41.4084 38.6153 40.6419 38.6102C40.5534 38.6102 40.4636 38.6102 40.3764 38.6004C39.8257 38.5618 39.2912 38.3985 38.8136 38.123C38.336 37.8475 37.928 37.467 37.6208 37.0107C37.3138 36.5625 37.1139 36.0504 37.0364 35.5135C36.9588 34.9767 37.0057 34.4293 37.1734 33.9132C37.9108 31.5614 39.4232 29.5254 41.4666 28.1339C43.5265 26.7374 46.1285 26 48.9886 26C51.9593 26 54.7161 26.9428 56.7515 28.6548C58.8471 30.4158 59.9999 32.8456 59.9999 35.4956C60.0061 37.3176 59.5255 38.8854 58.5361 40.2733Z" fill="white"/>
</g>
<defs>
<clipPath id="clip0_172_8119">
<rect width="96" height="96" fill="white" transform="translate(0.5)"/>
</clipPath>
</defs>
</svg>
