<svg width="41" height="40" viewBox="0 0 41 40" fill="none" xmlns="http://www.w3.org/2000/svg">
<path d="M6.3672 40H27.7578C27.9844 40 28.1719 39.8125 28.1719 39.5859C28.1719 39.3594 27.9844 39.1719 27.7578 39.1719H6.3672C5.90627 39.1719 5.53908 38.7969 5.53908 38.3359V6.10938C5.53908 5.64844 5.91408 5.28125 6.3672 5.28125H9.39064C9.6172 5.28125 9.8047 5.09375 9.8047 4.86719C9.8047 4.64062 9.6172 4.45312 9.39064 4.45312H6.3672C5.45314 4.45312 4.70314 5.19531 4.70314 6.11719V38.3438C4.70314 39.25 5.44533 40 6.3672 40ZM32.9453 21.1953C33.1719 21.1953 33.3594 21.0078 33.3594 20.7812V6.10938C33.3594 5.19531 32.6172 4.44531 31.6953 4.44531H28.6719C28.4453 4.44531 28.2578 4.63281 28.2578 4.85938C28.2578 5.08594 28.4453 5.27344 28.6719 5.27344H31.6953C32.1563 5.27344 32.5235 5.64844 32.5235 6.10156V20.7812C32.5313 21.0078 32.7188 21.1953 32.9453 21.1953ZM9.38283 6.94531H8.44533C7.75783 6.94531 7.19533 7.50781 7.19533 8.19531V36.2578C7.19533 36.9453 7.75783 37.5078 8.44533 37.5078H26.586C26.8125 37.5078 27 37.3203 27 37.0938C27 36.8672 26.8125 36.6797 26.586 36.6797H8.44533C8.21876 36.6797 8.03127 36.4922 8.03127 36.2656V8.19531C8.03127 7.96875 8.21876 7.78125 8.44533 7.78125H9.38283C9.60939 7.78125 9.79689 7.59375 9.79689 7.36719C9.8047 7.125 9.6172 6.94531 9.38283 6.94531ZM30.4531 21.1953C30.6797 21.1953 30.8672 21.0078 30.8672 20.7812V8.19531C30.8672 7.50781 30.3047 6.94531 29.6172 6.94531H28.6719C28.4453 6.94531 28.2578 7.13281 28.2578 7.35938C28.2578 7.58594 28.4453 7.77344 28.6719 7.77344H29.6172C29.8438 7.77344 30.0313 7.96094 30.0313 8.1875V20.7812C30.0313 21.0078 30.2188 21.1953 30.4531 21.1953ZM27.4297 7.49219V4.72656C27.4297 3.85938 26.7266 3.15625 25.8594 3.15625H23.5781C23.0469 3.15625 22.5703 2.82031 22.3828 2.32812C21.8672 0.9375 20.5235 0 19.0313 0C17.5391 0 16.1953 0.9375 15.6797 2.33594C15.5 2.82812 15.0156 3.16406 14.4844 3.16406H12.2031C11.336 3.16406 10.6328 3.86719 10.6328 4.73438V7.49219C10.6328 8.35938 11.336 9.0625 12.2031 9.0625H25.8594C26.7266 9.05469 27.4297 8.35156 27.4297 7.49219ZM11.4688 7.49219V4.72656C11.4688 4.32031 11.7969 3.99219 12.2031 3.99219H14.4844C15.3594 3.99219 16.1563 3.4375 16.461 2.61719C16.8594 1.54688 17.8906 0.828125 19.0313 0.828125C20.1719 0.828125 21.211 1.54688 21.6094 2.61719C21.9141 3.4375 22.711 3.99219 23.586 3.99219H25.8672C26.2735 3.99219 26.6016 4.32031 26.6016 4.72656V7.48438C26.6016 7.89062 26.2735 8.21875 25.8672 8.21875H12.2031C11.7969 8.22656 11.4688 7.89844 11.4688 7.49219ZM19.0313 1.91406C18.2656 1.91406 17.6485 2.53906 17.6485 3.29688C17.6485 4.0625 18.2656 4.67969 19.0313 4.67969C19.7969 4.67969 20.4141 4.05469 20.4141 3.29688C20.4141 2.53906 19.7969 1.91406 19.0313 1.91406ZM19.0313 3.85938C18.7266 3.85938 18.4844 3.60938 18.4844 3.30469C18.4844 3 18.7344 2.75 19.0313 2.75C19.336 2.75 19.586 3 19.586 3.30469C19.586 3.60938 19.336 3.85938 19.0313 3.85938ZM15.6875 12.8672C15.461 12.8672 15.2735 13.0547 15.2735 13.2812V17.1953H11.3594C11.1328 17.1953 10.9453 17.3828 10.9453 17.6094C10.9453 20.2266 13.0703 22.3516 15.6875 22.3516C18.3047 22.3516 20.4297 20.2266 20.4297 17.6094C20.4297 14.9922 18.3047 12.8672 15.6875 12.8672ZM15.6875 21.5234C13.6719 21.5234 12.0078 19.9922 11.7969 18.0312H15.6875C15.9141 18.0312 16.1016 17.8438 16.1016 17.6172V13.7266C18.0625 13.9375 19.5938 15.6016 19.5938 17.6172C19.6016 19.7656 17.8438 21.5234 15.6875 21.5234ZM9.69533 16.3594H14.0235C14.25 16.3594 14.4375 16.1719 14.4375 15.9453V11.6172C14.4375 11.3906 14.25 11.2031 14.0235 11.2031C11.4063 11.2031 9.28126 13.3281 9.28126 15.9453C9.28126 16.1719 9.46876 16.3594 9.69533 16.3594ZM13.6094 12.0547V15.5234H10.1406C10.3281 13.7031 11.7813 12.25 13.6094 12.0547ZM28.3672 13.6406H23.0078C22.7813 13.6406 22.5938 13.8281 22.5938 14.0547C22.5938 14.2812 22.7813 14.4688 23.0078 14.4688H28.3672C28.5938 14.4688 28.7813 14.2812 28.7813 14.0547C28.7813 13.8281 28.6016 13.6406 28.3672 13.6406ZM28.3672 16.3594H23.0078C22.7813 16.3594 22.5938 16.5469 22.5938 16.7734C22.5938 17 22.7813 17.1875 23.0078 17.1875H28.3672C28.5938 17.1875 28.7813 17 28.7813 16.7734C28.7813 16.5469 28.6016 16.3594 28.3672 16.3594ZM28.7813 19.4922C28.7813 19.2656 28.5938 19.0781 28.3672 19.0781H23.0078C22.7813 19.0781 22.5938 19.2656 22.5938 19.4922C22.5938 19.7188 22.7813 19.9062 23.0078 19.9062H28.3672C28.6016 19.9141 28.7813 19.7266 28.7813 19.4922ZM9.28126 24.8984C9.28126 25.125 9.46876 25.3125 9.69533 25.3125H25.9141C26.1406 25.3125 26.3281 25.125 26.3281 24.8984C26.3281 24.6719 26.1406 24.4844 25.9141 24.4844H9.69533C9.46876 24.4844 9.28126 24.6719 9.28126 24.8984ZM26.5235 28.2422H9.69533C9.46876 28.2422 9.28126 28.4297 9.28126 28.6562C9.28126 28.8828 9.46876 29.0703 9.69533 29.0703H26.5235C26.75 29.0703 26.9375 28.8828 26.9375 28.6562C26.9453 28.4297 26.7578 28.2422 26.5235 28.2422ZM9.69533 32.8359H18.0625C18.2891 32.8359 18.4766 32.6484 18.4766 32.4219C18.4766 32.1953 18.2891 32.0078 18.0625 32.0078H9.69533C9.46876 32.0078 9.28126 32.1953 9.28126 32.4219C9.28126 32.6484 9.46876 32.8359 9.69533 32.8359ZM31.4453 40C33.4688 40 35.1172 38.3516 35.1172 36.3281C35.1172 33.6406 35.1172 27.4062 35.1172 24.5859C35.7735 24.5313 36.2969 23.9844 36.2969 23.3125C36.2969 22.6016 35.7188 22.0312 35.0156 22.0312H27.875C27.1641 22.0312 26.5938 22.6094 26.5938 23.3125C26.5938 23.9844 27.1172 24.5313 27.7735 24.5859V36.3281C27.7735 38.3672 29.4375 40 31.4453 40ZM34.2813 32.6328H28.6094V24.5938H34.2813V32.6328ZM28.1875 23.7578H27.875C27.625 23.7578 27.4219 23.5547 27.4219 23.3047C27.4219 23.0547 27.625 22.8516 27.875 22.8516H35.0156C35.2656 22.8516 35.4688 23.0547 35.4688 23.3047C35.4688 23.5547 35.2656 23.7578 35.0156 23.7578H34.7031C34.7031 23.7578 34.7031 23.7578 34.6953 23.7578H28.1875ZM28.6094 33.4609H34.2813V36.3281C34.2813 37.8906 33.0078 39.1641 31.4453 39.1641C29.875 39.1641 28.6094 37.8906 28.6094 36.3281V33.4609Z" fill="#E6A88A"/>
</svg>
