<svg width="41" height="40" viewBox="0 0 41 40" fill="none" xmlns="http://www.w3.org/2000/svg">
<g clip-path="url(#clip0_2042_1305)">
<path d="M18.8989 2.74121C22.4226 -0.745259 28.0991 -0.707121 31.5766 2.81641C35.0545 6.34033 35.0269 12.0167 31.5034 15.4941L31.5024 15.4951L23.8979 23.1182L23.8872 23.1289L23.8794 23.1416C23.8468 23.1905 23.8147 23.2287 23.7758 23.2676C23.737 23.3065 23.6988 23.3385 23.6499 23.3711L23.6372 23.3789L23.6264 23.3896L16.0122 31.0322L16.0034 31.041C12.58 34.4195 7.15342 34.5248 3.61374 31.3574L3.2778 31.041C-0.108769 27.6541 -0.222887 22.2212 2.95163 18.6982L3.26901 18.3633L10.8921 10.749L10.9067 10.7344L10.9174 10.7168C10.9882 10.5911 11.0896 10.4887 11.2153 10.418L11.2339 10.4082L11.2475 10.3936L18.8247 2.81641C18.8387 2.80238 18.8511 2.79099 18.8628 2.7793C18.8744 2.7677 18.885 2.75511 18.8989 2.74121ZM11.5317 12.3232L4.38425 19.4707C1.51084 22.3635 1.51079 27.0321 4.38425 29.9248L4.38522 29.9258C7.29689 32.8088 11.9837 32.7987 14.895 29.9258L14.896 29.9248L21.9966 22.8066L22.102 22.7002L21.9956 22.5947L11.7436 12.3232L11.6382 12.2178L11.5317 12.3232ZM30.396 3.91406C27.5124 1.03056 22.8244 1.03052 19.9409 3.91406L12.7446 11.1104L12.8501 11.2168L23.103 21.4688L23.2094 21.5752L23.3149 21.4688L30.396 14.3691C33.2795 11.4856 33.2795 6.79762 30.396 3.91406Z" fill="#815C99" stroke="white" stroke-width="0.3"/>
<path d="M23.0309 6.90131C22.6754 6.52715 22.0861 6.51779 21.712 6.89196L18.4754 10.0724C18.1012 10.4372 18.1012 11.0265 18.4567 11.3913C18.8121 11.7562 19.4108 11.7655 19.7756 11.4101L19.785 11.4007L23.0122 8.22026C23.3864 7.85545 23.3864 7.26613 23.0309 6.90131Z" fill="#815C99"/>
<path d="M25.2035 24.5273C28.6899 21.0875 34.3012 21.1255 37.7318 24.6113L37.7416 24.6211C41.1104 27.9988 41.2158 33.4056 38.0492 36.9102L37.7328 37.2432C34.2461 40.7207 28.588 40.7207 25.1107 37.2344C21.6332 33.7477 21.6338 28.099 25.1205 24.6123C25.1485 24.5843 25.1755 24.5553 25.2035 24.5273ZM37.0306 26.4297L26.9379 36.5234L26.8168 36.6436L26.9525 36.748C29.8744 38.9919 34.0183 38.7248 36.6254 36.1182C39.2419 33.5112 39.5097 29.3665 37.2562 26.4443L37.1517 26.3096L37.0306 26.4297ZM31.431 23.5703C27.3727 23.5703 24.0785 26.8645 24.0785 30.9229C24.0785 32.5368 24.6128 34.1126 25.5961 35.4014L25.7006 35.5371L25.8217 35.416L35.9144 25.3135L36.0355 25.1924L35.8998 25.0889C34.6201 24.1053 33.0448 23.5703 31.431 23.5703Z" fill="#815C99" stroke="white" stroke-width="0.3"/>
</g>
<defs>
<clipPath id="clip0_2042_1305">
<rect width="40" height="40" fill="white" transform="translate(0.500015)"/>
</clipPath>
</defs>
</svg>
