<svg width="14" height="14" viewBox="0 0 14 14" fill="none" xmlns="http://www.w3.org/2000/svg">
<path d="M10.5081 12.9189H4.10253C2.1394 12.9189 0.547974 11.244 0.547974 9.17781V2.43612C0.547974 1.76295 1.06646 1.21729 1.70603 1.21729H10.5081C11.1477 1.21729 11.6662 1.76298 11.6662 2.43612V11.7001C11.6662 12.3732 11.1477 12.9189 10.5081 12.9189Z" fill="#F7EF87"/>
<path d="M11.6662 2.43627C11.6662 2.3594 11.6591 2.28431 11.6461 2.21141C11.6272 2.21071 11.6083 2.20996 11.5893 2.20996C11.1665 2.20996 10.7691 2.3832 10.4702 2.69781L5.67046 7.74941C5.29833 8.14107 5.05108 8.63597 4.9554 9.18065L4.75718 10.3095C4.68608 10.7143 4.78858 11.1277 5.03843 11.4438C5.28902 11.7607 5.65626 11.9425 6.04604 11.9425H6.04609C6.12626 11.9425 6.20717 11.9347 6.28661 11.9192L7.35919 11.7106C7.87669 11.6099 8.34694 11.3497 8.71908 10.958L11.6662 7.8563V2.43627Z" fill="#EED076"/>
<path d="M3.97682 4.82348C4.41093 4.82348 4.76285 4.52852 4.76285 4.16467C4.76285 3.80082 4.41093 3.50586 3.97682 3.50586C3.54271 3.50586 3.1908 3.80082 3.1908 4.16467C3.1908 4.52852 3.54271 4.82348 3.97682 4.82348Z" fill="#E8899E"/>
<path d="M8.23732 4.82348C8.67143 4.82348 9.02335 4.52852 9.02335 4.16467C9.02335 3.80082 8.67143 3.50586 8.23732 3.50586C7.80321 3.50586 7.45129 3.80082 7.45129 4.16467C7.45129 4.52852 7.80321 4.82348 8.23732 4.82348Z" fill="#E8899E"/>
<path d="M10.2321 4.08447L12.1989 6.15446L11.3408 7.05755L9.37402 4.98751L10.2321 4.08447Z" fill="#8EA3E2"/>
<path d="M12.9781 4.11979L12.1676 3.26676C11.8482 2.93061 11.3304 2.93061 11.011 3.26676L10.2325 4.0861L12.1996 6.1564L12.9781 5.33707C13.2975 5.00092 13.2975 4.45592 12.9781 4.11979Z" fill="#E8899E"/>
<path d="M7.22027 10.9188L6.14769 11.1275C5.76992 11.201 5.43944 10.8532 5.50926 10.4556L5.70751 9.32669C5.77461 8.94466 5.95027 8.59304 6.21129 8.31832L9.37437 4.98926L11.3415 7.05956L8.17837 10.3886C7.91735 10.6633 7.58326 10.8482 7.22027 10.9188Z" fill="white"/>
<path d="M6.66886 9.15364L6.99815 9.27875C7.05969 9.30213 7.11559 9.33949 7.16186 9.38819C7.20813 9.43688 7.24363 9.49571 7.26584 9.56049L7.38471 9.90705C7.40692 9.97183 7.44243 10.0307 7.48869 10.0794C7.53496 10.1281 7.59086 10.1654 7.6524 10.1888L8.17839 10.3886L11.3415 7.05956L9.37438 4.98926L6.2113 8.31832L6.40117 8.8719C6.42338 8.93668 6.45888 8.99551 6.50515 9.0442C6.55142 9.0929 6.60732 9.13026 6.66886 9.15364Z" fill="#A3DEFE"/>
<path d="M7.81186 6.63379L6.2113 8.31833L6.40117 8.87192C6.42338 8.93669 6.45889 8.99552 6.50516 9.04421C6.55142 9.09291 6.60732 9.13028 6.66886 9.15366L6.99815 9.27877C7.05969 9.30214 7.11559 9.33951 7.16186 9.3882C7.20813 9.4369 7.24363 9.49573 7.26584 9.56051L7.38471 9.90707C7.40692 9.97185 7.44243 10.0307 7.48869 10.0794C7.53496 10.1281 7.59086 10.1654 7.6524 10.1888L8.17839 10.3886L8.5582 9.9889C7.81273 9.17531 7.69691 7.70122 7.81186 6.63379Z" fill="#7ACEFA"/>
<path d="M5.66619 9.56201L5.50926 10.4556C5.43944 10.8532 5.76992 11.2011 6.14769 11.1276L6.99676 10.9624L5.66619 9.56201Z" fill="#4E5660"/>
<path d="M0.547974 9.17788C0.547974 11.244 2.1394 12.919 4.10253 12.919H5.1614C4.44296 12.919 3.86054 12.306 3.86054 11.5498V10.3781C3.86054 9.85593 3.45832 9.43261 2.96216 9.43261H1.84884C1.13039 9.43261 0.547974 8.81963 0.547974 8.06348V9.17788Z" fill="#EED076"/>
<path d="M9.84958 12.7177H5.16141C4.54954 12.7177 4.05173 12.1938 4.05173 11.5498V10.3781C4.05173 9.7458 3.56297 9.23136 2.96217 9.23136H1.84887C1.23701 9.23136 0.739195 8.70745 0.739195 8.06346V2.43617C0.739195 2.01928 0.9764 1.64887 1.34351 1.49248C1.39052 1.47245 1.42804 1.43359 1.44782 1.38445C1.46761 1.3353 1.46803 1.2799 1.449 1.23043C1.42997 1.18096 1.39305 1.14147 1.34636 1.12065C1.29966 1.09983 1.24702 1.09938 1.20002 1.11941C0.687803 1.33764 0.356812 1.8545 0.356812 2.43617V9.17789C0.356812 11.3517 2.03713 13.1202 4.10254 13.1202H9.84958C9.90029 13.1202 9.94892 13.099 9.98478 13.0612C10.0206 13.0235 10.0408 12.9723 10.0408 12.919C10.0408 12.8656 10.0206 12.8144 9.98478 12.7767C9.94892 12.7389 9.90029 12.7177 9.84958 12.7177ZM4.10254 12.7177C2.24798 12.7177 0.739195 11.1298 0.739195 9.17789V9.11189C1.01255 9.43205 1.40867 9.63384 1.84887 9.63384H2.96217C3.3521 9.63384 3.66935 9.96771 3.66935 10.3781V11.5498C3.66935 12.0131 3.86108 12.4301 4.16527 12.7178H4.10254V12.7177ZM7.67502 3.51344C7.67502 3.41868 7.74828 3.34157 7.83832 3.34157C7.92836 3.34157 8.00163 3.41868 8.00163 3.51344C8.00163 3.56681 8.02177 3.618 8.05762 3.65573C8.09348 3.69347 8.14211 3.71467 8.19282 3.71467C8.24352 3.71467 8.29216 3.69347 8.32801 3.65573C8.36387 3.618 8.38401 3.56681 8.38401 3.51344C8.38401 3.19677 8.13921 2.93912 7.83832 2.93912C7.53744 2.93912 7.29264 3.19677 7.29264 3.51344C7.29264 3.56681 7.31278 3.618 7.34863 3.65573C7.38449 3.69347 7.43312 3.71467 7.48383 3.71467C7.53453 3.71467 7.58317 3.69347 7.61902 3.65573C7.65488 3.618 7.67502 3.56681 7.67502 3.51344ZM6.10709 3.93307C6.21798 3.93303 6.32756 3.90798 6.42848 3.85962C6.52939 3.81125 6.61928 3.74068 6.69209 3.65267C6.7254 3.61243 6.74217 3.55991 6.73869 3.50667C6.73522 3.45342 6.71179 3.40381 6.67356 3.36875C6.63533 3.33369 6.58543 3.31605 6.53484 3.3197C6.48425 3.32336 6.43711 3.34802 6.4038 3.38826C6.32888 3.47875 6.22074 3.53064 6.10707 3.53064C5.9934 3.53064 5.88526 3.47875 5.81034 3.38826C5.77679 3.34889 5.72988 3.325 5.67973 3.32175C5.62958 3.3185 5.58023 3.33615 5.54235 3.37089C5.50447 3.40563 5.48111 3.45467 5.47731 3.5074C5.47351 3.56013 5.48958 3.61231 5.52205 3.65267C5.59487 3.74068 5.68477 3.81124 5.78569 3.85961C5.88661 3.90798 5.9962 3.93303 6.10709 3.93307ZM4.62612 3.52241V3.20045C4.62612 3.14708 4.60598 3.0959 4.57012 3.05816C4.53427 3.02042 4.48564 2.99922 4.43493 2.99922C4.38422 2.99922 4.33559 3.02042 4.29974 3.05816C4.26388 3.0959 4.24374 3.14708 4.24374 3.20045V3.52241C4.24374 3.57577 4.26388 3.62696 4.29974 3.66469C4.33559 3.70243 4.38422 3.72363 4.43493 3.72363C4.48564 3.72363 4.53427 3.70243 4.57012 3.66469C4.60598 3.62696 4.62612 3.57577 4.62612 3.52241ZM13.1133 3.97758L12.3028 3.12454C12.1772 2.99235 12.0242 2.8996 11.8574 2.85152V2.43617C11.8574 1.65314 11.2521 1.01611 10.5081 1.01611H2.19768C2.14697 1.01611 2.09834 1.03731 2.06249 1.07505C2.02663 1.11279 2.00649 1.16397 2.00649 1.21734C2.00649 1.27071 2.02663 1.32189 2.06249 1.35963C2.09834 1.39736 2.14697 1.41856 2.19768 1.41856H10.5081C11.0413 1.41856 11.475 1.87507 11.475 2.43617V2.82048C11.2487 2.84718 11.0392 2.95265 10.8758 3.12457L8.18507 5.95655H2.84868C2.79797 5.95655 2.74934 5.97775 2.71348 6.01549C2.67763 6.05323 2.65749 6.10441 2.65749 6.15778C2.65749 6.21114 2.67763 6.26233 2.71348 6.30006C2.74934 6.3378 2.79797 6.359 2.84868 6.359H7.80266L6.6536 7.56836H3.75148C3.70078 7.56836 3.65215 7.58956 3.61629 7.6273C3.58044 7.66504 3.56029 7.71622 3.56029 7.76959C3.56029 7.82295 3.58044 7.87414 3.61629 7.91187C3.65215 7.94961 3.70078 7.97081 3.75148 7.97081H6.27121C6.17748 8.09477 5.66353 8.46998 5.5195 9.29028L5.32124 10.4192C5.22738 10.9536 5.67202 11.4249 6.18242 11.3255L7.25501 11.1169C7.66714 11.0367 8.03102 10.8284 8.31355 10.5311L11.475 7.20369V11.7001C11.475 12.176 11.168 12.5835 10.7284 12.6912C10.6793 12.7036 10.6369 12.736 10.6103 12.7812C10.5838 12.8264 10.5754 12.8808 10.5868 12.9325C10.5982 12.9843 10.6287 13.0292 10.6714 13.0574C10.7142 13.0856 10.7659 13.0949 10.8151 13.0832C11.4288 12.9328 11.8574 12.3641 11.8574 11.7001V6.80121L13.1133 5.47941C13.5067 5.06537 13.5067 4.39164 13.1133 3.97758ZM6.11291 10.9298C5.8665 10.9776 5.6517 10.7515 5.69723 10.4923L5.78808 9.97493L6.60442 10.8341L6.11291 10.9298ZM7.06086 10.7453L5.87246 9.49459C5.8912 9.42126 5.90958 9.08707 6.14513 8.71824L6.2213 8.94034C6.25295 9.03298 6.30365 9.11712 6.3698 9.18674C6.43594 9.25635 6.51589 9.30972 6.60391 9.34303L6.93322 9.46814C6.96837 9.48143 7.00029 9.50275 7.0267 9.53054C7.05311 9.55834 7.07336 9.59194 7.086 9.62893L7.20487 9.97549C7.23651 10.0681 7.28722 10.1523 7.35336 10.2219C7.41951 10.2915 7.49945 10.3449 7.58748 10.3782L7.7985 10.4583C7.44921 10.7055 7.13298 10.7249 7.06086 10.7453ZM8.12904 10.1561L7.71729 9.99964C7.68214 9.98634 7.65022 9.96503 7.62381 9.93723C7.59739 9.90944 7.57715 9.87584 7.56451 9.83885L7.44564 9.49231C7.38114 9.30426 7.2417 9.15747 7.06303 9.08962L6.73374 8.96451C6.69859 8.95121 6.66667 8.9299 6.64026 8.9021C6.61384 8.87431 6.59359 8.84071 6.58094 8.80372L6.4323 8.37036L9.37431 5.27397L11.071 7.05972L8.12904 10.1561ZM11.3414 6.77513L9.64475 4.98939L10.2326 4.37074L11.9292 6.15649L11.3414 6.77513ZM12.8429 5.19485L12.1996 5.8719L10.5029 4.08616L11.1462 3.4091C11.3911 3.15137 11.7875 3.15132 12.0324 3.4091L12.8429 4.26213C13.0872 4.5193 13.0872 4.93771 12.8429 5.19485ZM8.92281 7.25035L8.16116 8.05194C8.12531 8.08968 8.10517 8.14086 8.10517 8.19422C8.10517 8.24759 8.12531 8.29877 8.16116 8.3365C8.19701 8.37424 8.24564 8.39543 8.29634 8.39543C8.34704 8.39543 8.39567 8.37424 8.43153 8.3365L9.19318 7.53488C9.21136 7.51629 9.22584 7.49409 9.23579 7.46956C9.24574 7.44503 9.25095 7.41867 9.25113 7.392C9.25131 7.36533 9.24646 7.33889 9.23684 7.31422C9.22723 7.28954 9.21305 7.26712 9.19513 7.24827C9.17721 7.22941 9.15591 7.21449 9.13247 7.20437C9.10902 7.19426 9.0839 7.18915 9.05856 7.18934C9.03322 7.18954 9.00817 7.19503 8.98487 7.2055C8.96156 7.21597 8.94047 7.23122 8.92281 7.25035Z" fill="black"/>
</svg>
