<svg width="21" height="20" viewBox="0 0 21 20" fill="none" xmlns="http://www.w3.org/2000/svg">
<path d="M12.3667 16.9001V12.2667C12.3667 11.9354 12.6353 11.6667 12.9667 11.6667H17.6C17.9314 11.6667 18.2 11.9354 18.2 12.2667V16.9001C18.2 17.2315 17.9314 17.5001 17.6 17.5001H12.9667C12.6353 17.5001 12.3667 17.2315 12.3667 16.9001Z" stroke="#728098"/>
<path d="M3.20001 16.9001V12.2667C3.20001 11.9354 3.46864 11.6667 3.80001 11.6667H8.43335C8.76472 11.6667 9.03335 11.9354 9.03335 12.2667V16.9001C9.03335 17.2315 8.76472 17.5001 8.43334 17.5001H3.80001C3.46864 17.5001 3.20001 17.2315 3.20001 16.9001Z" stroke="#728098"/>
<path d="M12.3667 7.73333V3.1C12.3667 2.76863 12.6353 2.5 12.9667 2.5H17.6C17.9314 2.5 18.2 2.76863 18.2 3.1V7.73333C18.2 8.0647 17.9314 8.33333 17.6 8.33333H12.9667C12.6353 8.33333 12.3667 8.0647 12.3667 7.73333Z" stroke="#728098"/>
<path d="M3.20001 7.73333V3.1C3.20001 2.76863 3.46864 2.5 3.80001 2.5H8.43335C8.76472 2.5 9.03335 2.76863 9.03335 3.1V7.73333C9.03335 8.0647 8.76472 8.33333 8.43334 8.33333H3.80001C3.46864 8.33333 3.20001 8.0647 3.20001 7.73333Z" stroke="#728098"/>
</svg>
