<svg width="20" height="20" viewBox="0 0 20 20" fill="none" xmlns="http://www.w3.org/2000/svg">
<path d="M17.2716 5.66406C17.6851 5.66406 17.9718 5.24605 17.8167 4.86273C17.2662 3.50176 15.931 2.53906 14.375 2.53906H13.6557C13.3875 1.12215 12.1451 0 10.625 0H9.37499C7.85581 0 6.61269 1.12141 6.34429 2.53906H5.62499C4.06897 2.53906 2.73374 3.50176 2.18323 4.86273C2.02819 5.24605 2.31487 5.66406 2.72835 5.66406H17.2716ZM9.37499 1.17188H10.625C11.4805 1.17188 12.2066 1.74742 12.4511 2.53906H7.5489C7.79335 1.74742 8.51952 1.17188 9.37499 1.17188ZM4.338 18.367C4.40319 19.2827 5.17339 20 6.09136 20H13.9086C14.8266 20 15.5967 19.2827 15.6619 18.367L16.4832 6.83594H3.51683L4.338 18.367ZM11.6023 9.97074C11.6185 9.64754 11.8941 9.39828 12.2167 9.4148C12.54 9.43098 12.7889 9.70609 12.7727 10.0293L12.4602 16.2793C12.4445 16.5925 12.1856 16.8359 11.8755 16.8359C11.5381 16.8359 11.2731 16.5538 11.2898 16.2207L11.6023 9.97074ZM7.78323 9.4148C8.10601 9.39859 8.38155 9.64758 8.39769 9.97074L8.71019 16.2207C8.72683 16.5539 8.46167 16.8359 8.12448 16.8359C7.81433 16.8359 7.55542 16.5925 7.53976 16.2793L7.22726 10.0293C7.21112 9.70609 7.46003 9.43098 7.78323 9.4148Z" fill="#F34F4F"/>
</svg>
