<svg width="20" height="20" viewBox="0 0 20 20" fill="none" xmlns="http://www.w3.org/2000/svg">
<path fill-rule="evenodd" clip-rule="evenodd" d="M7.39372 4.18278H18.4966L11.9021 8.7036L7.41637 5.62849C7.58715 5.17118 7.5886 4.65427 7.39372 4.18278ZM4.48993 6.80669L6.10829 5.8213C6.58856 5.52888 6.74797 4.90497 6.4668 4.41798L5.00575 1.88735C4.85587 1.6277 4.62899 1.46067 4.33657 1.39466C4.04411 1.3286 3.76754 1.38192 3.52059 1.55196L0.85606 3.38649C-0.41226 7.8554 5.28731 17.5304 9.65856 18.6328L12.5796 17.2425C12.8503 17.1137 13.0348 16.9008 13.1238 16.6145C13.2128 16.3283 13.1816 16.0483 13.0317 15.7886L11.5706 13.258C11.2895 12.771 10.6695 12.5971 10.1761 12.8668L8.51352 13.7757C6.86938 12.3134 4.93422 8.96169 4.48993 6.80669ZM19.3031 4.76419L12.1657 9.65708C11.9988 9.77106 11.7842 9.76216 11.629 9.65063L6.89071 6.40239C6.79947 6.48464 6.70074 6.55819 6.59583 6.62208L5.57223 7.24528C6.11001 8.98083 7.44067 11.2856 8.67481 12.6191L9.72633 12.0442C10.6659 11.5306 11.8471 11.862 12.3825 12.7893L13.2886 14.3586H18.5662C18.9829 14.3586 19.3239 14.0177 19.3239 13.601V4.94044C19.3239 4.88107 19.3169 4.82191 19.3031 4.76419Z" fill="#1BDDFF"/>
</svg>
