<svg width="40" height="40" viewBox="0 0 40 40" fill="none" xmlns="http://www.w3.org/2000/svg">
<rect width="40" height="40" rx="20" fill="white"/>
<path fill-rule="evenodd" clip-rule="evenodd" d="M17.2235 11.776C17.5589 10.6494 18.5428 9.5 20 9.5C21.4576 9.5 22.4405 10.6495 22.7784 11.7739C22.7801 11.776 22.7824 11.7787 22.7853 11.7817C22.7922 11.7889 22.8001 11.7956 22.8075 11.8007C22.8132 11.8047 22.8166 11.8064 22.817 11.8066C23.6653 12.1558 24.6637 12.7137 25.4446 13.7351C26.2318 14.7648 26.7439 16.1941 26.7439 18.1883C26.7439 20.1765 26.9537 21.2668 27.2626 22.0153C27.5334 22.6716 27.8896 23.103 28.3964 23.7168C28.4704 23.8065 28.5476 23.9 28.6283 23.9987L28.6285 23.999C29.5625 25.1431 28.6805 26.75 27.2417 26.75H12.763C11.3268 26.75 10.4299 25.1513 11.3717 23.9987C11.4524 23.9 11.5297 23.8063 11.6038 23.7166C12.1105 23.1029 12.4667 22.6714 12.7378 22.0151C13.047 21.2666 13.2573 20.1763 13.2584 18.1883M17.2235 11.776C17.2222 11.7775 17.2206 11.7794 17.2186 11.7814C17.2122 11.788 17.2047 11.7944 17.1971 11.7996C17.1902 11.8044 17.186 11.8063 17.186 11.8063L17.1855 11.8065C16.3369 12.156 15.3381 12.7128 14.5571 13.734C13.7699 14.7632 13.2585 16.1924 13.2584 18.1878M20 11C19.4226 11 18.8711 11.4815 18.6577 12.2157L18.6571 12.2176C18.5195 12.6865 18.1385 13.0364 17.7567 13.1935C17.7566 13.1935 17.7566 13.1935 17.7565 13.1936C17.04 13.4886 16.3076 13.9143 15.7486 14.6452C15.1957 15.3681 14.7584 16.4607 14.7584 18.1883V18.1887C14.7572 20.2622 14.5414 21.5776 14.1242 22.5878C13.7612 23.4666 13.2545 24.0772 12.7518 24.6832C12.6787 24.7712 12.6057 24.8592 12.5333 24.9478L12.5332 24.9479C12.5034 24.9844 12.495 25.0144 12.493 25.0369C12.4907 25.0625 12.4955 25.093 12.5115 25.1245C12.5394 25.1791 12.6088 25.25 12.763 25.25H27.2417C27.3903 25.25 27.4586 25.1814 27.487 25.1254C27.5175 25.0652 27.5137 25.0055 27.4667 24.9478C27.3943 24.8592 27.3214 24.7713 27.2483 24.6833C26.7456 24.0773 26.2388 23.4665 25.876 22.5876C25.4591 21.5773 25.2439 20.2617 25.2439 18.1883C25.2439 16.4629 24.8063 15.3699 24.253 14.6462C23.6935 13.9143 22.9607 13.4879 22.2457 13.1935C21.8596 13.0347 21.4826 12.6799 21.3458 12.2188L21.3453 12.2169C21.1291 11.4812 20.5774 11 20 11Z" fill="#06283D"/>
<path fill-rule="evenodd" clip-rule="evenodd" d="M17 25.25C17.4142 25.25 17.75 25.5858 17.75 26V26.75C17.75 27.3467 17.9871 27.919 18.409 28.341C18.831 28.7629 19.4033 29 20 29C20.5967 29 21.169 28.7629 21.591 28.341C22.0129 27.919 22.25 27.3467 22.25 26.75V26C22.25 25.5858 22.5858 25.25 23 25.25C23.4142 25.25 23.75 25.5858 23.75 26V26.75C23.75 27.7446 23.3549 28.6984 22.6516 29.4016C21.9484 30.1049 20.9946 30.5 20 30.5C19.0054 30.5 18.0516 30.1049 17.3483 29.4016C16.6451 28.6984 16.25 27.7446 16.25 26.75V26C16.25 25.5858 16.5858 25.25 17 25.25Z" fill="#06283D"/>
<rect x="22" y="5" width="13" height="13" rx="6.5" fill="#B81D26"/>
<path d="M27.45 8.75V7.71H29.53V15H28.38V8.75H27.45Z" fill="white"/>
</svg>
