<svg width="24" height="27" viewBox="0 0 24 27" fill="none" xmlns="http://www.w3.org/2000/svg">
<path d="M22.7116 18.0675C22.6151 17.9511 22.5202 17.8347 22.4271 17.7224C21.1469 16.174 20.3724 15.2395 20.3724 10.856C20.3724 8.58665 19.8295 6.72458 18.7594 5.32803C17.9704 4.29633 16.9037 3.51368 15.4979 2.93527C15.4798 2.92521 15.4636 2.912 15.4502 2.89628C14.9445 1.20296 13.5607 0.0688477 12.0001 0.0688477C10.4395 0.0688477 9.05628 1.20296 8.55061 2.89454C8.53714 2.90971 8.52121 2.92249 8.50348 2.93236C5.22275 4.28294 3.62835 6.87413 3.62835 10.8543C3.62835 15.2395 2.85501 16.174 1.57368 17.7207C1.48057 17.833 1.38572 17.947 1.28913 18.0657C1.03961 18.3667 0.881521 18.7328 0.833569 19.1207C0.785616 19.5087 0.849807 19.9022 1.01855 20.2548C1.37758 21.0113 2.14277 21.4809 3.0162 21.4809H20.9904C21.8598 21.4809 22.6197 21.0119 22.9799 20.2589C23.1494 19.9062 23.2142 19.5123 23.1666 19.1239C23.1191 18.7355 22.9612 18.3689 22.7116 18.0675ZM12.0001 26.1378C12.841 26.1371 13.666 25.9089 14.3876 25.4773C15.1092 25.0457 15.7006 24.4268 16.099 23.6863C16.1177 23.6508 16.127 23.6111 16.1259 23.5709C16.1248 23.5308 16.1133 23.4916 16.0925 23.4573C16.0718 23.4229 16.0425 23.3945 16.0076 23.3747C15.9726 23.355 15.9331 23.3447 15.893 23.3447H8.10837C8.06818 23.3446 8.02863 23.3548 7.99359 23.3745C7.95854 23.3942 7.92919 23.4226 7.90839 23.457C7.88759 23.4914 7.87605 23.5306 7.87489 23.5708C7.87374 23.611 7.88301 23.6508 7.9018 23.6863C8.30013 24.4267 8.8914 25.0455 9.61293 25.4771C10.3345 25.9087 11.1593 26.137 12.0001 26.1378Z" fill="white"/>
</svg>
