<svg width="41" height="40" viewBox="0 0 41 40" fill="none" xmlns="http://www.w3.org/2000/svg">
<path d="M25.3336 13.3574H18.9706C18.647 13.3574 18.3846 13.0952 18.3846 12.7715C18.3846 12.4478 18.647 12.1855 18.9706 12.1855H25.3336C25.6572 12.1855 25.9195 12.4478 25.9195 12.7715C25.9195 13.0952 25.6573 13.3574 25.3336 13.3574Z" fill="#E589E5"/>
<path d="M31.6967 10.3499H18.9706C18.647 10.3499 18.3846 10.0876 18.3846 9.76392C18.3846 9.44024 18.647 9.17798 18.9706 9.17798H31.6967C32.0203 9.17798 32.2827 9.44024 32.2827 9.76392C32.2827 10.0876 32.0203 10.3499 31.6967 10.3499Z" fill="#E589E5"/>
<path d="M25.3336 23.1768H18.9706C18.647 23.1768 18.3846 22.9145 18.3846 22.5908C18.3846 22.2671 18.647 22.0049 18.9706 22.0049H25.3336C25.6572 22.0049 25.9195 22.2671 25.9195 22.5908C25.9195 22.9145 25.6573 23.1768 25.3336 23.1768Z" fill="#E589E5"/>
<path d="M31.6967 20.1692H18.9706C18.647 20.1692 18.3846 19.9069 18.3846 19.5833C18.3846 19.2596 18.647 18.9973 18.9706 18.9973H31.6967C32.0203 18.9973 32.2827 19.2596 32.2827 19.5833C32.2827 19.9069 32.0203 20.1692 31.6967 20.1692Z" fill="#E589E5"/>
<path d="M25.3336 32.9959H18.9706C18.647 32.9959 18.3846 32.7336 18.3846 32.4099C18.3846 32.0862 18.647 31.824 18.9706 31.824H25.3336C25.6572 31.824 25.9195 32.0862 25.9195 32.4099C25.9195 32.7336 25.6573 32.9959 25.3336 32.9959Z" fill="#E589E5"/>
<path d="M31.6967 29.9883H18.9706C18.647 29.9883 18.3846 29.726 18.3846 29.4023C18.3846 29.0787 18.647 28.8164 18.9706 28.8164H31.6967C32.0203 28.8164 32.2827 29.0787 32.2827 29.4023C32.2827 29.726 32.0203 29.9883 31.6967 29.9883Z" fill="#E589E5"/>
<path d="M25.8999 5.51961H15.7667C14.8036 5.51961 14.02 4.73609 14.02 3.77297V1.74672C14.0201 0.783594 14.8036 0 15.7667 0H25.8998C26.8629 0 27.6465 0.783594 27.6465 1.74672V3.77297C27.6465 4.73609 26.863 5.51961 25.8999 5.51961ZM15.7667 1.17188C15.4498 1.17188 15.1919 1.42977 15.1919 1.74672V3.77297C15.1919 4.08992 15.4498 4.34773 15.7667 4.34773H25.8998C26.2167 4.34773 26.4746 4.08984 26.4746 3.77297V1.74672C26.4746 1.42969 26.2167 1.17188 25.8998 1.17188H15.7667Z" fill="#E589E5"/>
<path d="M13.5612 14.1429H10.957C10.0896 14.1429 9.38391 13.4372 9.38391 12.5698V9.9657C9.38391 9.09828 10.0896 8.39258 10.957 8.39258H13.5612C14.4286 8.39258 15.1343 9.09828 15.1343 9.9657V12.5698C15.1343 13.4372 14.4286 14.1429 13.5612 14.1429ZM10.957 9.56445C10.7358 9.56445 10.5558 9.74445 10.5558 9.9657V12.5698C10.5558 12.7911 10.7358 12.9711 10.957 12.9711H13.5612C13.7824 12.9711 13.9624 12.7911 13.9624 12.5698V9.9657C13.9624 9.74445 13.7824 9.56445 13.5612 9.56445H10.957Z" fill="#E589E5"/>
<path d="M13.5612 23.9623H10.957C10.0896 23.9623 9.38391 23.2566 9.38391 22.3892V19.785C9.38391 18.9176 10.0896 18.2119 10.957 18.2119H13.5612C14.4286 18.2119 15.1343 18.9176 15.1343 19.785V22.3892C15.1343 23.2566 14.4286 23.9623 13.5612 23.9623ZM10.957 19.3838C10.7358 19.3838 10.5558 19.5638 10.5558 19.785V22.3892C10.5558 22.6104 10.7358 22.7904 10.957 22.7904H13.5612C13.7824 22.7904 13.9624 22.6104 13.9624 22.3892V19.785C13.9624 19.5638 13.7824 19.3838 13.5612 19.3838H10.957Z" fill="#E589E5"/>
<path d="M13.5612 33.7815H10.957C10.0896 33.7815 9.38391 33.0758 9.38391 32.2083V29.6042C9.38391 28.7367 10.0896 28.031 10.957 28.031H13.5612C14.4286 28.031 15.1343 28.7367 15.1343 29.6042V32.2083C15.1343 33.0758 14.4286 33.7815 13.5612 33.7815ZM10.957 29.203C10.7358 29.203 10.5558 29.383 10.5558 29.6043V32.2083C10.5558 32.4296 10.7358 32.6097 10.957 32.6097H13.5612C13.7824 32.6097 13.9624 32.4296 13.9624 32.2083V29.6043C13.9624 29.383 13.7824 29.203 13.5612 29.203H10.957Z" fill="#E589E5"/>
<path d="M33.2982 39.9999H8.36838C6.96869 39.9999 5.83002 38.8613 5.83002 37.4616V4.71211C5.83002 3.3125 6.96877 2.17383 8.36838 2.17383H11.8797C12.2033 2.17383 12.4656 2.43609 12.4656 2.75977C12.4656 3.08344 12.2033 3.3457 11.8797 3.3457H8.36838C7.61486 3.3457 7.00189 3.95867 7.00189 4.71211V37.4615C7.00189 38.215 7.61494 38.828 8.36838 38.828H33.2982C34.0517 38.828 34.6647 38.2149 34.6647 37.4615V4.71211C34.6647 3.95859 34.0517 3.3457 33.2982 3.3457H29.7869C29.4633 3.3457 29.201 3.08344 29.201 2.75977C29.201 2.43609 29.4633 2.17383 29.7869 2.17383H33.2982C34.6979 2.17383 35.8366 3.3125 35.8366 4.71211V37.4615C35.8366 38.8613 34.6978 39.9999 33.2982 39.9999Z" fill="#E589E5"/>
</svg>
