<svg width="41" height="40" viewBox="0 0 41 40" fill="none" xmlns="http://www.w3.org/2000/svg">
<g clip-path="url(#clip0_2042_723)">
<path d="M21.6785 6.08911C25.8191 1.96742 32.5575 1.96745 36.6981 6.08911L36.6991 6.09009C38.4793 7.84299 39.6164 10.1452 39.9266 12.6243C40.2406 15.1222 39.7271 17.8044 38.4403 20.3821C38.3668 20.5289 38.2529 20.6521 38.1121 20.7366C37.9714 20.821 37.8094 20.8639 37.6453 20.8596H31.0711L31.0262 20.9231L29.3739 23.2883L29.3729 23.2893C29.2884 23.4112 29.1742 23.5096 29.0408 23.5745C28.9074 23.6393 28.7593 23.6683 28.6112 23.6594C28.4629 23.6505 28.3189 23.6033 28.1942 23.5227C28.0696 23.4422 27.9674 23.3308 27.8983 23.1995H27.8973L25.9158 19.4153L25.7752 19.1477L25.6473 19.4221L22.3114 26.5608C22.2348 26.7241 22.1093 26.8593 21.952 26.9475C21.7947 27.0357 21.6137 27.0729 21.4344 27.053C21.2553 27.0331 21.087 26.9575 20.953 26.8372C20.8188 26.7167 20.7253 26.5571 20.6864 26.3811L18.6053 16.9065L18.5106 16.4749L18.3231 16.8752L15.3875 23.1604C15.3194 23.3061 15.2116 23.4299 15.077 23.5178C14.9423 23.6057 14.7856 23.6538 14.6248 23.6575C14.464 23.6612 14.3054 23.62 14.1668 23.5383C14.0282 23.4567 13.9154 23.338 13.8407 23.1956L11.6815 19.0735L11.5672 18.8557L11.4256 19.0579L10.4246 20.4895C10.3451 20.6034 10.2392 20.6967 10.116 20.761C9.9929 20.8252 9.8555 20.8586 9.71663 20.8586H4.1346L4.28108 21.0891C4.37873 21.2427 4.48022 21.3943 4.58284 21.5452V21.5461C7.44845 25.7512 11.2938 29.1018 14.2 31.2825L14.7684 31.7024C16.4719 32.9496 18.2503 34.0909 20.0936 35.1204L20.1668 35.1614L20.2391 35.1213C22.0962 34.0962 29.1749 29.94 34.2996 23.5159H34.3006L34.3026 23.5129C34.3722 23.4219 34.459 23.3454 34.5584 23.2883C34.6581 23.2311 34.7686 23.194 34.8826 23.1799C34.9967 23.1658 35.1128 23.1751 35.2235 23.2063C35.3339 23.2375 35.4374 23.29 35.5272 23.3616C35.617 23.4332 35.6918 23.5224 35.7469 23.6233C35.8019 23.7241 35.8358 23.8352 35.8475 23.9495C35.8591 24.0638 35.8478 24.1794 35.8143 24.2893C35.7807 24.3993 35.7257 24.5017 35.6522 24.5901L35.6502 24.592C32.4313 28.6308 28.5059 31.7591 25.7772 33.676C22.8241 35.7503 20.6514 36.864 20.5614 36.9084H20.5594C20.438 36.9697 20.3038 37.0016 20.1678 37.0012C20.0317 37.001 19.8974 36.9693 19.7762 36.9075L19.7752 36.9065C19.6668 36.8519 17.1152 35.5446 13.7821 33.1204C10.7974 30.9457 6.62713 27.4464 3.45882 22.9583L3.15511 22.5208C2.68777 21.8371 2.26624 21.123 1.89436 20.3831H1.89534C1.82959 20.2514 1.79787 20.1053 1.80452 19.9583C1.80952 19.8478 1.83619 19.7399 1.88167 19.6399L1.93343 19.5432C2.01077 19.418 2.11838 19.3141 2.2469 19.2424C2.37548 19.1707 2.52056 19.1331 2.6678 19.1331H9.26546L9.31038 19.0696L10.9627 16.7043C11.0476 16.5827 11.1622 16.4846 11.2957 16.4202C11.4293 16.3557 11.5774 16.3268 11.7254 16.3362C11.8735 16.3456 12.017 16.3931 12.1414 16.4739C12.2657 16.5546 12.3676 16.6658 12.4364 16.7971L14.4188 20.5813L14.5594 20.8499L14.6873 20.5754L18.0233 13.4329V13.4319C18.0995 13.2681 18.2252 13.1319 18.3826 13.0432C18.5401 12.9546 18.7216 12.9179 18.9012 12.9377C19.0809 12.9577 19.2503 13.0335 19.3846 13.1545C19.4853 13.2453 19.5625 13.3584 19.6112 13.4836L19.6502 13.6125L21.7313 23.0872L21.827 23.5198L22.0135 23.1184L24.9491 16.8333C25.0171 16.6875 25.1249 16.5638 25.2596 16.4758C25.3943 16.3879 25.551 16.339 25.7117 16.3352C25.8727 16.3315 26.032 16.3726 26.1707 16.4543C26.3094 16.5361 26.4222 16.6555 26.4969 16.7981L28.6561 20.9202L28.7703 21.1389L28.9119 20.9358L29.91 19.5032L29.911 19.5042C29.9906 19.3902 30.0972 19.2969 30.2205 19.2327C30.3438 19.1684 30.481 19.135 30.6199 19.135H37.1258L37.1649 19.0461C39.1181 14.6935 38.5163 10.3372 35.4803 7.31567C32.0112 3.86183 26.368 3.8618 22.8983 7.31567C22.322 7.88924 21.5954 8.56862 20.8241 9.29126L20.7596 9.35083V9.35181C20.5996 9.50157 20.3879 9.58521 20.1688 9.58521C19.9497 9.58514 19.7389 9.50146 19.5789 9.35181L19.5106 9.28833C18.7387 8.56244 18.0147 7.88911 17.4393 7.31372H17.4383C13.9692 3.86052 8.32532 3.86049 4.85628 7.31372C2.56259 9.59644 1.62971 12.6862 2.21761 16.0032C2.25781 16.2286 2.20697 16.4608 2.076 16.6487C1.94503 16.8365 1.74478 16.9649 1.51936 17.0051C1.40776 17.025 1.29316 17.0226 1.18245 16.9983C1.07171 16.9739 0.966851 16.9274 0.873856 16.8625C0.78103 16.7977 0.701482 16.7157 0.640457 16.6204C0.579354 16.5248 0.537279 16.4176 0.51741 16.3059C0.173306 14.3755 0.272499 12.5067 0.808426 10.7502C1.34935 8.986 2.32127 7.38439 3.63655 6.09009L3.63753 6.08911C7.77886 1.9675 14.5169 1.96726 18.658 6.08911C19.0591 6.48878 19.5436 6.9491 20.0653 7.4397L20.1678 7.53638L20.2703 7.4397C20.531 7.19456 20.7827 6.95772 21.0194 6.73169L21.6785 6.08911Z" fill="#FFB3B3" stroke="white" stroke-width="0.3"/>
</g>
<defs>
<clipPath id="clip0_2042_723">
<rect width="40" height="40" fill="white" transform="translate(0.166672)"/>
</clipPath>
</defs>
</svg>
