<svg width="33" height="33" viewBox="0 0 33 33" fill="none" xmlns="http://www.w3.org/2000/svg">
<g clip-path="url(#clip0_4155_14543)">
<path d="M17.959 5.3584C21.2715 2.06137 26.6633 2.06199 29.9756 5.35938V5.36035C31.3998 6.76269 32.3095 8.60459 32.5576 10.5879C32.8088 12.5862 32.3986 14.7319 31.3691 16.7939C31.3104 16.9115 31.2191 17.0095 31.1064 17.0771C30.9938 17.1448 30.8638 17.1792 30.7324 17.1758H25.4736L25.4375 17.2266L24.1152 19.1191C24.0476 19.2168 23.9555 19.2957 23.8486 19.3477C23.7419 19.3995 23.6234 19.4232 23.5049 19.416C23.3864 19.4088 23.2716 19.371 23.1719 19.3066C23.0722 19.2422 22.9908 19.1529 22.9355 19.0479L21.3496 16.0205L21.2373 15.8066L21.1348 16.0254L18.4658 21.7373C18.4046 21.8678 18.3044 21.9763 18.1787 22.0469C18.053 22.1174 17.9079 22.1467 17.7646 22.1309C17.6213 22.115 17.4862 22.0544 17.3789 21.958C17.2716 21.8616 17.1971 21.7337 17.166 21.5928L15.501 14.0137L15.4248 13.668L15.2744 13.9893L12.9268 19.0166C12.8723 19.1332 12.7855 19.2324 12.6777 19.3027C12.5701 19.3729 12.4449 19.4111 12.3164 19.4141C12.1879 19.417 12.061 19.3845 11.9502 19.3193C11.8671 19.2704 11.7951 19.2047 11.7393 19.127L11.6885 19.0449L9.96191 15.7471L9.87012 15.5723L9.75684 15.7344L8.95605 16.8799C8.89241 16.9709 8.80748 17.0453 8.70898 17.0967C8.61064 17.1479 8.50152 17.1747 8.39062 17.1748H3.92383L4.04102 17.3594C4.11912 17.4823 4.20015 17.6039 4.28223 17.7246C6.72758 21.3131 10.0657 24.1239 12.4316 25.8506C13.7943 26.8483 15.2169 27.7615 16.6914 28.585L16.75 28.6172L16.8086 28.585C18.2486 27.7901 23.6075 24.6452 27.668 19.7773L28.0566 19.3008L28.0586 19.2988C28.1143 19.2259 28.184 19.1649 28.2637 19.1191C28.3434 19.0734 28.4313 19.0435 28.5225 19.0322C28.6136 19.021 28.7065 19.0278 28.7949 19.0527C28.8834 19.0777 28.9662 19.1205 29.0381 19.1777C29.1099 19.235 29.1698 19.3061 29.2139 19.3867C29.2579 19.4674 29.2856 19.5569 29.2949 19.6484C29.3042 19.7398 29.2954 19.8321 29.2686 19.9199C29.2417 20.0078 29.1974 20.0895 29.1387 20.1602L29.1367 20.1621C26.5615 23.3933 23.4212 25.8962 21.2383 27.4297C18.8758 29.0891 17.1374 29.9791 17.0654 30.0146L17.0645 30.0156C16.9673 30.0647 16.8598 30.0901 16.751 30.0898C16.6421 30.0897 16.5345 30.0632 16.4375 30.0137L16.0293 29.7959C15.2952 29.3934 13.6453 28.441 11.6426 26.9844C9.17778 25.1885 5.70182 22.2638 3.14062 18.5049L2.86719 18.0898C2.60091 17.6709 2.35586 17.2387 2.13281 16.7949C2.08022 16.6896 2.05525 16.5727 2.06055 16.4551C2.06587 16.3375 2.10119 16.2232 2.16309 16.123C2.22492 16.0229 2.3113 15.9402 2.41406 15.8828C2.51693 15.8254 2.63318 15.7949 2.75098 15.7949H8.0293L8.06445 15.7432L9.38672 13.8516C9.45461 13.7542 9.54642 13.6756 9.65332 13.624C9.76017 13.5725 9.8787 13.5501 9.99707 13.5576C10.1153 13.5651 10.2297 13.6025 10.3291 13.667C10.4286 13.7316 10.5104 13.8207 10.5654 13.9258L12.1514 16.9531L12.2637 17.168L12.3662 16.9482L15.0352 11.2344C15.0961 11.1032 15.1963 10.9938 15.3223 10.9229C15.4483 10.8519 15.5936 10.823 15.7373 10.8389C15.881 10.8548 16.0166 10.9149 16.124 11.0117C16.2314 11.1085 16.3061 11.2367 16.3369 11.3779V11.3789L18.002 18.958L18.0781 19.3037L18.2275 18.9824L20.5762 13.9551C20.6306 13.8385 20.7165 13.7394 20.8242 13.6689C20.932 13.5985 21.0578 13.5596 21.1865 13.5566C21.3152 13.5537 21.4419 13.587 21.5527 13.6523C21.6637 13.7177 21.7547 13.8127 21.8145 13.9268L23.541 17.2246L23.6328 17.3994L23.7461 17.2373L24.5459 16.0908C24.6096 15.9998 24.6945 15.9254 24.793 15.874C24.8915 15.8227 25.0012 15.7959 25.1123 15.7959H30.3174L30.3486 15.7246C31.911 12.2426 31.4297 8.758 29.001 6.34082C26.2257 3.57766 21.7104 3.57768 18.9346 6.34082C18.7041 6.57024 18.444 6.82136 18.1641 7.08691L17.2754 7.92188L17.2246 7.96875L17.2236 7.96973C17.0957 8.08938 16.9271 8.1562 16.752 8.15625C16.6204 8.15625 16.4925 8.11819 16.3828 8.04883L16.2793 7.96973L16.2256 7.91895H16.2246C15.6071 7.33824 15.0277 6.79916 14.5674 6.33887C11.7921 3.5764 7.27618 3.57631 4.50098 6.33887C2.6661 8.16504 1.92032 10.6375 2.39062 13.291C2.42274 13.4713 2.38209 13.6574 2.27734 13.8076C2.17256 13.9577 2.01226 14.0596 1.83203 14.0918C1.74272 14.1077 1.6511 14.1064 1.5625 14.0869C1.47391 14.0674 1.38983 14.0304 1.31543 13.9785C1.2411 13.9266 1.17774 13.8606 1.12891 13.7842C1.08003 13.7077 1.04617 13.6225 1.03027 13.5332C0.754998 11.989 0.834046 10.4939 1.2627 9.08887C1.69539 7.67744 2.47319 6.39583 3.52539 5.36035L3.52637 5.35938C6.83941 2.0621 12.23 2.06194 15.543 5.35938C15.8638 5.67913 16.2516 6.04791 16.6689 6.44043L16.751 6.51758L16.833 6.44043C17.25 6.04825 17.6383 5.68213 17.96 5.35938L17.959 5.3584Z" fill="#DD4369" stroke="white" stroke-width="0.24"/>
</g>
<defs>
<clipPath id="clip0_4155_14543">
<rect width="32" height="32" fill="white" transform="translate(0.75 0.488281)"/>
</clipPath>
</defs>
</svg>
